G04 (created by PCBNEW (2013-jul-07)-stable) date Sun 04 Jan 2015 08:40:56 PM MST*
%MOIN*%
G04 Gerber Fmt 3.4, Leading zero omitted, Abs format*
%FSLAX34Y34*%
G01*
G70*
G90*
G04 APERTURE LIST*
%ADD10C,0.00393701*%
%ADD11C,0.011811*%
%ADD12C,0.00787402*%
%ADD13C,0.00590551*%
%ADD14R,0.0177X0.0787*%
%ADD15R,0.0787X0.0177*%
%ADD16R,0.0315X0.0394*%
%ADD17R,0.025X0.045*%
%ADD18R,0.06X0.06*%
%ADD19C,0.06*%
%ADD20R,0.08X0.08*%
%ADD21C,0.08*%
%ADD22R,0.045X0.025*%
%ADD23R,0.055X0.055*%
%ADD24C,0.055*%
%ADD25C,0.035*%
%ADD26C,0.02*%
%ADD27C,0.01*%
G04 APERTURE END LIST*
G54D10*
G54D11*
X58548Y-40790D02*
X58886Y-40790D01*
X58717Y-40790D02*
X58717Y-40199D01*
X58773Y-40284D01*
X58830Y-40340D01*
X58886Y-40368D01*
X58295Y-40733D02*
X58267Y-40762D01*
X58295Y-40790D01*
X58323Y-40762D01*
X58295Y-40733D01*
X58295Y-40790D01*
X57733Y-40199D02*
X58014Y-40199D01*
X58042Y-40480D01*
X58014Y-40452D01*
X57958Y-40424D01*
X57817Y-40424D01*
X57761Y-40452D01*
X57733Y-40480D01*
X57705Y-40537D01*
X57705Y-40677D01*
X57733Y-40733D01*
X57761Y-40762D01*
X57817Y-40790D01*
X57958Y-40790D01*
X58014Y-40762D01*
X58042Y-40733D01*
X57452Y-40790D02*
X57452Y-40396D01*
X57452Y-40452D02*
X57424Y-40424D01*
X57367Y-40396D01*
X57283Y-40396D01*
X57227Y-40424D01*
X57199Y-40480D01*
X57199Y-40790D01*
X57199Y-40480D02*
X57170Y-40424D01*
X57114Y-40396D01*
X57030Y-40396D01*
X56974Y-40424D01*
X56946Y-40480D01*
X56946Y-40790D01*
X56242Y-40171D02*
X56749Y-40930D01*
X55933Y-40199D02*
X55877Y-40199D01*
X55821Y-40227D01*
X55793Y-40255D01*
X55764Y-40312D01*
X55736Y-40424D01*
X55736Y-40565D01*
X55764Y-40677D01*
X55793Y-40733D01*
X55821Y-40762D01*
X55877Y-40790D01*
X55933Y-40790D01*
X55989Y-40762D01*
X56017Y-40733D01*
X56046Y-40677D01*
X56074Y-40565D01*
X56074Y-40424D01*
X56046Y-40312D01*
X56017Y-40255D01*
X55989Y-40227D01*
X55933Y-40199D01*
X55483Y-40733D02*
X55455Y-40762D01*
X55483Y-40790D01*
X55511Y-40762D01*
X55483Y-40733D01*
X55483Y-40790D01*
X55258Y-40199D02*
X54893Y-40199D01*
X55089Y-40424D01*
X55005Y-40424D01*
X54949Y-40452D01*
X54921Y-40480D01*
X54893Y-40537D01*
X54893Y-40677D01*
X54921Y-40733D01*
X54949Y-40762D01*
X55005Y-40790D01*
X55174Y-40790D01*
X55230Y-40762D01*
X55258Y-40733D01*
X54640Y-40790D02*
X54640Y-40396D01*
X54640Y-40452D02*
X54611Y-40424D01*
X54555Y-40396D01*
X54471Y-40396D01*
X54415Y-40424D01*
X54386Y-40480D01*
X54386Y-40790D01*
X54386Y-40480D02*
X54358Y-40424D01*
X54302Y-40396D01*
X54218Y-40396D01*
X54161Y-40424D01*
X54133Y-40480D01*
X54133Y-40790D01*
X58731Y-39777D02*
X58647Y-39805D01*
X58506Y-39805D01*
X58450Y-39777D01*
X58422Y-39749D01*
X58394Y-39693D01*
X58394Y-39637D01*
X58422Y-39580D01*
X58450Y-39552D01*
X58506Y-39524D01*
X58619Y-39496D01*
X58675Y-39468D01*
X58703Y-39440D01*
X58731Y-39384D01*
X58731Y-39327D01*
X58703Y-39271D01*
X58675Y-39243D01*
X58619Y-39215D01*
X58478Y-39215D01*
X58394Y-39243D01*
X58141Y-39805D02*
X58141Y-39412D01*
X58141Y-39215D02*
X58169Y-39243D01*
X58141Y-39271D01*
X58113Y-39243D01*
X58141Y-39215D01*
X58141Y-39271D01*
X57916Y-39412D02*
X57606Y-39412D01*
X57916Y-39805D01*
X57606Y-39805D01*
X57156Y-39777D02*
X57213Y-39805D01*
X57325Y-39805D01*
X57381Y-39777D01*
X57410Y-39721D01*
X57410Y-39496D01*
X57381Y-39440D01*
X57325Y-39412D01*
X57213Y-39412D01*
X57156Y-39440D01*
X57128Y-39496D01*
X57128Y-39552D01*
X57410Y-39609D01*
X56453Y-39187D02*
X56960Y-39946D01*
X56341Y-39215D02*
X56003Y-39215D01*
X56172Y-39805D02*
X56172Y-39215D01*
X55807Y-39805D02*
X55807Y-39215D01*
X55553Y-39805D02*
X55553Y-39496D01*
X55582Y-39440D01*
X55638Y-39412D01*
X55722Y-39412D01*
X55778Y-39440D01*
X55807Y-39468D01*
X55272Y-39805D02*
X55272Y-39412D01*
X55272Y-39215D02*
X55300Y-39243D01*
X55272Y-39271D01*
X55244Y-39243D01*
X55272Y-39215D01*
X55272Y-39271D01*
X54738Y-39777D02*
X54794Y-39805D01*
X54907Y-39805D01*
X54963Y-39777D01*
X54991Y-39749D01*
X55019Y-39693D01*
X55019Y-39524D01*
X54991Y-39468D01*
X54963Y-39440D01*
X54907Y-39412D01*
X54794Y-39412D01*
X54738Y-39440D01*
X54485Y-39805D02*
X54485Y-39215D01*
X54429Y-39580D02*
X54260Y-39805D01*
X54260Y-39412D02*
X54485Y-39637D01*
G54D12*
X58441Y-41636D02*
X58722Y-41636D01*
X58581Y-41636D02*
X58581Y-41144D01*
X58628Y-41214D01*
X58675Y-41261D01*
X58722Y-41284D01*
X58230Y-41589D02*
X58206Y-41612D01*
X58230Y-41636D01*
X58253Y-41612D01*
X58230Y-41589D01*
X58230Y-41636D01*
X58019Y-41190D02*
X57995Y-41167D01*
X57949Y-41144D01*
X57831Y-41144D01*
X57784Y-41167D01*
X57761Y-41190D01*
X57738Y-41237D01*
X57738Y-41284D01*
X57761Y-41354D01*
X58042Y-41636D01*
X57738Y-41636D01*
X57292Y-41144D02*
X57527Y-41144D01*
X57550Y-41378D01*
X57527Y-41354D01*
X57480Y-41331D01*
X57363Y-41331D01*
X57316Y-41354D01*
X57292Y-41378D01*
X57269Y-41425D01*
X57269Y-41542D01*
X57292Y-41589D01*
X57316Y-41612D01*
X57363Y-41636D01*
X57480Y-41636D01*
X57527Y-41612D01*
X57550Y-41589D01*
X56706Y-41120D02*
X57128Y-41753D01*
X56449Y-41144D02*
X56402Y-41144D01*
X56355Y-41167D01*
X56332Y-41190D01*
X56308Y-41237D01*
X56285Y-41331D01*
X56285Y-41448D01*
X56308Y-41542D01*
X56332Y-41589D01*
X56355Y-41612D01*
X56402Y-41636D01*
X56449Y-41636D01*
X56496Y-41612D01*
X56519Y-41589D01*
X56542Y-41542D01*
X56566Y-41448D01*
X56566Y-41331D01*
X56542Y-41237D01*
X56519Y-41190D01*
X56496Y-41167D01*
X56449Y-41144D01*
X56074Y-41589D02*
X56050Y-41612D01*
X56074Y-41636D01*
X56097Y-41612D01*
X56074Y-41589D01*
X56074Y-41636D01*
X55863Y-41190D02*
X55839Y-41167D01*
X55793Y-41144D01*
X55675Y-41144D01*
X55628Y-41167D01*
X55605Y-41190D01*
X55582Y-41237D01*
X55582Y-41284D01*
X55605Y-41354D01*
X55886Y-41636D01*
X55582Y-41636D01*
X55371Y-41636D02*
X55371Y-41308D01*
X55371Y-41354D02*
X55347Y-41331D01*
X55300Y-41308D01*
X55230Y-41308D01*
X55183Y-41331D01*
X55160Y-41378D01*
X55160Y-41636D01*
X55160Y-41378D02*
X55136Y-41331D01*
X55089Y-41308D01*
X55019Y-41308D01*
X54972Y-41331D01*
X54949Y-41378D01*
X54949Y-41636D01*
X54715Y-41636D02*
X54715Y-41308D01*
X54715Y-41354D02*
X54691Y-41331D01*
X54644Y-41308D01*
X54574Y-41308D01*
X54527Y-41331D01*
X54504Y-41378D01*
X54504Y-41636D01*
X54504Y-41378D02*
X54480Y-41331D01*
X54433Y-41308D01*
X54363Y-41308D01*
X54316Y-41331D01*
X54293Y-41378D01*
X54293Y-41636D01*
G54D13*
X58689Y-42383D02*
X58914Y-42383D01*
X58802Y-42383D02*
X58802Y-41990D01*
X58839Y-42046D01*
X58877Y-42083D01*
X58914Y-42102D01*
X58520Y-42346D02*
X58502Y-42365D01*
X58520Y-42383D01*
X58539Y-42365D01*
X58520Y-42346D01*
X58520Y-42383D01*
X58258Y-41990D02*
X58220Y-41990D01*
X58183Y-42008D01*
X58164Y-42027D01*
X58145Y-42065D01*
X58127Y-42140D01*
X58127Y-42233D01*
X58145Y-42308D01*
X58164Y-42346D01*
X58183Y-42365D01*
X58220Y-42383D01*
X58258Y-42383D01*
X58295Y-42365D01*
X58314Y-42346D01*
X58333Y-42308D01*
X58352Y-42233D01*
X58352Y-42140D01*
X58333Y-42065D01*
X58314Y-42027D01*
X58295Y-42008D01*
X58258Y-41990D01*
X57958Y-42383D02*
X57958Y-42121D01*
X57958Y-42158D02*
X57939Y-42140D01*
X57902Y-42121D01*
X57845Y-42121D01*
X57808Y-42140D01*
X57789Y-42177D01*
X57789Y-42383D01*
X57789Y-42177D02*
X57770Y-42140D01*
X57733Y-42121D01*
X57677Y-42121D01*
X57639Y-42140D01*
X57620Y-42177D01*
X57620Y-42383D01*
X57433Y-42383D02*
X57433Y-42121D01*
X57433Y-42158D02*
X57414Y-42140D01*
X57377Y-42121D01*
X57320Y-42121D01*
X57283Y-42140D01*
X57264Y-42177D01*
X57264Y-42383D01*
X57264Y-42177D02*
X57245Y-42140D01*
X57208Y-42121D01*
X57152Y-42121D01*
X57114Y-42140D01*
X57095Y-42177D01*
X57095Y-42383D01*
X56327Y-41971D02*
X56664Y-42477D01*
X55896Y-42346D02*
X55877Y-42365D01*
X55896Y-42383D01*
X55914Y-42365D01*
X55896Y-42346D01*
X55896Y-42383D01*
X55502Y-42383D02*
X55727Y-42383D01*
X55614Y-42383D02*
X55614Y-41990D01*
X55652Y-42046D01*
X55689Y-42083D01*
X55727Y-42102D01*
X55146Y-41990D02*
X55333Y-41990D01*
X55352Y-42177D01*
X55333Y-42158D01*
X55296Y-42140D01*
X55202Y-42140D01*
X55164Y-42158D01*
X55146Y-42177D01*
X55127Y-42215D01*
X55127Y-42308D01*
X55146Y-42346D01*
X55164Y-42365D01*
X55202Y-42383D01*
X55296Y-42383D01*
X55333Y-42365D01*
X55352Y-42346D01*
X54958Y-42383D02*
X54958Y-42121D01*
X54958Y-42158D02*
X54940Y-42140D01*
X54902Y-42121D01*
X54846Y-42121D01*
X54808Y-42140D01*
X54790Y-42177D01*
X54790Y-42383D01*
X54790Y-42177D02*
X54771Y-42140D01*
X54733Y-42121D01*
X54677Y-42121D01*
X54640Y-42140D01*
X54621Y-42177D01*
X54621Y-42383D01*
X54433Y-42383D02*
X54433Y-42121D01*
X54433Y-42158D02*
X54415Y-42140D01*
X54377Y-42121D01*
X54321Y-42121D01*
X54283Y-42140D01*
X54265Y-42177D01*
X54265Y-42383D01*
X54265Y-42177D02*
X54246Y-42140D01*
X54208Y-42121D01*
X54152Y-42121D01*
X54115Y-42140D01*
X54096Y-42177D01*
X54096Y-42383D01*
G54D10*
X57756Y-42697D02*
X57738Y-42697D01*
X57719Y-42707D01*
X57709Y-42716D01*
X57700Y-42735D01*
X57691Y-42772D01*
X57691Y-42819D01*
X57700Y-42857D01*
X57709Y-42875D01*
X57719Y-42885D01*
X57738Y-42894D01*
X57756Y-42894D01*
X57775Y-42885D01*
X57784Y-42875D01*
X57794Y-42857D01*
X57803Y-42819D01*
X57803Y-42772D01*
X57794Y-42735D01*
X57784Y-42716D01*
X57775Y-42707D01*
X57756Y-42697D01*
X57606Y-42875D02*
X57597Y-42885D01*
X57606Y-42894D01*
X57616Y-42885D01*
X57606Y-42875D01*
X57606Y-42894D01*
X57419Y-42697D02*
X57513Y-42697D01*
X57522Y-42791D01*
X57513Y-42782D01*
X57494Y-42772D01*
X57447Y-42772D01*
X57428Y-42782D01*
X57419Y-42791D01*
X57410Y-42810D01*
X57410Y-42857D01*
X57419Y-42875D01*
X57428Y-42885D01*
X57447Y-42894D01*
X57494Y-42894D01*
X57513Y-42885D01*
X57522Y-42875D01*
X57325Y-42894D02*
X57325Y-42763D01*
X57325Y-42782D02*
X57316Y-42772D01*
X57297Y-42763D01*
X57269Y-42763D01*
X57250Y-42772D01*
X57241Y-42791D01*
X57241Y-42894D01*
X57241Y-42791D02*
X57231Y-42772D01*
X57213Y-42763D01*
X57185Y-42763D01*
X57166Y-42772D01*
X57156Y-42791D01*
X57156Y-42894D01*
X57063Y-42894D02*
X57063Y-42763D01*
X57063Y-42782D02*
X57053Y-42772D01*
X57035Y-42763D01*
X57006Y-42763D01*
X56988Y-42772D01*
X56978Y-42791D01*
X56978Y-42894D01*
X56978Y-42791D02*
X56969Y-42772D01*
X56950Y-42763D01*
X56922Y-42763D01*
X56903Y-42772D01*
X56894Y-42791D01*
X56894Y-42894D01*
X56510Y-42688D02*
X56678Y-42941D01*
X56257Y-42697D02*
X56238Y-42697D01*
X56219Y-42707D01*
X56210Y-42716D01*
X56200Y-42735D01*
X56191Y-42772D01*
X56191Y-42819D01*
X56200Y-42857D01*
X56210Y-42875D01*
X56219Y-42885D01*
X56238Y-42894D01*
X56257Y-42894D01*
X56275Y-42885D01*
X56285Y-42875D01*
X56294Y-42857D01*
X56303Y-42819D01*
X56303Y-42772D01*
X56294Y-42735D01*
X56285Y-42716D01*
X56275Y-42707D01*
X56257Y-42697D01*
X56107Y-42875D02*
X56097Y-42885D01*
X56107Y-42894D01*
X56116Y-42885D01*
X56107Y-42875D01*
X56107Y-42894D01*
X55910Y-42894D02*
X56022Y-42894D01*
X55966Y-42894D02*
X55966Y-42697D01*
X55985Y-42725D01*
X56003Y-42744D01*
X56022Y-42754D01*
X55825Y-42894D02*
X55825Y-42763D01*
X55825Y-42782D02*
X55816Y-42772D01*
X55797Y-42763D01*
X55769Y-42763D01*
X55750Y-42772D01*
X55741Y-42791D01*
X55741Y-42894D01*
X55741Y-42791D02*
X55732Y-42772D01*
X55713Y-42763D01*
X55685Y-42763D01*
X55666Y-42772D01*
X55657Y-42791D01*
X55657Y-42894D01*
X55563Y-42894D02*
X55563Y-42763D01*
X55563Y-42782D02*
X55553Y-42772D01*
X55535Y-42763D01*
X55507Y-42763D01*
X55488Y-42772D01*
X55479Y-42791D01*
X55479Y-42894D01*
X55479Y-42791D02*
X55469Y-42772D01*
X55450Y-42763D01*
X55422Y-42763D01*
X55404Y-42772D01*
X55394Y-42791D01*
X55394Y-42894D01*
X57855Y-32756D02*
X57836Y-32756D01*
X57817Y-32766D01*
X57808Y-32775D01*
X57799Y-32794D01*
X57789Y-32831D01*
X57789Y-32878D01*
X57799Y-32916D01*
X57808Y-32934D01*
X57817Y-32944D01*
X57836Y-32953D01*
X57855Y-32953D01*
X57874Y-32944D01*
X57883Y-32934D01*
X57892Y-32916D01*
X57902Y-32878D01*
X57902Y-32831D01*
X57892Y-32794D01*
X57883Y-32775D01*
X57874Y-32766D01*
X57855Y-32756D01*
X57705Y-32934D02*
X57695Y-32944D01*
X57705Y-32953D01*
X57714Y-32944D01*
X57705Y-32934D01*
X57705Y-32953D01*
X57517Y-32756D02*
X57611Y-32756D01*
X57620Y-32850D01*
X57611Y-32841D01*
X57592Y-32831D01*
X57545Y-32831D01*
X57527Y-32841D01*
X57517Y-32850D01*
X57508Y-32869D01*
X57508Y-32916D01*
X57517Y-32934D01*
X57527Y-32944D01*
X57545Y-32953D01*
X57592Y-32953D01*
X57611Y-32944D01*
X57620Y-32934D01*
X57424Y-32953D02*
X57424Y-32822D01*
X57424Y-32841D02*
X57414Y-32831D01*
X57395Y-32822D01*
X57367Y-32822D01*
X57349Y-32831D01*
X57339Y-32850D01*
X57339Y-32953D01*
X57339Y-32850D02*
X57330Y-32831D01*
X57311Y-32822D01*
X57283Y-32822D01*
X57264Y-32831D01*
X57255Y-32850D01*
X57255Y-32953D01*
X57161Y-32953D02*
X57161Y-32822D01*
X57161Y-32841D02*
X57152Y-32831D01*
X57133Y-32822D01*
X57105Y-32822D01*
X57086Y-32831D01*
X57077Y-32850D01*
X57077Y-32953D01*
X57077Y-32850D02*
X57067Y-32831D01*
X57049Y-32822D01*
X57020Y-32822D01*
X57002Y-32831D01*
X56992Y-32850D01*
X56992Y-32953D01*
X56608Y-32747D02*
X56777Y-33000D01*
X56355Y-32756D02*
X56336Y-32756D01*
X56317Y-32766D01*
X56308Y-32775D01*
X56299Y-32794D01*
X56289Y-32831D01*
X56289Y-32878D01*
X56299Y-32916D01*
X56308Y-32934D01*
X56317Y-32944D01*
X56336Y-32953D01*
X56355Y-32953D01*
X56374Y-32944D01*
X56383Y-32934D01*
X56392Y-32916D01*
X56402Y-32878D01*
X56402Y-32831D01*
X56392Y-32794D01*
X56383Y-32775D01*
X56374Y-32766D01*
X56355Y-32756D01*
X56205Y-32934D02*
X56196Y-32944D01*
X56205Y-32953D01*
X56214Y-32944D01*
X56205Y-32934D01*
X56205Y-32953D01*
X56008Y-32953D02*
X56121Y-32953D01*
X56064Y-32953D02*
X56064Y-32756D01*
X56083Y-32784D01*
X56102Y-32803D01*
X56121Y-32813D01*
X55924Y-32953D02*
X55924Y-32822D01*
X55924Y-32841D02*
X55914Y-32831D01*
X55896Y-32822D01*
X55868Y-32822D01*
X55849Y-32831D01*
X55839Y-32850D01*
X55839Y-32953D01*
X55839Y-32850D02*
X55830Y-32831D01*
X55811Y-32822D01*
X55783Y-32822D01*
X55764Y-32831D01*
X55755Y-32850D01*
X55755Y-32953D01*
X55661Y-32953D02*
X55661Y-32822D01*
X55661Y-32841D02*
X55652Y-32831D01*
X55633Y-32822D01*
X55605Y-32822D01*
X55586Y-32831D01*
X55577Y-32850D01*
X55577Y-32953D01*
X55577Y-32850D02*
X55568Y-32831D01*
X55549Y-32822D01*
X55521Y-32822D01*
X55502Y-32831D01*
X55493Y-32850D01*
X55493Y-32953D01*
G54D13*
X58787Y-32442D02*
X59012Y-32442D01*
X58900Y-32442D02*
X58900Y-32049D01*
X58937Y-32105D01*
X58975Y-32142D01*
X59012Y-32161D01*
X58619Y-32405D02*
X58600Y-32424D01*
X58619Y-32442D01*
X58637Y-32424D01*
X58619Y-32405D01*
X58619Y-32442D01*
X58356Y-32049D02*
X58319Y-32049D01*
X58281Y-32067D01*
X58263Y-32086D01*
X58244Y-32124D01*
X58225Y-32199D01*
X58225Y-32292D01*
X58244Y-32367D01*
X58263Y-32405D01*
X58281Y-32424D01*
X58319Y-32442D01*
X58356Y-32442D01*
X58394Y-32424D01*
X58413Y-32405D01*
X58431Y-32367D01*
X58450Y-32292D01*
X58450Y-32199D01*
X58431Y-32124D01*
X58413Y-32086D01*
X58394Y-32067D01*
X58356Y-32049D01*
X58056Y-32442D02*
X58056Y-32180D01*
X58056Y-32217D02*
X58038Y-32199D01*
X58000Y-32180D01*
X57944Y-32180D01*
X57906Y-32199D01*
X57888Y-32236D01*
X57888Y-32442D01*
X57888Y-32236D02*
X57869Y-32199D01*
X57831Y-32180D01*
X57775Y-32180D01*
X57738Y-32199D01*
X57719Y-32236D01*
X57719Y-32442D01*
X57531Y-32442D02*
X57531Y-32180D01*
X57531Y-32217D02*
X57513Y-32199D01*
X57475Y-32180D01*
X57419Y-32180D01*
X57381Y-32199D01*
X57363Y-32236D01*
X57363Y-32442D01*
X57363Y-32236D02*
X57344Y-32199D01*
X57306Y-32180D01*
X57250Y-32180D01*
X57213Y-32199D01*
X57194Y-32236D01*
X57194Y-32442D01*
X56425Y-32030D02*
X56763Y-32536D01*
X55994Y-32405D02*
X55975Y-32424D01*
X55994Y-32442D01*
X56013Y-32424D01*
X55994Y-32405D01*
X55994Y-32442D01*
X55600Y-32442D02*
X55825Y-32442D01*
X55713Y-32442D02*
X55713Y-32049D01*
X55750Y-32105D01*
X55788Y-32142D01*
X55825Y-32161D01*
X55244Y-32049D02*
X55432Y-32049D01*
X55450Y-32236D01*
X55432Y-32217D01*
X55394Y-32199D01*
X55300Y-32199D01*
X55263Y-32217D01*
X55244Y-32236D01*
X55225Y-32274D01*
X55225Y-32367D01*
X55244Y-32405D01*
X55263Y-32424D01*
X55300Y-32442D01*
X55394Y-32442D01*
X55432Y-32424D01*
X55450Y-32405D01*
X55057Y-32442D02*
X55057Y-32180D01*
X55057Y-32217D02*
X55038Y-32199D01*
X55000Y-32180D01*
X54944Y-32180D01*
X54907Y-32199D01*
X54888Y-32236D01*
X54888Y-32442D01*
X54888Y-32236D02*
X54869Y-32199D01*
X54832Y-32180D01*
X54775Y-32180D01*
X54738Y-32199D01*
X54719Y-32236D01*
X54719Y-32442D01*
X54532Y-32442D02*
X54532Y-32180D01*
X54532Y-32217D02*
X54513Y-32199D01*
X54476Y-32180D01*
X54419Y-32180D01*
X54382Y-32199D01*
X54363Y-32236D01*
X54363Y-32442D01*
X54363Y-32236D02*
X54344Y-32199D01*
X54307Y-32180D01*
X54251Y-32180D01*
X54213Y-32199D01*
X54194Y-32236D01*
X54194Y-32442D01*
G54D12*
X58539Y-31695D02*
X58820Y-31695D01*
X58680Y-31695D02*
X58680Y-31203D01*
X58727Y-31273D01*
X58773Y-31320D01*
X58820Y-31343D01*
X58328Y-31648D02*
X58305Y-31671D01*
X58328Y-31695D01*
X58352Y-31671D01*
X58328Y-31648D01*
X58328Y-31695D01*
X58117Y-31250D02*
X58094Y-31226D01*
X58047Y-31203D01*
X57930Y-31203D01*
X57883Y-31226D01*
X57859Y-31250D01*
X57836Y-31296D01*
X57836Y-31343D01*
X57859Y-31414D01*
X58141Y-31695D01*
X57836Y-31695D01*
X57391Y-31203D02*
X57625Y-31203D01*
X57649Y-31437D01*
X57625Y-31414D01*
X57578Y-31390D01*
X57461Y-31390D01*
X57414Y-31414D01*
X57391Y-31437D01*
X57367Y-31484D01*
X57367Y-31601D01*
X57391Y-31648D01*
X57414Y-31671D01*
X57461Y-31695D01*
X57578Y-31695D01*
X57625Y-31671D01*
X57649Y-31648D01*
X56805Y-31179D02*
X57227Y-31812D01*
X56547Y-31203D02*
X56500Y-31203D01*
X56453Y-31226D01*
X56430Y-31250D01*
X56407Y-31296D01*
X56383Y-31390D01*
X56383Y-31507D01*
X56407Y-31601D01*
X56430Y-31648D01*
X56453Y-31671D01*
X56500Y-31695D01*
X56547Y-31695D01*
X56594Y-31671D01*
X56617Y-31648D01*
X56641Y-31601D01*
X56664Y-31507D01*
X56664Y-31390D01*
X56641Y-31296D01*
X56617Y-31250D01*
X56594Y-31226D01*
X56547Y-31203D01*
X56172Y-31648D02*
X56149Y-31671D01*
X56172Y-31695D01*
X56196Y-31671D01*
X56172Y-31648D01*
X56172Y-31695D01*
X55961Y-31250D02*
X55938Y-31226D01*
X55891Y-31203D01*
X55774Y-31203D01*
X55727Y-31226D01*
X55703Y-31250D01*
X55680Y-31296D01*
X55680Y-31343D01*
X55703Y-31414D01*
X55985Y-31695D01*
X55680Y-31695D01*
X55469Y-31695D02*
X55469Y-31367D01*
X55469Y-31414D02*
X55446Y-31390D01*
X55399Y-31367D01*
X55329Y-31367D01*
X55282Y-31390D01*
X55258Y-31437D01*
X55258Y-31695D01*
X55258Y-31437D02*
X55235Y-31390D01*
X55188Y-31367D01*
X55118Y-31367D01*
X55071Y-31390D01*
X55047Y-31437D01*
X55047Y-31695D01*
X54813Y-31695D02*
X54813Y-31367D01*
X54813Y-31414D02*
X54790Y-31390D01*
X54743Y-31367D01*
X54672Y-31367D01*
X54625Y-31390D01*
X54602Y-31437D01*
X54602Y-31695D01*
X54602Y-31437D02*
X54579Y-31390D01*
X54532Y-31367D01*
X54461Y-31367D01*
X54415Y-31390D01*
X54391Y-31437D01*
X54391Y-31695D01*
G54D11*
X58830Y-29836D02*
X58745Y-29865D01*
X58605Y-29865D01*
X58548Y-29836D01*
X58520Y-29808D01*
X58492Y-29752D01*
X58492Y-29696D01*
X58520Y-29640D01*
X58548Y-29611D01*
X58605Y-29583D01*
X58717Y-29555D01*
X58773Y-29527D01*
X58802Y-29499D01*
X58830Y-29443D01*
X58830Y-29386D01*
X58802Y-29330D01*
X58773Y-29302D01*
X58717Y-29274D01*
X58577Y-29274D01*
X58492Y-29302D01*
X58239Y-29865D02*
X58239Y-29471D01*
X58239Y-29274D02*
X58267Y-29302D01*
X58239Y-29330D01*
X58211Y-29302D01*
X58239Y-29274D01*
X58239Y-29330D01*
X58014Y-29471D02*
X57705Y-29471D01*
X58014Y-29865D01*
X57705Y-29865D01*
X57255Y-29836D02*
X57311Y-29865D01*
X57424Y-29865D01*
X57480Y-29836D01*
X57508Y-29780D01*
X57508Y-29555D01*
X57480Y-29499D01*
X57424Y-29471D01*
X57311Y-29471D01*
X57255Y-29499D01*
X57227Y-29555D01*
X57227Y-29611D01*
X57508Y-29668D01*
X56552Y-29246D02*
X57058Y-30005D01*
X56439Y-29274D02*
X56102Y-29274D01*
X56271Y-29865D02*
X56271Y-29274D01*
X55905Y-29865D02*
X55905Y-29274D01*
X55652Y-29865D02*
X55652Y-29555D01*
X55680Y-29499D01*
X55736Y-29471D01*
X55821Y-29471D01*
X55877Y-29499D01*
X55905Y-29527D01*
X55371Y-29865D02*
X55371Y-29471D01*
X55371Y-29274D02*
X55399Y-29302D01*
X55371Y-29330D01*
X55343Y-29302D01*
X55371Y-29274D01*
X55371Y-29330D01*
X54836Y-29836D02*
X54893Y-29865D01*
X55005Y-29865D01*
X55061Y-29836D01*
X55089Y-29808D01*
X55118Y-29752D01*
X55118Y-29583D01*
X55089Y-29527D01*
X55061Y-29499D01*
X55005Y-29471D01*
X54893Y-29471D01*
X54836Y-29499D01*
X54583Y-29865D02*
X54583Y-29274D01*
X54527Y-29640D02*
X54358Y-29865D01*
X54358Y-29471D02*
X54583Y-29696D01*
X58647Y-30849D02*
X58984Y-30849D01*
X58816Y-30849D02*
X58816Y-30258D01*
X58872Y-30343D01*
X58928Y-30399D01*
X58984Y-30427D01*
X58394Y-30793D02*
X58366Y-30821D01*
X58394Y-30849D01*
X58422Y-30821D01*
X58394Y-30793D01*
X58394Y-30849D01*
X57831Y-30258D02*
X58113Y-30258D01*
X58141Y-30539D01*
X58113Y-30511D01*
X58056Y-30483D01*
X57916Y-30483D01*
X57859Y-30511D01*
X57831Y-30539D01*
X57803Y-30596D01*
X57803Y-30736D01*
X57831Y-30793D01*
X57859Y-30821D01*
X57916Y-30849D01*
X58056Y-30849D01*
X58113Y-30821D01*
X58141Y-30793D01*
X57550Y-30849D02*
X57550Y-30455D01*
X57550Y-30511D02*
X57522Y-30483D01*
X57466Y-30455D01*
X57381Y-30455D01*
X57325Y-30483D01*
X57297Y-30539D01*
X57297Y-30849D01*
X57297Y-30539D02*
X57269Y-30483D01*
X57213Y-30455D01*
X57128Y-30455D01*
X57072Y-30483D01*
X57044Y-30539D01*
X57044Y-30849D01*
X56341Y-30230D02*
X56847Y-30989D01*
X56032Y-30258D02*
X55975Y-30258D01*
X55919Y-30286D01*
X55891Y-30314D01*
X55863Y-30371D01*
X55835Y-30483D01*
X55835Y-30624D01*
X55863Y-30736D01*
X55891Y-30793D01*
X55919Y-30821D01*
X55975Y-30849D01*
X56032Y-30849D01*
X56088Y-30821D01*
X56116Y-30793D01*
X56144Y-30736D01*
X56172Y-30624D01*
X56172Y-30483D01*
X56144Y-30371D01*
X56116Y-30314D01*
X56088Y-30286D01*
X56032Y-30258D01*
X55582Y-30793D02*
X55553Y-30821D01*
X55582Y-30849D01*
X55610Y-30821D01*
X55582Y-30793D01*
X55582Y-30849D01*
X55357Y-30258D02*
X54991Y-30258D01*
X55188Y-30483D01*
X55104Y-30483D01*
X55047Y-30511D01*
X55019Y-30539D01*
X54991Y-30596D01*
X54991Y-30736D01*
X55019Y-30793D01*
X55047Y-30821D01*
X55104Y-30849D01*
X55272Y-30849D01*
X55329Y-30821D01*
X55357Y-30793D01*
X54738Y-30849D02*
X54738Y-30455D01*
X54738Y-30511D02*
X54710Y-30483D01*
X54654Y-30455D01*
X54569Y-30455D01*
X54513Y-30483D01*
X54485Y-30539D01*
X54485Y-30849D01*
X54485Y-30539D02*
X54457Y-30483D01*
X54401Y-30455D01*
X54316Y-30455D01*
X54260Y-30483D01*
X54232Y-30539D01*
X54232Y-30849D01*
X44611Y-33517D02*
X44611Y-33900D01*
X44589Y-33945D01*
X44566Y-33967D01*
X44521Y-33990D01*
X44431Y-33990D01*
X44386Y-33967D01*
X44364Y-33945D01*
X44341Y-33900D01*
X44341Y-33517D01*
X43869Y-33990D02*
X44139Y-33990D01*
X44004Y-33990D02*
X44004Y-33517D01*
X44049Y-33585D01*
X44094Y-33630D01*
X44139Y-33652D01*
X43487Y-33416D02*
X43127Y-33416D01*
X43307Y-33596D02*
X43307Y-33236D01*
X40742Y-32966D02*
X41079Y-32966D01*
X41147Y-32944D01*
X41192Y-32899D01*
X41214Y-32831D01*
X41214Y-32786D01*
X41079Y-33169D02*
X41079Y-33394D01*
X41214Y-33124D02*
X40742Y-33281D01*
X41214Y-33439D01*
X41214Y-33596D02*
X40742Y-33596D01*
X41214Y-33866D01*
X40742Y-33866D01*
X40787Y-34429D02*
X40764Y-34451D01*
X40742Y-34496D01*
X40742Y-34609D01*
X40764Y-34654D01*
X40787Y-34676D01*
X40832Y-34699D01*
X40877Y-34699D01*
X40944Y-34676D01*
X41214Y-34406D01*
X41214Y-34699D01*
X40742Y-34991D02*
X40742Y-35036D01*
X40764Y-35081D01*
X40787Y-35104D01*
X40832Y-35126D01*
X40922Y-35149D01*
X41034Y-35149D01*
X41124Y-35126D01*
X41169Y-35104D01*
X41192Y-35081D01*
X41214Y-35036D01*
X41214Y-34991D01*
X41192Y-34946D01*
X41169Y-34924D01*
X41124Y-34901D01*
X41034Y-34879D01*
X40922Y-34879D01*
X40832Y-34901D01*
X40787Y-34924D01*
X40764Y-34946D01*
X40742Y-34991D01*
X41214Y-35598D02*
X41214Y-35329D01*
X41214Y-35464D02*
X40742Y-35464D01*
X40809Y-35419D01*
X40854Y-35374D01*
X40877Y-35329D01*
X40742Y-36026D02*
X40742Y-35801D01*
X40967Y-35778D01*
X40944Y-35801D01*
X40922Y-35846D01*
X40922Y-35958D01*
X40944Y-36003D01*
X40967Y-36026D01*
X41012Y-36048D01*
X41124Y-36048D01*
X41169Y-36026D01*
X41192Y-36003D01*
X41214Y-35958D01*
X41214Y-35846D01*
X41192Y-35801D01*
X41169Y-35778D01*
X44611Y-33517D02*
X44611Y-33900D01*
X44589Y-33945D01*
X44566Y-33967D01*
X44521Y-33990D01*
X44431Y-33990D01*
X44386Y-33967D01*
X44364Y-33945D01*
X44341Y-33900D01*
X44341Y-33517D01*
X43869Y-33990D02*
X44139Y-33990D01*
X44004Y-33990D02*
X44004Y-33517D01*
X44049Y-33585D01*
X44094Y-33630D01*
X44139Y-33652D01*
X43487Y-33416D02*
X43127Y-33416D01*
X43307Y-33596D02*
X43307Y-33236D01*
X40742Y-32966D02*
X41079Y-32966D01*
X41147Y-32944D01*
X41192Y-32899D01*
X41214Y-32831D01*
X41214Y-32786D01*
X41079Y-33169D02*
X41079Y-33394D01*
X41214Y-33124D02*
X40742Y-33281D01*
X41214Y-33439D01*
X41214Y-33596D02*
X40742Y-33596D01*
X41214Y-33866D01*
X40742Y-33866D01*
X40787Y-34429D02*
X40764Y-34451D01*
X40742Y-34496D01*
X40742Y-34609D01*
X40764Y-34654D01*
X40787Y-34676D01*
X40832Y-34699D01*
X40877Y-34699D01*
X40944Y-34676D01*
X41214Y-34406D01*
X41214Y-34699D01*
X40742Y-34991D02*
X40742Y-35036D01*
X40764Y-35081D01*
X40787Y-35104D01*
X40832Y-35126D01*
X40922Y-35149D01*
X41034Y-35149D01*
X41124Y-35126D01*
X41169Y-35104D01*
X41192Y-35081D01*
X41214Y-35036D01*
X41214Y-34991D01*
X41192Y-34946D01*
X41169Y-34924D01*
X41124Y-34901D01*
X41034Y-34879D01*
X40922Y-34879D01*
X40832Y-34901D01*
X40787Y-34924D01*
X40764Y-34946D01*
X40742Y-34991D01*
X41214Y-35598D02*
X41214Y-35329D01*
X41214Y-35464D02*
X40742Y-35464D01*
X40809Y-35419D01*
X40854Y-35374D01*
X40877Y-35329D01*
X40742Y-36026D02*
X40742Y-35801D01*
X40967Y-35778D01*
X40944Y-35801D01*
X40922Y-35846D01*
X40922Y-35958D01*
X40944Y-36003D01*
X40967Y-36026D01*
X41012Y-36048D01*
X41124Y-36048D01*
X41169Y-36026D01*
X41192Y-36003D01*
X41214Y-35958D01*
X41214Y-35846D01*
X41192Y-35801D01*
X41169Y-35778D01*
X44611Y-43439D02*
X44611Y-43821D01*
X44589Y-43866D01*
X44566Y-43889D01*
X44521Y-43911D01*
X44431Y-43911D01*
X44386Y-43889D01*
X44364Y-43866D01*
X44341Y-43821D01*
X44341Y-43439D01*
X43869Y-43911D02*
X44139Y-43911D01*
X44004Y-43911D02*
X44004Y-43439D01*
X44049Y-43506D01*
X44094Y-43551D01*
X44139Y-43574D01*
X43487Y-43338D02*
X43127Y-43338D01*
X43307Y-43517D02*
X43307Y-43158D01*
X40742Y-42888D02*
X41079Y-42888D01*
X41147Y-42865D01*
X41192Y-42820D01*
X41214Y-42753D01*
X41214Y-42708D01*
X41079Y-43090D02*
X41079Y-43315D01*
X41214Y-43045D02*
X40742Y-43203D01*
X41214Y-43360D01*
X41214Y-43517D02*
X40742Y-43517D01*
X41214Y-43787D01*
X40742Y-43787D01*
X40787Y-44350D02*
X40764Y-44372D01*
X40742Y-44417D01*
X40742Y-44530D01*
X40764Y-44575D01*
X40787Y-44597D01*
X40832Y-44620D01*
X40877Y-44620D01*
X40944Y-44597D01*
X41214Y-44327D01*
X41214Y-44620D01*
X40742Y-44912D02*
X40742Y-44957D01*
X40764Y-45002D01*
X40787Y-45025D01*
X40832Y-45047D01*
X40922Y-45070D01*
X41034Y-45070D01*
X41124Y-45047D01*
X41169Y-45025D01*
X41192Y-45002D01*
X41214Y-44957D01*
X41214Y-44912D01*
X41192Y-44867D01*
X41169Y-44845D01*
X41124Y-44822D01*
X41034Y-44800D01*
X40922Y-44800D01*
X40832Y-44822D01*
X40787Y-44845D01*
X40764Y-44867D01*
X40742Y-44912D01*
X41214Y-45520D02*
X41214Y-45250D01*
X41214Y-45385D02*
X40742Y-45385D01*
X40809Y-45340D01*
X40854Y-45295D01*
X40877Y-45250D01*
X40742Y-45947D02*
X40742Y-45722D01*
X40967Y-45700D01*
X40944Y-45722D01*
X40922Y-45767D01*
X40922Y-45880D01*
X40944Y-45925D01*
X40967Y-45947D01*
X41012Y-45970D01*
X41124Y-45970D01*
X41169Y-45947D01*
X41192Y-45925D01*
X41214Y-45880D01*
X41214Y-45767D01*
X41192Y-45722D01*
X41169Y-45700D01*
G54D14*
X45344Y-32415D03*
X45029Y-32415D03*
X44714Y-32415D03*
X44399Y-32415D03*
X44084Y-32415D03*
X43769Y-32415D03*
X43454Y-32415D03*
X43139Y-32415D03*
X43141Y-36181D03*
X45351Y-36181D03*
X45031Y-36181D03*
X44711Y-36181D03*
X44401Y-36181D03*
X44081Y-36181D03*
X43771Y-36181D03*
X43451Y-36181D03*
G54D15*
X42351Y-33199D03*
X42351Y-33513D03*
X42351Y-33829D03*
X42351Y-34143D03*
X42351Y-34459D03*
X42351Y-34773D03*
X42351Y-35089D03*
X42351Y-35403D03*
X46131Y-33201D03*
X46131Y-33511D03*
X46131Y-33831D03*
X46131Y-34141D03*
X46131Y-34451D03*
X46131Y-34771D03*
X46131Y-35091D03*
X46131Y-35411D03*
G54D16*
X47893Y-35236D03*
X48268Y-34370D03*
X47518Y-34370D03*
X49685Y-35236D03*
X50060Y-34370D03*
X49310Y-34370D03*
X51496Y-35236D03*
X51871Y-34370D03*
X51121Y-34370D03*
G54D17*
X51796Y-33799D03*
X51196Y-33799D03*
X49985Y-33799D03*
X49385Y-33799D03*
X48193Y-33799D03*
X47593Y-33799D03*
G54D18*
X56094Y-36795D03*
G54D19*
X56094Y-35795D03*
X57094Y-36795D03*
X57094Y-35795D03*
X58094Y-36795D03*
X58094Y-35795D03*
G54D18*
X40417Y-30755D03*
G54D19*
X40417Y-29755D03*
X41417Y-30755D03*
X41417Y-29755D03*
X42417Y-30755D03*
X42417Y-29755D03*
X43417Y-30755D03*
X43417Y-29755D03*
X44417Y-30755D03*
X44417Y-29755D03*
X45417Y-30755D03*
X45417Y-29755D03*
X46417Y-30755D03*
X46417Y-29755D03*
X47417Y-30755D03*
X47417Y-29755D03*
X48417Y-30755D03*
X48417Y-29755D03*
X49417Y-30755D03*
X49417Y-29755D03*
X50417Y-30755D03*
X50417Y-29755D03*
X51417Y-30755D03*
X51417Y-29755D03*
X52417Y-30755D03*
X52417Y-29755D03*
G54D20*
X46594Y-36295D03*
G54D21*
X47594Y-36295D03*
X48594Y-36295D03*
X49594Y-36295D03*
X49594Y-32295D03*
X48594Y-32295D03*
X50594Y-36295D03*
X51594Y-32295D03*
X51594Y-36295D03*
X50594Y-32295D03*
X47594Y-32295D03*
X46594Y-32295D03*
G54D22*
X41889Y-32170D03*
X41889Y-31570D03*
X41299Y-32170D03*
X41299Y-31570D03*
X52460Y-35654D03*
X52460Y-35054D03*
X53051Y-35654D03*
X53051Y-35054D03*
G54D23*
X48389Y-37814D03*
G54D24*
X49389Y-37814D03*
X50389Y-37814D03*
X51389Y-37814D03*
X52389Y-37814D03*
X53389Y-37814D03*
X54389Y-37814D03*
X55389Y-37814D03*
G54D23*
X40397Y-37814D03*
G54D24*
X41397Y-37814D03*
X42397Y-37814D03*
X43397Y-37814D03*
X44397Y-37814D03*
X45397Y-37814D03*
X46397Y-37814D03*
X47397Y-37814D03*
G54D14*
X45344Y-32415D03*
X45029Y-32415D03*
X44714Y-32415D03*
X44399Y-32415D03*
X44084Y-32415D03*
X43769Y-32415D03*
X43454Y-32415D03*
X43139Y-32415D03*
X43141Y-36181D03*
X45351Y-36181D03*
X45031Y-36181D03*
X44711Y-36181D03*
X44401Y-36181D03*
X44081Y-36181D03*
X43771Y-36181D03*
X43451Y-36181D03*
G54D15*
X42351Y-33199D03*
X42351Y-33513D03*
X42351Y-33829D03*
X42351Y-34143D03*
X42351Y-34459D03*
X42351Y-34773D03*
X42351Y-35089D03*
X42351Y-35403D03*
X46131Y-33201D03*
X46131Y-33511D03*
X46131Y-33831D03*
X46131Y-34141D03*
X46131Y-34451D03*
X46131Y-34771D03*
X46131Y-35091D03*
X46131Y-35411D03*
G54D16*
X47893Y-35236D03*
X48268Y-34370D03*
X47518Y-34370D03*
X49685Y-35236D03*
X50060Y-34370D03*
X49310Y-34370D03*
X51496Y-35236D03*
X51871Y-34370D03*
X51121Y-34370D03*
G54D17*
X51796Y-33799D03*
X51196Y-33799D03*
X49985Y-33799D03*
X49385Y-33799D03*
X48193Y-33799D03*
X47593Y-33799D03*
G54D18*
X56094Y-36795D03*
G54D19*
X56094Y-35795D03*
X57094Y-36795D03*
X57094Y-35795D03*
X58094Y-36795D03*
X58094Y-35795D03*
G54D18*
X40417Y-30755D03*
G54D19*
X40417Y-29755D03*
X41417Y-30755D03*
X41417Y-29755D03*
X42417Y-30755D03*
X42417Y-29755D03*
X43417Y-30755D03*
X43417Y-29755D03*
X44417Y-30755D03*
X44417Y-29755D03*
X45417Y-30755D03*
X45417Y-29755D03*
X46417Y-30755D03*
X46417Y-29755D03*
X47417Y-30755D03*
X47417Y-29755D03*
X48417Y-30755D03*
X48417Y-29755D03*
X49417Y-30755D03*
X49417Y-29755D03*
X50417Y-30755D03*
X50417Y-29755D03*
X51417Y-30755D03*
X51417Y-29755D03*
X52417Y-30755D03*
X52417Y-29755D03*
G54D20*
X46594Y-36295D03*
G54D21*
X47594Y-36295D03*
X48594Y-36295D03*
X49594Y-36295D03*
X49594Y-32295D03*
X48594Y-32295D03*
X50594Y-36295D03*
X51594Y-32295D03*
X51594Y-36295D03*
X50594Y-32295D03*
X47594Y-32295D03*
X46594Y-32295D03*
G54D22*
X41889Y-32170D03*
X41889Y-31570D03*
X41299Y-32170D03*
X41299Y-31570D03*
X52460Y-35654D03*
X52460Y-35054D03*
X53051Y-35654D03*
X53051Y-35054D03*
G54D23*
X48389Y-37814D03*
G54D24*
X49389Y-37814D03*
X50389Y-37814D03*
X51389Y-37814D03*
X52389Y-37814D03*
X53389Y-37814D03*
X54389Y-37814D03*
X55389Y-37814D03*
G54D23*
X40397Y-37814D03*
G54D24*
X41397Y-37814D03*
X42397Y-37814D03*
X43397Y-37814D03*
X44397Y-37814D03*
X45397Y-37814D03*
X46397Y-37814D03*
X47397Y-37814D03*
G54D14*
X45344Y-42336D03*
X45029Y-42336D03*
X44714Y-42336D03*
X44399Y-42336D03*
X44084Y-42336D03*
X43769Y-42336D03*
X43454Y-42336D03*
X43139Y-42336D03*
X43141Y-46102D03*
X45351Y-46102D03*
X45031Y-46102D03*
X44711Y-46102D03*
X44401Y-46102D03*
X44081Y-46102D03*
X43771Y-46102D03*
X43451Y-46102D03*
G54D15*
X42351Y-43120D03*
X42351Y-43434D03*
X42351Y-43750D03*
X42351Y-44064D03*
X42351Y-44380D03*
X42351Y-44694D03*
X42351Y-45010D03*
X42351Y-45324D03*
X46131Y-43122D03*
X46131Y-43432D03*
X46131Y-43752D03*
X46131Y-44062D03*
X46131Y-44372D03*
X46131Y-44692D03*
X46131Y-45012D03*
X46131Y-45332D03*
G54D16*
X47893Y-45157D03*
X48268Y-44291D03*
X47518Y-44291D03*
X49685Y-45157D03*
X50060Y-44291D03*
X49310Y-44291D03*
X51496Y-45157D03*
X51871Y-44291D03*
X51121Y-44291D03*
G54D17*
X51796Y-43720D03*
X51196Y-43720D03*
X49985Y-43720D03*
X49385Y-43720D03*
X48193Y-43720D03*
X47593Y-43720D03*
G54D18*
X56094Y-46716D03*
G54D19*
X56094Y-45716D03*
X57094Y-46716D03*
X57094Y-45716D03*
X58094Y-46716D03*
X58094Y-45716D03*
G54D18*
X40417Y-40677D03*
G54D19*
X40417Y-39677D03*
X41417Y-40677D03*
X41417Y-39677D03*
X42417Y-40677D03*
X42417Y-39677D03*
X43417Y-40677D03*
X43417Y-39677D03*
X44417Y-40677D03*
X44417Y-39677D03*
X45417Y-40677D03*
X45417Y-39677D03*
X46417Y-40677D03*
X46417Y-39677D03*
X47417Y-40677D03*
X47417Y-39677D03*
X48417Y-40677D03*
X48417Y-39677D03*
X49417Y-40677D03*
X49417Y-39677D03*
X50417Y-40677D03*
X50417Y-39677D03*
X51417Y-40677D03*
X51417Y-39677D03*
X52417Y-40677D03*
X52417Y-39677D03*
G54D20*
X46594Y-46216D03*
G54D21*
X47594Y-46216D03*
X48594Y-46216D03*
X49594Y-46216D03*
X49594Y-42216D03*
X48594Y-42216D03*
X50594Y-46216D03*
X51594Y-42216D03*
X51594Y-46216D03*
X50594Y-42216D03*
X47594Y-42216D03*
X46594Y-42216D03*
G54D22*
X41889Y-42091D03*
X41889Y-41491D03*
X41299Y-42091D03*
X41299Y-41491D03*
X52460Y-45575D03*
X52460Y-44975D03*
X53051Y-45575D03*
X53051Y-44975D03*
G54D23*
X48389Y-47736D03*
G54D24*
X49389Y-47736D03*
X50389Y-47736D03*
X51389Y-47736D03*
X52389Y-47736D03*
X53389Y-47736D03*
X54389Y-47736D03*
X55389Y-47736D03*
G54D23*
X40397Y-47736D03*
G54D24*
X41397Y-47736D03*
X42397Y-47736D03*
X43397Y-47736D03*
X44397Y-47736D03*
X45397Y-47736D03*
X46397Y-47736D03*
X47397Y-47736D03*
G54D25*
X44074Y-33031D03*
X45078Y-35531D03*
X44074Y-33031D03*
X45078Y-35531D03*
X44074Y-42952D03*
X45078Y-45452D03*
X44488Y-33051D03*
X44448Y-34389D03*
X43976Y-34901D03*
X44133Y-36791D03*
X44488Y-33051D03*
X44448Y-34389D03*
X43976Y-34901D03*
X44133Y-36791D03*
X44488Y-42972D03*
X44448Y-44311D03*
X43976Y-44822D03*
X44133Y-46712D03*
X45354Y-33011D03*
X45354Y-33011D03*
X45354Y-42933D03*
X46732Y-34153D03*
X46732Y-34153D03*
X46732Y-44074D03*
X45511Y-34389D03*
X45511Y-34389D03*
X45511Y-44311D03*
X46732Y-34783D03*
X46732Y-34783D03*
X46732Y-44704D03*
X45964Y-36397D03*
X45511Y-34940D03*
X45964Y-36397D03*
X45511Y-34940D03*
X45964Y-46318D03*
X45511Y-44862D03*
X46771Y-35334D03*
X46771Y-35334D03*
X46771Y-45255D03*
X56633Y-36279D03*
X55511Y-36633D03*
X45570Y-36791D03*
X56633Y-36279D03*
X55511Y-36633D03*
X45570Y-36791D03*
X56633Y-46200D03*
X55511Y-46555D03*
X45570Y-46712D03*
X49094Y-33070D03*
X49094Y-33070D03*
X49094Y-42992D03*
X43385Y-35531D03*
X41417Y-37145D03*
X43385Y-35531D03*
X41417Y-37145D03*
X43385Y-45452D03*
X41417Y-47066D03*
X43464Y-36830D03*
X43464Y-36830D03*
X43464Y-46751D03*
X43149Y-33031D03*
X44744Y-31220D03*
X46909Y-31358D03*
X43149Y-33031D03*
X44744Y-31220D03*
X46909Y-31358D03*
X43149Y-42952D03*
X44744Y-41141D03*
X46909Y-41279D03*
X45019Y-31515D03*
X47903Y-31515D03*
X42795Y-32559D03*
X45019Y-31515D03*
X47903Y-31515D03*
X42795Y-32559D03*
X45019Y-41437D03*
X47903Y-41437D03*
X42795Y-42480D03*
X50925Y-33208D03*
X49881Y-37559D03*
X42696Y-32165D03*
X44724Y-31791D03*
X50925Y-33208D03*
X49881Y-37559D03*
X42696Y-32165D03*
X44724Y-31791D03*
X50925Y-43129D03*
X49881Y-47480D03*
X42696Y-42086D03*
X44724Y-41712D03*
X45492Y-35531D03*
X45492Y-35531D03*
X45492Y-45452D03*
X44468Y-35531D03*
X44468Y-35531D03*
X44468Y-45452D03*
X48622Y-32933D03*
X48622Y-33877D03*
X48622Y-32933D03*
X48622Y-33877D03*
X48622Y-42854D03*
X48622Y-43799D03*
X48681Y-34724D03*
X48681Y-34724D03*
X48681Y-44645D03*
X50295Y-35452D03*
X51062Y-35452D03*
X50295Y-35452D03*
X51062Y-35452D03*
X50295Y-45374D03*
X51062Y-45374D03*
X50728Y-35669D03*
X50728Y-35669D03*
X50728Y-45590D03*
X47893Y-34232D03*
X47893Y-34232D03*
X47893Y-44153D03*
X48484Y-35068D03*
X50472Y-34350D03*
X48484Y-35068D03*
X50472Y-34350D03*
X48484Y-44990D03*
X50472Y-44271D03*
X50374Y-33877D03*
X50354Y-32874D03*
X50374Y-33877D03*
X50354Y-32874D03*
X50374Y-43799D03*
X50354Y-42795D03*
X44685Y-36811D03*
X44685Y-36811D03*
X44685Y-46732D03*
X45885Y-38228D03*
X44901Y-37913D03*
X44015Y-37165D03*
X45885Y-38228D03*
X44901Y-37913D03*
X44015Y-37165D03*
X45885Y-48149D03*
X44901Y-47834D03*
X44015Y-47086D03*
X48484Y-31338D03*
X45925Y-31200D03*
X43582Y-33070D03*
X48484Y-31338D03*
X45925Y-31200D03*
X43582Y-33070D03*
X48484Y-41259D03*
X45925Y-41122D03*
X43582Y-42992D03*
X55511Y-37027D03*
X42952Y-34251D03*
X55511Y-37027D03*
X42952Y-34251D03*
X55511Y-46948D03*
X42952Y-44173D03*
X41732Y-34448D03*
X41732Y-34448D03*
X41732Y-44370D03*
X42992Y-34822D03*
X42834Y-37007D03*
X42992Y-34822D03*
X42834Y-37007D03*
X42992Y-44744D03*
X42834Y-46929D03*
G54D26*
X41299Y-32170D02*
X41205Y-32170D01*
X40417Y-31155D02*
X40417Y-30755D01*
X40826Y-31564D02*
X40417Y-31155D01*
X40826Y-31791D02*
X40826Y-31564D01*
X41205Y-32170D02*
X40826Y-31791D01*
X41889Y-32170D02*
X41299Y-32170D01*
X41889Y-32170D02*
X42022Y-32170D01*
X44084Y-31860D02*
X44084Y-32415D01*
X44055Y-31830D02*
X44084Y-31860D01*
X42362Y-31830D02*
X44055Y-31830D01*
X42022Y-32170D02*
X42362Y-31830D01*
X51496Y-35236D02*
X51496Y-35137D01*
X48921Y-31259D02*
X48417Y-30755D01*
X51653Y-31259D02*
X48921Y-31259D01*
X52362Y-31968D02*
X51653Y-31259D01*
X52362Y-34527D02*
X52362Y-31968D01*
X52125Y-34763D02*
X52362Y-34527D01*
X51870Y-34763D02*
X52125Y-34763D01*
X51496Y-35137D02*
X51870Y-34763D01*
X45031Y-36181D02*
X45031Y-35578D01*
X44084Y-33021D02*
X44084Y-32415D01*
X44074Y-33031D02*
X44084Y-33021D01*
X45031Y-35578D02*
X45078Y-35531D01*
X47893Y-35236D02*
X47893Y-35275D01*
X49419Y-35501D02*
X49685Y-35236D01*
X48120Y-35501D02*
X49419Y-35501D01*
X47893Y-35275D02*
X48120Y-35501D01*
X51496Y-35236D02*
X51368Y-35236D01*
X49793Y-35127D02*
X49685Y-35236D01*
X51259Y-35127D02*
X49793Y-35127D01*
X51368Y-35236D02*
X51259Y-35127D01*
X52460Y-35654D02*
X52032Y-35654D01*
X52032Y-35654D02*
X51496Y-35236D01*
X51485Y-35246D02*
X51496Y-35236D01*
X56094Y-35795D02*
X56051Y-35795D01*
X56051Y-35795D02*
X55910Y-35654D01*
X55910Y-35654D02*
X52460Y-35654D01*
X44084Y-32078D02*
X44084Y-32415D01*
X41299Y-32170D02*
X41205Y-32170D01*
X40417Y-31155D02*
X40417Y-30755D01*
X40826Y-31564D02*
X40417Y-31155D01*
X40826Y-31791D02*
X40826Y-31564D01*
X41205Y-32170D02*
X40826Y-31791D01*
X41889Y-32170D02*
X41299Y-32170D01*
X41889Y-32170D02*
X42022Y-32170D01*
X44084Y-31860D02*
X44084Y-32415D01*
X44055Y-31830D02*
X44084Y-31860D01*
X42362Y-31830D02*
X44055Y-31830D01*
X42022Y-32170D02*
X42362Y-31830D01*
X51496Y-35236D02*
X51496Y-35137D01*
X48921Y-31259D02*
X48417Y-30755D01*
X51653Y-31259D02*
X48921Y-31259D01*
X52362Y-31968D02*
X51653Y-31259D01*
X52362Y-34527D02*
X52362Y-31968D01*
X52125Y-34763D02*
X52362Y-34527D01*
X51870Y-34763D02*
X52125Y-34763D01*
X51496Y-35137D02*
X51870Y-34763D01*
X45031Y-36181D02*
X45031Y-35578D01*
X44084Y-33021D02*
X44084Y-32415D01*
X44074Y-33031D02*
X44084Y-33021D01*
X45031Y-35578D02*
X45078Y-35531D01*
X47893Y-35236D02*
X47893Y-35275D01*
X49419Y-35501D02*
X49685Y-35236D01*
X48120Y-35501D02*
X49419Y-35501D01*
X47893Y-35275D02*
X48120Y-35501D01*
X51496Y-35236D02*
X51368Y-35236D01*
X49793Y-35127D02*
X49685Y-35236D01*
X51259Y-35127D02*
X49793Y-35127D01*
X51368Y-35236D02*
X51259Y-35127D01*
X52460Y-35654D02*
X52032Y-35654D01*
X52032Y-35654D02*
X51496Y-35236D01*
X51485Y-35246D02*
X51496Y-35236D01*
X56094Y-35795D02*
X56051Y-35795D01*
X56051Y-35795D02*
X55910Y-35654D01*
X55910Y-35654D02*
X52460Y-35654D01*
X44084Y-32078D02*
X44084Y-32415D01*
X41299Y-42091D02*
X41205Y-42091D01*
X40417Y-41076D02*
X40417Y-40677D01*
X40826Y-41486D02*
X40417Y-41076D01*
X40826Y-41712D02*
X40826Y-41486D01*
X41205Y-42091D02*
X40826Y-41712D01*
X41889Y-42091D02*
X41299Y-42091D01*
X41889Y-42091D02*
X42022Y-42091D01*
X44084Y-41781D02*
X44084Y-42336D01*
X44055Y-41751D02*
X44084Y-41781D01*
X42362Y-41751D02*
X44055Y-41751D01*
X42022Y-42091D02*
X42362Y-41751D01*
X51496Y-45157D02*
X51496Y-45059D01*
X48921Y-41181D02*
X48417Y-40677D01*
X51653Y-41181D02*
X48921Y-41181D01*
X52362Y-41889D02*
X51653Y-41181D01*
X52362Y-44448D02*
X52362Y-41889D01*
X52125Y-44685D02*
X52362Y-44448D01*
X51870Y-44685D02*
X52125Y-44685D01*
X51496Y-45059D02*
X51870Y-44685D01*
X45031Y-46102D02*
X45031Y-45499D01*
X44084Y-42942D02*
X44084Y-42336D01*
X44074Y-42952D02*
X44084Y-42942D01*
X45031Y-45499D02*
X45078Y-45452D01*
X47893Y-45157D02*
X47893Y-45196D01*
X49419Y-45423D02*
X49685Y-45157D01*
X48120Y-45423D02*
X49419Y-45423D01*
X47893Y-45196D02*
X48120Y-45423D01*
X51496Y-45157D02*
X51368Y-45157D01*
X49793Y-45049D02*
X49685Y-45157D01*
X51259Y-45049D02*
X49793Y-45049D01*
X51368Y-45157D02*
X51259Y-45049D01*
X52460Y-45575D02*
X52032Y-45575D01*
X52032Y-45575D02*
X51496Y-45157D01*
X51485Y-45167D02*
X51496Y-45157D01*
X56094Y-45716D02*
X56051Y-45716D01*
X56051Y-45716D02*
X55910Y-45575D01*
X55910Y-45575D02*
X52460Y-45575D01*
X44084Y-41999D02*
X44084Y-42336D01*
G54D27*
X40417Y-39677D02*
X41417Y-39677D01*
X40417Y-29755D02*
X41417Y-29755D01*
X40417Y-29755D02*
X41417Y-29755D01*
G54D26*
X44448Y-34389D02*
X43976Y-34862D01*
X43976Y-34862D02*
X43976Y-34901D01*
X44133Y-36791D02*
X44133Y-36232D01*
X44133Y-36232D02*
X44081Y-36181D01*
X44399Y-32962D02*
X44488Y-33051D01*
X44133Y-36791D02*
X44121Y-36778D01*
X44399Y-32962D02*
X44399Y-32415D01*
X41889Y-31570D02*
X41299Y-31570D01*
X41889Y-31570D02*
X41904Y-31555D01*
X41904Y-31555D02*
X44399Y-31555D01*
X40944Y-31200D02*
X40944Y-31215D01*
X40944Y-30413D02*
X40944Y-31200D01*
X41102Y-30255D02*
X40944Y-30413D01*
X41968Y-30255D02*
X41102Y-30255D01*
X42440Y-30255D02*
X41968Y-30255D01*
X40944Y-31215D02*
X41299Y-31570D01*
X44399Y-32415D02*
X44399Y-31555D01*
X44399Y-31555D02*
X44399Y-30773D01*
X44399Y-30773D02*
X44417Y-30755D01*
X52417Y-30755D02*
X52417Y-31472D01*
X52677Y-34837D02*
X52460Y-35054D01*
X52677Y-31732D02*
X52677Y-34837D01*
X52417Y-31472D02*
X52677Y-31732D01*
X52460Y-35054D02*
X53051Y-35054D01*
X49417Y-29755D02*
X49417Y-30255D01*
X49417Y-30255D02*
X49448Y-30255D01*
X44417Y-30755D02*
X44417Y-30255D01*
X44417Y-30255D02*
X44409Y-30255D01*
X46417Y-29755D02*
X46417Y-30255D01*
X46417Y-30255D02*
X46456Y-30255D01*
X42417Y-29755D02*
X42417Y-30255D01*
X42440Y-30177D02*
X42440Y-30255D01*
X42440Y-30232D02*
X42440Y-30177D01*
X42417Y-30255D02*
X42440Y-30232D01*
X52417Y-30755D02*
X52417Y-30625D01*
X52417Y-30625D02*
X52047Y-30255D01*
X52047Y-30255D02*
X49448Y-30255D01*
X49448Y-30255D02*
X46456Y-30255D01*
X46456Y-30255D02*
X44409Y-30255D01*
X44409Y-30255D02*
X42440Y-30255D01*
X42417Y-29755D02*
X42417Y-29807D01*
X57555Y-35255D02*
X58094Y-35795D01*
X53444Y-35255D02*
X57555Y-35255D01*
X53243Y-35054D02*
X53444Y-35255D01*
X44133Y-36791D02*
X44133Y-36232D01*
X44133Y-36232D02*
X44081Y-36181D01*
X44399Y-32962D02*
X44488Y-33051D01*
X44448Y-34389D02*
X43976Y-34862D01*
X43976Y-34862D02*
X43976Y-34901D01*
X44133Y-36791D02*
X44121Y-36778D01*
X44399Y-32962D02*
X44399Y-32415D01*
X41889Y-31570D02*
X41299Y-31570D01*
X41889Y-31570D02*
X41904Y-31555D01*
X41904Y-31555D02*
X44399Y-31555D01*
X40944Y-31200D02*
X40944Y-31215D01*
X40944Y-30413D02*
X40944Y-31200D01*
X41102Y-30255D02*
X40944Y-30413D01*
X41968Y-30255D02*
X41102Y-30255D01*
X42440Y-30255D02*
X41968Y-30255D01*
X40944Y-31215D02*
X41299Y-31570D01*
X44399Y-32415D02*
X44399Y-31555D01*
X44399Y-31555D02*
X44399Y-30773D01*
X44399Y-30773D02*
X44417Y-30755D01*
X52417Y-30755D02*
X52417Y-31472D01*
X52677Y-34837D02*
X52460Y-35054D01*
X52677Y-31732D02*
X52677Y-34837D01*
X52417Y-31472D02*
X52677Y-31732D01*
X52460Y-35054D02*
X53051Y-35054D01*
X49417Y-29755D02*
X49417Y-30255D01*
X49417Y-30255D02*
X49448Y-30255D01*
X44417Y-30755D02*
X44417Y-30255D01*
X44417Y-30255D02*
X44409Y-30255D01*
X46417Y-29755D02*
X46417Y-30255D01*
X46417Y-30255D02*
X46456Y-30255D01*
X42417Y-29755D02*
X42417Y-30255D01*
X42440Y-30177D02*
X42440Y-30255D01*
X42440Y-30232D02*
X42440Y-30177D01*
X42417Y-30255D02*
X42440Y-30232D01*
X52417Y-30755D02*
X52417Y-30625D01*
X52417Y-30625D02*
X52047Y-30255D01*
X52047Y-30255D02*
X49448Y-30255D01*
X49448Y-30255D02*
X46456Y-30255D01*
X46456Y-30255D02*
X44409Y-30255D01*
X44409Y-30255D02*
X42440Y-30255D01*
X42417Y-29755D02*
X42417Y-29807D01*
X57555Y-35255D02*
X58094Y-35795D01*
X53444Y-35255D02*
X57555Y-35255D01*
X53243Y-35054D02*
X53444Y-35255D01*
X44133Y-46712D02*
X44133Y-46154D01*
X44133Y-46154D02*
X44081Y-46102D01*
X44399Y-42884D02*
X44488Y-42972D01*
X44448Y-44311D02*
X43976Y-44783D01*
X43976Y-44783D02*
X43976Y-44822D01*
X44133Y-46712D02*
X44121Y-46700D01*
X44399Y-42884D02*
X44399Y-42336D01*
X41889Y-41491D02*
X41299Y-41491D01*
X41889Y-41491D02*
X41904Y-41476D01*
X41904Y-41476D02*
X44399Y-41476D01*
X40944Y-41122D02*
X40944Y-41137D01*
X40944Y-40334D02*
X40944Y-41122D01*
X41102Y-40177D02*
X40944Y-40334D01*
X41968Y-40177D02*
X41102Y-40177D01*
X40944Y-41137D02*
X41299Y-41491D01*
X44399Y-42336D02*
X44399Y-41476D01*
X44399Y-41476D02*
X44399Y-40694D01*
X44399Y-40694D02*
X44417Y-40677D01*
X52417Y-40677D02*
X52417Y-41393D01*
X52677Y-44759D02*
X52460Y-44975D01*
X52677Y-41653D02*
X52677Y-44759D01*
X52417Y-41393D02*
X52677Y-41653D01*
X52460Y-44975D02*
X53051Y-44975D01*
X49417Y-39677D02*
X49417Y-40177D01*
X49417Y-40177D02*
X49448Y-40177D01*
X44417Y-40677D02*
X44417Y-40177D01*
X44417Y-40177D02*
X44409Y-40177D01*
X46417Y-39677D02*
X46417Y-40177D01*
X46417Y-40177D02*
X46456Y-40177D01*
X52417Y-40677D02*
X52417Y-40547D01*
X52417Y-40547D02*
X52047Y-40177D01*
X52047Y-40177D02*
X49448Y-40177D01*
X49448Y-40177D02*
X46456Y-40177D01*
X46456Y-40177D02*
X44409Y-40177D01*
X57555Y-45177D02*
X58094Y-45716D01*
X53444Y-45177D02*
X57555Y-45177D01*
X53243Y-44975D02*
X53444Y-45177D01*
X42440Y-40177D02*
X41968Y-40177D01*
X42417Y-39677D02*
X42417Y-40177D01*
X42440Y-40098D02*
X42440Y-40177D01*
X42440Y-40153D02*
X42440Y-40098D01*
X42417Y-40177D02*
X42440Y-40153D01*
X44409Y-40177D02*
X42440Y-40177D01*
X42417Y-39677D02*
X42417Y-39728D01*
G54D27*
X48090Y-33799D02*
X47775Y-33484D01*
X47322Y-33484D02*
X46976Y-33831D01*
X46976Y-33831D02*
X46131Y-33831D01*
X47775Y-33484D02*
X47421Y-33484D01*
X47421Y-33484D02*
X47322Y-33484D01*
X48090Y-33799D02*
X48193Y-33799D01*
X48193Y-33799D02*
X48090Y-33799D01*
X48090Y-33799D02*
X47775Y-33484D01*
X47322Y-33484D02*
X46976Y-33831D01*
X46976Y-33831D02*
X46131Y-33831D01*
X47775Y-33484D02*
X47421Y-33484D01*
X47421Y-33484D02*
X47322Y-33484D01*
X48090Y-33799D02*
X48193Y-33799D01*
X48193Y-33799D02*
X48090Y-33799D01*
X48090Y-43720D02*
X47775Y-43405D01*
X47322Y-43405D02*
X46976Y-43752D01*
X46976Y-43752D02*
X46131Y-43752D01*
X47775Y-43405D02*
X47421Y-43405D01*
X47421Y-43405D02*
X47322Y-43405D01*
X48090Y-43720D02*
X48193Y-43720D01*
X48193Y-43720D02*
X48090Y-43720D01*
X47265Y-33344D02*
X47833Y-33344D01*
X46131Y-33511D02*
X47098Y-33511D01*
X47265Y-33344D02*
X47098Y-33511D01*
X49827Y-33641D02*
X49985Y-33799D01*
X49822Y-33641D02*
X49827Y-33641D01*
X49665Y-33484D02*
X49822Y-33641D01*
X47972Y-33484D02*
X49665Y-33484D01*
X47833Y-33344D02*
X47972Y-33484D01*
X47265Y-33344D02*
X47833Y-33344D01*
X46131Y-33511D02*
X47098Y-33511D01*
X47265Y-33344D02*
X47098Y-33511D01*
X49827Y-33641D02*
X49985Y-33799D01*
X49822Y-33641D02*
X49827Y-33641D01*
X49665Y-33484D02*
X49822Y-33641D01*
X47972Y-33484D02*
X49665Y-33484D01*
X47833Y-33344D02*
X47972Y-33484D01*
X47265Y-43266D02*
X47833Y-43266D01*
X46131Y-43432D02*
X47098Y-43432D01*
X47265Y-43266D02*
X47098Y-43432D01*
X49827Y-43562D02*
X49985Y-43720D01*
X49822Y-43562D02*
X49827Y-43562D01*
X49665Y-43405D02*
X49822Y-43562D01*
X47972Y-43405D02*
X49665Y-43405D01*
X47833Y-43266D02*
X47972Y-43405D01*
X47192Y-33201D02*
X47901Y-33201D01*
X46131Y-33201D02*
X47192Y-33201D01*
X49867Y-33484D02*
X50157Y-33484D01*
X51481Y-33484D02*
X51796Y-33799D01*
X50157Y-33484D02*
X51481Y-33484D01*
X49727Y-33344D02*
X49867Y-33484D01*
X48045Y-33344D02*
X49727Y-33344D01*
X47901Y-33201D02*
X48045Y-33344D01*
X47192Y-33201D02*
X47901Y-33201D01*
X46131Y-33201D02*
X47192Y-33201D01*
X49867Y-33484D02*
X50157Y-33484D01*
X51481Y-33484D02*
X51796Y-33799D01*
X50157Y-33484D02*
X51481Y-33484D01*
X49727Y-33344D02*
X49867Y-33484D01*
X48045Y-33344D02*
X49727Y-33344D01*
X47901Y-33201D02*
X48045Y-33344D01*
X47192Y-43122D02*
X47901Y-43122D01*
X46131Y-43122D02*
X47192Y-43122D01*
X49867Y-43405D02*
X50157Y-43405D01*
X51481Y-43405D02*
X51796Y-43720D01*
X50157Y-43405D02*
X51481Y-43405D01*
X49727Y-43266D02*
X49867Y-43405D01*
X48045Y-43266D02*
X49727Y-43266D01*
X47901Y-43122D02*
X48045Y-43266D01*
X45344Y-33002D02*
X45344Y-32415D01*
X45354Y-33011D02*
X45344Y-33002D01*
X45344Y-33002D02*
X45344Y-32415D01*
X45354Y-33011D02*
X45344Y-33002D01*
X45344Y-42923D02*
X45344Y-42336D01*
X45354Y-42933D02*
X45344Y-42923D01*
X46719Y-34141D02*
X46732Y-34153D01*
X46719Y-34141D02*
X46131Y-34141D01*
X46719Y-34141D02*
X46732Y-34153D01*
X46719Y-34141D02*
X46131Y-34141D01*
X46719Y-44062D02*
X46732Y-44074D01*
X46719Y-44062D02*
X46131Y-44062D01*
X45573Y-34451D02*
X46131Y-34451D01*
X45573Y-34451D02*
X45511Y-34389D01*
X45573Y-34451D02*
X46131Y-34451D01*
X45573Y-34451D02*
X45511Y-34389D01*
X45573Y-44372D02*
X46131Y-44372D01*
X45573Y-44372D02*
X45511Y-44311D01*
X46719Y-34771D02*
X46732Y-34783D01*
X46719Y-34771D02*
X46131Y-34771D01*
X46719Y-34771D02*
X46732Y-34783D01*
X46719Y-34771D02*
X46131Y-34771D01*
X46719Y-44692D02*
X46732Y-44704D01*
X46719Y-44692D02*
X46131Y-44692D01*
X57094Y-35795D02*
X56685Y-35795D01*
X45964Y-36594D02*
X45964Y-36397D01*
X46318Y-36948D02*
X45964Y-36594D01*
X48858Y-36948D02*
X46318Y-36948D01*
X49015Y-36791D02*
X48858Y-36948D01*
X51811Y-36791D02*
X49015Y-36791D01*
X52047Y-36555D02*
X51811Y-36791D01*
X52047Y-36515D02*
X52047Y-36555D01*
X52362Y-36200D02*
X52047Y-36515D01*
X56279Y-36200D02*
X52362Y-36200D01*
X56685Y-35795D02*
X56279Y-36200D01*
X46131Y-35091D02*
X45661Y-35091D01*
X45661Y-35091D02*
X45511Y-34940D01*
X57094Y-35795D02*
X56685Y-35795D01*
X45964Y-36594D02*
X45964Y-36397D01*
X46318Y-36948D02*
X45964Y-36594D01*
X48858Y-36948D02*
X46318Y-36948D01*
X49015Y-36791D02*
X48858Y-36948D01*
X51811Y-36791D02*
X49015Y-36791D01*
X52047Y-36555D02*
X51811Y-36791D01*
X52047Y-36515D02*
X52047Y-36555D01*
X52362Y-36200D02*
X52047Y-36515D01*
X56279Y-36200D02*
X52362Y-36200D01*
X56685Y-35795D02*
X56279Y-36200D01*
X46131Y-35091D02*
X45661Y-35091D01*
X45661Y-35091D02*
X45511Y-34940D01*
X57094Y-45716D02*
X56685Y-45716D01*
X45964Y-46515D02*
X45964Y-46318D01*
X46318Y-46870D02*
X45964Y-46515D01*
X48858Y-46870D02*
X46318Y-46870D01*
X49015Y-46712D02*
X48858Y-46870D01*
X51811Y-46712D02*
X49015Y-46712D01*
X52047Y-46476D02*
X51811Y-46712D01*
X52047Y-46437D02*
X52047Y-46476D01*
X52362Y-46122D02*
X52047Y-46437D01*
X56279Y-46122D02*
X52362Y-46122D01*
X56685Y-45716D02*
X56279Y-46122D01*
X46131Y-45012D02*
X45661Y-45012D01*
X45661Y-45012D02*
X45511Y-44862D01*
X46131Y-35411D02*
X46131Y-35797D01*
X55657Y-36358D02*
X56094Y-36795D01*
X52460Y-36358D02*
X55657Y-36358D01*
X51870Y-36948D02*
X52460Y-36358D01*
X49074Y-36948D02*
X51870Y-36948D01*
X48917Y-37106D02*
X49074Y-36948D01*
X46259Y-37106D02*
X48917Y-37106D01*
X45688Y-36535D02*
X46259Y-37106D01*
X45688Y-36240D02*
X45688Y-36535D01*
X46131Y-35797D02*
X45688Y-36240D01*
X46695Y-35411D02*
X46771Y-35334D01*
X46131Y-35411D02*
X46695Y-35411D01*
X46131Y-35411D02*
X46131Y-35797D01*
X55657Y-36358D02*
X56094Y-36795D01*
X52460Y-36358D02*
X55657Y-36358D01*
X51870Y-36948D02*
X52460Y-36358D01*
X49074Y-36948D02*
X51870Y-36948D01*
X48917Y-37106D02*
X49074Y-36948D01*
X46259Y-37106D02*
X48917Y-37106D01*
X45688Y-36535D02*
X46259Y-37106D01*
X45688Y-36240D02*
X45688Y-36535D01*
X46131Y-35797D02*
X45688Y-36240D01*
X46695Y-35411D02*
X46771Y-35334D01*
X46131Y-35411D02*
X46695Y-35411D01*
X46131Y-45332D02*
X46131Y-45718D01*
X55657Y-46279D02*
X56094Y-46716D01*
X52460Y-46279D02*
X55657Y-46279D01*
X51870Y-46870D02*
X52460Y-46279D01*
X49074Y-46870D02*
X51870Y-46870D01*
X48917Y-47027D02*
X49074Y-46870D01*
X46259Y-47027D02*
X48917Y-47027D01*
X45688Y-46456D02*
X46259Y-47027D01*
X45688Y-46161D02*
X45688Y-46456D01*
X46131Y-45718D02*
X45688Y-46161D01*
X46695Y-45332D02*
X46771Y-45255D01*
X46131Y-45332D02*
X46695Y-45332D01*
X45351Y-36181D02*
X45351Y-36572D01*
X45351Y-36572D02*
X45570Y-36791D01*
X45826Y-37263D02*
X45826Y-37047D01*
X57094Y-36740D02*
X56633Y-36279D01*
X55511Y-36633D02*
X55393Y-36515D01*
X55393Y-36515D02*
X52519Y-36515D01*
X52519Y-36515D02*
X51929Y-37106D01*
X51929Y-37106D02*
X49133Y-37106D01*
X49133Y-37106D02*
X48976Y-37263D01*
X48976Y-37263D02*
X45826Y-37263D01*
X57094Y-36795D02*
X57094Y-36740D01*
X45826Y-37047D02*
X45351Y-36572D01*
X45568Y-36788D02*
X45570Y-36791D01*
X45351Y-36181D02*
X45351Y-36572D01*
X45351Y-36572D02*
X45570Y-36791D01*
X45826Y-37263D02*
X45826Y-37047D01*
X57094Y-36740D02*
X56633Y-36279D01*
X55511Y-36633D02*
X55393Y-36515D01*
X55393Y-36515D02*
X52519Y-36515D01*
X52519Y-36515D02*
X51929Y-37106D01*
X51929Y-37106D02*
X49133Y-37106D01*
X49133Y-37106D02*
X48976Y-37263D01*
X48976Y-37263D02*
X45826Y-37263D01*
X57094Y-36795D02*
X57094Y-36740D01*
X45826Y-37047D02*
X45351Y-36572D01*
X45568Y-36788D02*
X45570Y-36791D01*
X45351Y-46102D02*
X45351Y-46493D01*
X45351Y-46493D02*
X45570Y-46712D01*
X45826Y-47185D02*
X45826Y-46968D01*
X57094Y-46661D02*
X56633Y-46200D01*
X55511Y-46555D02*
X55393Y-46437D01*
X55393Y-46437D02*
X52519Y-46437D01*
X52519Y-46437D02*
X51929Y-47027D01*
X51929Y-47027D02*
X49133Y-47027D01*
X49133Y-47027D02*
X48976Y-47185D01*
X48976Y-47185D02*
X45826Y-47185D01*
X57094Y-46716D02*
X57094Y-46661D01*
X45826Y-46968D02*
X45351Y-46493D01*
X45568Y-46710D02*
X45570Y-46712D01*
X46555Y-33011D02*
X46594Y-33011D01*
X46555Y-33011D02*
X45688Y-33011D01*
X45078Y-32463D02*
X45029Y-32415D01*
X45078Y-33129D02*
X45078Y-32463D01*
X45236Y-33287D02*
X45078Y-33129D01*
X45472Y-33287D02*
X45236Y-33287D01*
X45610Y-33149D02*
X45472Y-33287D01*
X45610Y-33090D02*
X45610Y-33149D01*
X45688Y-33011D02*
X45610Y-33090D01*
X48959Y-33205D02*
X49094Y-33070D01*
X48107Y-33205D02*
X48959Y-33205D01*
X47952Y-33051D02*
X48107Y-33205D01*
X46633Y-33051D02*
X47952Y-33051D01*
X46594Y-33011D02*
X46633Y-33051D01*
X46555Y-33011D02*
X46594Y-33011D01*
X46555Y-33011D02*
X45688Y-33011D01*
X45078Y-32463D02*
X45029Y-32415D01*
X45078Y-33129D02*
X45078Y-32463D01*
X45236Y-33287D02*
X45078Y-33129D01*
X45472Y-33287D02*
X45236Y-33287D01*
X45610Y-33149D02*
X45472Y-33287D01*
X45610Y-33090D02*
X45610Y-33149D01*
X45688Y-33011D02*
X45610Y-33090D01*
X48959Y-33205D02*
X49094Y-33070D01*
X48107Y-33205D02*
X48959Y-33205D01*
X47952Y-33051D02*
X48107Y-33205D01*
X46633Y-33051D02*
X47952Y-33051D01*
X46594Y-33011D02*
X46633Y-33051D01*
X46555Y-42933D02*
X46594Y-42933D01*
X46555Y-42933D02*
X45688Y-42933D01*
X45078Y-42385D02*
X45029Y-42336D01*
X45078Y-43051D02*
X45078Y-42385D01*
X45236Y-43208D02*
X45078Y-43051D01*
X45472Y-43208D02*
X45236Y-43208D01*
X45610Y-43070D02*
X45472Y-43208D01*
X45610Y-43011D02*
X45610Y-43070D01*
X45688Y-42933D02*
X45610Y-43011D01*
X48959Y-43126D02*
X49094Y-42992D01*
X48107Y-43126D02*
X48959Y-43126D01*
X47952Y-42972D02*
X48107Y-43126D01*
X46633Y-42972D02*
X47952Y-42972D01*
X46594Y-42933D02*
X46633Y-42972D01*
X51121Y-34370D02*
X51121Y-33874D01*
X51121Y-33874D02*
X51196Y-33799D01*
X51121Y-34370D02*
X51121Y-33874D01*
X51121Y-33874D02*
X51196Y-33799D01*
X51121Y-44291D02*
X51121Y-43795D01*
X51121Y-43795D02*
X51196Y-43720D01*
X47518Y-34370D02*
X47518Y-33874D01*
X47518Y-33874D02*
X47593Y-33799D01*
X47518Y-34370D02*
X47518Y-33874D01*
X47518Y-33874D02*
X47593Y-33799D01*
X47518Y-44291D02*
X47518Y-43795D01*
X47518Y-43795D02*
X47593Y-43720D01*
X49310Y-34370D02*
X49310Y-33874D01*
X49310Y-33874D02*
X49385Y-33799D01*
X49310Y-34370D02*
X49310Y-33874D01*
X49310Y-33874D02*
X49385Y-33799D01*
X49310Y-44291D02*
X49310Y-43795D01*
X49310Y-43795D02*
X49385Y-43720D01*
X42397Y-37814D02*
X42397Y-35448D01*
X42397Y-35448D02*
X42351Y-35403D01*
X42397Y-37814D02*
X42397Y-35448D01*
X42397Y-35448D02*
X42351Y-35403D01*
X42397Y-47736D02*
X42397Y-45369D01*
X42397Y-45369D02*
X42351Y-45324D01*
X43141Y-35775D02*
X43385Y-35531D01*
X41417Y-37145D02*
X41397Y-37165D01*
X41397Y-37814D02*
X41397Y-37165D01*
X43141Y-35775D02*
X43141Y-36181D01*
X43141Y-35775D02*
X43385Y-35531D01*
X41417Y-37145D02*
X41397Y-37165D01*
X41397Y-37814D02*
X41397Y-37165D01*
X43141Y-35775D02*
X43141Y-36181D01*
X43141Y-45696D02*
X43385Y-45452D01*
X41417Y-47066D02*
X41397Y-47086D01*
X41397Y-47736D02*
X41397Y-47086D01*
X43141Y-45696D02*
X43141Y-46102D01*
X43451Y-36818D02*
X43464Y-36830D01*
X43451Y-36818D02*
X43451Y-36181D01*
X43451Y-36818D02*
X43464Y-36830D01*
X43451Y-36818D02*
X43451Y-36181D01*
X43451Y-46739D02*
X43464Y-46751D01*
X43451Y-46739D02*
X43451Y-46102D01*
X47397Y-37814D02*
X47397Y-37838D01*
X44401Y-37079D02*
X44401Y-36181D01*
X44763Y-37440D02*
X44401Y-37079D01*
X45570Y-37440D02*
X44763Y-37440D01*
X47397Y-37838D02*
X47047Y-38188D01*
X47397Y-37814D02*
X47397Y-37838D01*
X44401Y-37079D02*
X44401Y-36181D01*
X44763Y-37440D02*
X44401Y-37079D01*
X45570Y-37440D02*
X44763Y-37440D01*
X47397Y-37838D02*
X47047Y-38188D01*
X44401Y-47000D02*
X44401Y-46102D01*
X44763Y-47362D02*
X44401Y-47000D01*
X47397Y-47736D02*
X47397Y-47759D01*
X45570Y-47362D02*
X44763Y-47362D01*
X45767Y-47559D02*
X45570Y-47362D01*
X45767Y-47637D02*
X45767Y-47559D01*
X46240Y-48110D02*
X45767Y-47637D01*
X47047Y-48110D02*
X46240Y-48110D01*
X47397Y-47759D02*
X47047Y-48110D01*
X45767Y-37637D02*
X45570Y-37440D01*
X45767Y-37716D02*
X45767Y-37637D01*
X46240Y-38188D02*
X45767Y-37716D01*
X47047Y-38188D02*
X46240Y-38188D01*
X45767Y-37637D02*
X45570Y-37440D01*
X45767Y-37716D02*
X45767Y-37637D01*
X46240Y-38188D02*
X45767Y-37716D01*
X47047Y-38188D02*
X46240Y-38188D01*
X43397Y-47736D02*
X43031Y-47736D01*
X42559Y-47263D02*
X42559Y-45728D01*
X43031Y-47736D02*
X42559Y-47263D01*
X42559Y-45728D02*
X42913Y-45374D01*
X43397Y-37814D02*
X43031Y-37814D01*
X42746Y-35089D02*
X42351Y-35089D01*
X42913Y-35255D02*
X42746Y-35089D01*
X42913Y-35452D02*
X42913Y-35255D01*
X42559Y-35807D02*
X42913Y-35452D01*
X42559Y-37342D02*
X42559Y-35807D01*
X43031Y-37814D02*
X42559Y-37342D01*
X43397Y-37814D02*
X43031Y-37814D01*
X42746Y-35089D02*
X42351Y-35089D01*
X42913Y-35255D02*
X42746Y-35089D01*
X42913Y-35452D02*
X42913Y-35255D01*
X42559Y-35807D02*
X42913Y-35452D01*
X42559Y-37342D02*
X42559Y-35807D01*
X43031Y-37814D02*
X42559Y-37342D01*
X42746Y-45010D02*
X42351Y-45010D01*
X42913Y-45177D02*
X42746Y-45010D01*
X42913Y-45374D02*
X42913Y-45177D01*
X45078Y-31220D02*
X45118Y-31220D01*
X44744Y-31220D02*
X45078Y-31220D01*
X46771Y-31496D02*
X46909Y-31358D01*
X45354Y-31496D02*
X46771Y-31496D01*
X45295Y-31437D02*
X45354Y-31496D01*
X45295Y-31397D02*
X45295Y-31437D01*
X45118Y-31220D02*
X45295Y-31397D01*
X43454Y-32726D02*
X43149Y-33031D01*
X43454Y-32726D02*
X43454Y-32415D01*
X45078Y-31220D02*
X45118Y-31220D01*
X43454Y-32726D02*
X43149Y-33031D01*
X44744Y-31220D02*
X45078Y-31220D01*
X43454Y-32726D02*
X43454Y-32415D01*
X46771Y-31496D02*
X46909Y-31358D01*
X45354Y-31496D02*
X46771Y-31496D01*
X45295Y-31437D02*
X45354Y-31496D01*
X45295Y-31397D02*
X45295Y-31437D01*
X45118Y-31220D02*
X45295Y-31397D01*
X45078Y-41141D02*
X45118Y-41141D01*
X43454Y-42647D02*
X43149Y-42952D01*
X44744Y-41141D02*
X45078Y-41141D01*
X43454Y-42647D02*
X43454Y-42336D01*
X46771Y-41417D02*
X46909Y-41279D01*
X45354Y-41417D02*
X46771Y-41417D01*
X45295Y-41358D02*
X45354Y-41417D01*
X45295Y-41318D02*
X45295Y-41358D01*
X45118Y-41141D02*
X45295Y-41318D01*
X45019Y-31515D02*
X45147Y-31643D01*
X45147Y-31643D02*
X47775Y-31643D01*
X47775Y-31643D02*
X47903Y-31515D01*
X42939Y-32415D02*
X43139Y-32415D01*
X42939Y-32415D02*
X42795Y-32559D01*
X45019Y-31515D02*
X45147Y-31643D01*
X45147Y-31643D02*
X47775Y-31643D01*
X47775Y-31643D02*
X47903Y-31515D01*
X42939Y-32415D02*
X43139Y-32415D01*
X42939Y-32415D02*
X42795Y-32559D01*
X45019Y-41437D02*
X45147Y-41564D01*
X45147Y-41564D02*
X47775Y-41564D01*
X47775Y-41564D02*
X47903Y-41437D01*
X42939Y-42336D02*
X43139Y-42336D01*
X42939Y-42336D02*
X42795Y-42480D01*
X49212Y-32795D02*
X49212Y-32696D01*
X49606Y-33188D02*
X49212Y-32795D01*
X49783Y-33188D02*
X49606Y-33188D01*
X49921Y-33326D02*
X49783Y-33188D01*
X50807Y-33326D02*
X49921Y-33326D01*
X50925Y-33208D02*
X50807Y-33326D01*
X46397Y-31791D02*
X44724Y-31791D01*
X48818Y-31791D02*
X46397Y-31791D01*
X49094Y-32066D02*
X48818Y-31791D01*
X49094Y-32578D02*
X49094Y-32066D01*
X49212Y-32696D02*
X49094Y-32578D01*
X50137Y-37814D02*
X49881Y-37559D01*
X50389Y-37814D02*
X50137Y-37814D01*
X42351Y-32510D02*
X42351Y-33199D01*
X42696Y-32165D02*
X42351Y-32510D01*
X49212Y-32795D02*
X49212Y-32696D01*
X49606Y-33188D02*
X49212Y-32795D01*
X49783Y-33188D02*
X49606Y-33188D01*
X49921Y-33326D02*
X49783Y-33188D01*
X50807Y-33326D02*
X49921Y-33326D01*
X50925Y-33208D02*
X50807Y-33326D01*
X50137Y-37814D02*
X49881Y-37559D01*
X50389Y-37814D02*
X50137Y-37814D01*
X42351Y-32510D02*
X42351Y-33199D01*
X42696Y-32165D02*
X42351Y-32510D01*
X46397Y-31791D02*
X44724Y-31791D01*
X48818Y-31791D02*
X46397Y-31791D01*
X49094Y-32066D02*
X48818Y-31791D01*
X49094Y-32578D02*
X49094Y-32066D01*
X49212Y-32696D02*
X49094Y-32578D01*
X49212Y-42716D02*
X49212Y-42618D01*
X49606Y-43110D02*
X49212Y-42716D01*
X49783Y-43110D02*
X49606Y-43110D01*
X49921Y-43248D02*
X49783Y-43110D01*
X50807Y-43248D02*
X49921Y-43248D01*
X50925Y-43129D02*
X50807Y-43248D01*
X50137Y-47736D02*
X49881Y-47480D01*
X50389Y-47736D02*
X50137Y-47736D01*
X42351Y-42431D02*
X42351Y-43120D01*
X42696Y-42086D02*
X42351Y-42431D01*
X46397Y-41712D02*
X44724Y-41712D01*
X48818Y-41712D02*
X46397Y-41712D01*
X49094Y-41988D02*
X48818Y-41712D01*
X49094Y-42500D02*
X49094Y-41988D01*
X49212Y-42618D02*
X49094Y-42500D01*
X44251Y-35354D02*
X44350Y-35255D01*
X44350Y-35255D02*
X45196Y-35255D01*
X45196Y-35255D02*
X45472Y-35531D01*
X45472Y-35531D02*
X45492Y-35531D01*
X42351Y-33513D02*
X42824Y-33513D01*
X43877Y-35354D02*
X44232Y-35354D01*
X43582Y-35059D02*
X43877Y-35354D01*
X43582Y-34586D02*
X43582Y-35059D01*
X43385Y-34389D02*
X43582Y-34586D01*
X43385Y-34074D02*
X43385Y-34389D01*
X42824Y-33513D02*
X43385Y-34074D01*
X44232Y-35354D02*
X44251Y-35354D01*
X44251Y-35354D02*
X44350Y-35255D01*
X44350Y-35255D02*
X45196Y-35255D01*
X45196Y-35255D02*
X45472Y-35531D01*
X45472Y-35531D02*
X45492Y-35531D01*
X42351Y-33513D02*
X42824Y-33513D01*
X43877Y-35354D02*
X44232Y-35354D01*
X43582Y-35059D02*
X43877Y-35354D01*
X43582Y-34586D02*
X43582Y-35059D01*
X43385Y-34389D02*
X43582Y-34586D01*
X43385Y-34074D02*
X43385Y-34389D01*
X42824Y-33513D02*
X43385Y-34074D01*
X44232Y-35354D02*
X44251Y-35354D01*
X44251Y-45275D02*
X44350Y-45177D01*
X44350Y-45177D02*
X45196Y-45177D01*
X45196Y-45177D02*
X45472Y-45452D01*
X45472Y-45452D02*
X45492Y-45452D01*
X42351Y-43434D02*
X42824Y-43434D01*
X43877Y-45275D02*
X44232Y-45275D01*
X43582Y-44980D02*
X43877Y-45275D01*
X43582Y-44507D02*
X43582Y-44980D01*
X43385Y-44311D02*
X43582Y-44507D01*
X43385Y-43996D02*
X43385Y-44311D01*
X42824Y-43434D02*
X43385Y-43996D01*
X44232Y-45275D02*
X44251Y-45275D01*
X43425Y-35118D02*
X43425Y-35177D01*
X43425Y-35118D02*
X43425Y-34645D01*
X43425Y-34645D02*
X43228Y-34448D01*
X43228Y-34448D02*
X43228Y-34133D01*
X43228Y-34133D02*
X42923Y-33829D01*
X42351Y-33829D02*
X42923Y-33829D01*
X44429Y-35531D02*
X44468Y-35531D01*
X44271Y-35688D02*
X44429Y-35531D01*
X43661Y-35688D02*
X44271Y-35688D01*
X43661Y-35413D02*
X43661Y-35688D01*
X43425Y-35177D02*
X43661Y-35413D01*
X43425Y-35118D02*
X43425Y-35177D01*
X43425Y-35118D02*
X43425Y-34645D01*
X43425Y-34645D02*
X43228Y-34448D01*
X43228Y-34448D02*
X43228Y-34133D01*
X43228Y-34133D02*
X42923Y-33829D01*
X42351Y-33829D02*
X42923Y-33829D01*
X44429Y-35531D02*
X44468Y-35531D01*
X44271Y-35688D02*
X44429Y-35531D01*
X43661Y-35688D02*
X44271Y-35688D01*
X43661Y-35413D02*
X43661Y-35688D01*
X43425Y-35177D02*
X43661Y-35413D01*
X43228Y-44370D02*
X43228Y-44055D01*
X43228Y-44055D02*
X42923Y-43750D01*
X42351Y-43750D02*
X42923Y-43750D01*
X43425Y-45039D02*
X43425Y-44566D01*
X43425Y-44566D02*
X43228Y-44370D01*
X43425Y-45039D02*
X43425Y-45098D01*
X44429Y-45452D02*
X44468Y-45452D01*
X44271Y-45610D02*
X44429Y-45452D01*
X43661Y-45610D02*
X44271Y-45610D01*
X43661Y-45334D02*
X43661Y-45610D01*
X43425Y-45098D02*
X43661Y-45334D01*
G54D26*
X47440Y-32854D02*
X47153Y-32854D01*
X48622Y-32933D02*
X48562Y-32992D01*
X48562Y-32992D02*
X48208Y-32992D01*
X48208Y-32992D02*
X48070Y-32854D01*
X48070Y-32854D02*
X47440Y-32854D01*
X48346Y-34370D02*
X48622Y-34094D01*
X48622Y-34094D02*
X48622Y-33877D01*
X48268Y-34370D02*
X48346Y-34370D01*
X47153Y-32854D02*
X46594Y-32295D01*
X48268Y-34318D02*
X48268Y-34370D01*
X47440Y-32854D02*
X47153Y-32854D01*
X48622Y-32933D02*
X48562Y-32992D01*
X48562Y-32992D02*
X48208Y-32992D01*
X48208Y-32992D02*
X48070Y-32854D01*
X48070Y-32854D02*
X47440Y-32854D01*
X48346Y-34370D02*
X48622Y-34094D01*
X48622Y-34094D02*
X48622Y-33877D01*
X48268Y-34370D02*
X48346Y-34370D01*
X47153Y-32854D02*
X46594Y-32295D01*
X48268Y-34318D02*
X48268Y-34370D01*
X47440Y-42775D02*
X47153Y-42775D01*
X48622Y-42854D02*
X48562Y-42913D01*
X48562Y-42913D02*
X48208Y-42913D01*
X48208Y-42913D02*
X48070Y-42775D01*
X48070Y-42775D02*
X47440Y-42775D01*
X48346Y-44291D02*
X48622Y-44015D01*
X48622Y-44015D02*
X48622Y-43799D01*
X48268Y-44291D02*
X48346Y-44291D01*
X47153Y-42775D02*
X46594Y-42216D01*
X48268Y-44239D02*
X48268Y-44291D01*
G54D27*
X48287Y-35691D02*
X48427Y-35691D01*
X47893Y-35551D02*
X48033Y-35691D01*
X47598Y-35452D02*
X47696Y-35551D01*
X48444Y-34724D02*
X48248Y-34921D01*
X48248Y-34921D02*
X47696Y-34921D01*
X47696Y-34921D02*
X47598Y-35019D01*
X47598Y-35019D02*
X47598Y-35452D01*
X48681Y-34724D02*
X48444Y-34724D01*
X47696Y-35551D02*
X47874Y-35551D01*
X47874Y-35551D02*
X47893Y-35551D01*
X48033Y-35691D02*
X48287Y-35691D01*
X48594Y-35858D02*
X48594Y-36295D01*
X48427Y-35691D02*
X48594Y-35858D01*
X48287Y-35691D02*
X48427Y-35691D01*
X47893Y-35551D02*
X48033Y-35691D01*
X47598Y-35452D02*
X47696Y-35551D01*
X48444Y-34724D02*
X48248Y-34921D01*
X48248Y-34921D02*
X47696Y-34921D01*
X47696Y-34921D02*
X47598Y-35019D01*
X47598Y-35019D02*
X47598Y-35452D01*
X48681Y-34724D02*
X48444Y-34724D01*
X47696Y-35551D02*
X47874Y-35551D01*
X47874Y-35551D02*
X47893Y-35551D01*
X48033Y-35691D02*
X48287Y-35691D01*
X48594Y-35858D02*
X48594Y-36295D01*
X48427Y-35691D02*
X48594Y-35858D01*
X48287Y-45612D02*
X48427Y-45612D01*
X47893Y-45472D02*
X48033Y-45612D01*
X47598Y-45374D02*
X47696Y-45472D01*
X48444Y-44645D02*
X48248Y-44842D01*
X48248Y-44842D02*
X47696Y-44842D01*
X47696Y-44842D02*
X47598Y-44940D01*
X47598Y-44940D02*
X47598Y-45374D01*
X48681Y-44645D02*
X48444Y-44645D01*
X47696Y-45472D02*
X47874Y-45472D01*
X47874Y-45472D02*
X47893Y-45472D01*
X48033Y-45612D02*
X48287Y-45612D01*
X48594Y-45779D02*
X48594Y-46216D01*
X48427Y-45612D02*
X48594Y-45779D01*
X50295Y-35452D02*
X50452Y-35452D01*
X50944Y-35334D02*
X51062Y-35452D01*
X50570Y-35334D02*
X50944Y-35334D01*
X50452Y-35452D02*
X50570Y-35334D01*
X50295Y-35452D02*
X50452Y-35452D01*
X50944Y-35334D02*
X51062Y-35452D01*
X50570Y-35334D02*
X50944Y-35334D01*
X50452Y-35452D02*
X50570Y-35334D01*
X50295Y-45374D02*
X50452Y-45374D01*
X50944Y-45255D02*
X51062Y-45374D01*
X50570Y-45255D02*
X50944Y-45255D01*
X50452Y-45374D02*
X50570Y-45255D01*
X50728Y-35669D02*
X50472Y-35669D01*
X47090Y-36791D02*
X46594Y-36295D01*
X48799Y-36791D02*
X47090Y-36791D01*
X49094Y-36496D02*
X48799Y-36791D01*
X49094Y-35905D02*
X49094Y-36496D01*
X49271Y-35728D02*
X49094Y-35905D01*
X50413Y-35728D02*
X49271Y-35728D01*
X50472Y-35669D02*
X50413Y-35728D01*
X50728Y-35669D02*
X50472Y-35669D01*
X47090Y-36791D02*
X46594Y-36295D01*
X48799Y-36791D02*
X47090Y-36791D01*
X49094Y-36496D02*
X48799Y-36791D01*
X49094Y-35905D02*
X49094Y-36496D01*
X49271Y-35728D02*
X49094Y-35905D01*
X50413Y-35728D02*
X49271Y-35728D01*
X50472Y-35669D02*
X50413Y-35728D01*
X50728Y-45590D02*
X50472Y-45590D01*
X47090Y-46712D02*
X46594Y-46216D01*
X48799Y-46712D02*
X47090Y-46712D01*
X49094Y-46417D02*
X48799Y-46712D01*
X49094Y-45826D02*
X49094Y-46417D01*
X49271Y-45649D02*
X49094Y-45826D01*
X50413Y-45649D02*
X49271Y-45649D01*
X50472Y-45590D02*
X50413Y-45649D01*
X47893Y-34232D02*
X47893Y-34703D01*
X47594Y-35685D02*
X47594Y-36295D01*
X47440Y-35531D02*
X47594Y-35685D01*
X47440Y-34960D02*
X47440Y-35531D01*
X47637Y-34763D02*
X47440Y-34960D01*
X47833Y-34763D02*
X47637Y-34763D01*
X47893Y-34703D02*
X47833Y-34763D01*
X47893Y-34232D02*
X47893Y-34703D01*
X47594Y-35685D02*
X47594Y-36295D01*
X47440Y-35531D02*
X47594Y-35685D01*
X47440Y-34960D02*
X47440Y-35531D01*
X47637Y-34763D02*
X47440Y-34960D01*
X47833Y-34763D02*
X47637Y-34763D01*
X47893Y-34703D02*
X47833Y-34763D01*
X47893Y-44153D02*
X47893Y-44624D01*
X47594Y-45606D02*
X47594Y-46216D01*
X47440Y-45452D02*
X47594Y-45606D01*
X47440Y-44881D02*
X47440Y-45452D01*
X47637Y-44685D02*
X47440Y-44881D01*
X47833Y-44685D02*
X47637Y-44685D01*
X47893Y-44624D02*
X47833Y-44685D01*
X48484Y-35068D02*
X49340Y-35068D01*
X50472Y-34468D02*
X50472Y-34350D01*
X50039Y-34901D02*
X50472Y-34468D01*
X49507Y-34901D02*
X50039Y-34901D01*
X49340Y-35068D02*
X49507Y-34901D01*
X48484Y-35068D02*
X49340Y-35068D01*
X50472Y-34468D02*
X50472Y-34350D01*
X50039Y-34901D02*
X50472Y-34468D01*
X49507Y-34901D02*
X50039Y-34901D01*
X49340Y-35068D02*
X49507Y-34901D01*
X48484Y-44990D02*
X49340Y-44990D01*
X50472Y-44389D02*
X50472Y-44271D01*
X50039Y-44822D02*
X50472Y-44389D01*
X49507Y-44822D02*
X50039Y-44822D01*
X49340Y-44990D02*
X49507Y-44822D01*
G54D26*
X50060Y-34329D02*
X50393Y-33897D01*
X50393Y-33897D02*
X50374Y-33877D01*
X50354Y-32874D02*
X49775Y-32295D01*
X49594Y-32295D02*
X49775Y-32295D01*
X50060Y-34329D02*
X50060Y-34370D01*
X50060Y-34329D02*
X50393Y-33897D01*
X50393Y-33897D02*
X50374Y-33877D01*
X50354Y-32874D02*
X49775Y-32295D01*
X49594Y-32295D02*
X49775Y-32295D01*
X50060Y-34329D02*
X50060Y-34370D01*
X50060Y-44250D02*
X50393Y-43818D01*
X50393Y-43818D02*
X50374Y-43799D01*
X50354Y-42795D02*
X49775Y-42216D01*
X49594Y-42216D02*
X49775Y-42216D01*
X50060Y-44250D02*
X50060Y-44291D01*
X51871Y-34370D02*
X51871Y-34369D01*
X52086Y-33385D02*
X52066Y-33366D01*
X52066Y-33366D02*
X51665Y-33366D01*
X51665Y-33366D02*
X50594Y-32295D01*
X52086Y-34153D02*
X52086Y-33385D01*
X51871Y-34369D02*
X52086Y-34153D01*
X51871Y-34370D02*
X51929Y-34370D01*
X51871Y-34370D02*
X51871Y-34369D01*
X52086Y-33385D02*
X52066Y-33366D01*
X52066Y-33366D02*
X51665Y-33366D01*
X51665Y-33366D02*
X50594Y-32295D01*
X52086Y-34153D02*
X52086Y-33385D01*
X51871Y-34369D02*
X52086Y-34153D01*
X51871Y-34370D02*
X51929Y-34370D01*
X51871Y-44291D02*
X51871Y-44290D01*
X52086Y-43307D02*
X52066Y-43287D01*
X52066Y-43287D02*
X51665Y-43287D01*
X51665Y-43287D02*
X50594Y-42216D01*
X52086Y-44074D02*
X52086Y-43307D01*
X51871Y-44290D02*
X52086Y-44074D01*
X51871Y-44291D02*
X51929Y-44291D01*
G54D27*
X44711Y-36784D02*
X44685Y-36811D01*
X44711Y-36784D02*
X44685Y-36811D01*
X44711Y-36181D02*
X44711Y-36784D01*
X44711Y-36181D02*
X44711Y-36784D01*
X44711Y-46102D02*
X44711Y-46705D01*
X44711Y-46705D02*
X44685Y-46732D01*
X45767Y-38346D02*
X45885Y-38228D01*
X45334Y-38346D02*
X45767Y-38346D01*
X44901Y-37913D02*
X45334Y-38346D01*
X43771Y-36181D02*
X43771Y-36941D01*
X43996Y-37165D02*
X44015Y-37165D01*
X43771Y-36941D02*
X43996Y-37165D01*
X43771Y-36181D02*
X43771Y-36941D01*
X45767Y-38346D02*
X45885Y-38228D01*
X45334Y-38346D02*
X45767Y-38346D01*
X44901Y-37913D02*
X45334Y-38346D01*
X43996Y-37165D02*
X44015Y-37165D01*
X43771Y-36941D02*
X43996Y-37165D01*
X43771Y-46102D02*
X43771Y-46862D01*
X45767Y-48267D02*
X45885Y-48149D01*
X45334Y-48267D02*
X45767Y-48267D01*
X44901Y-47834D02*
X45334Y-48267D01*
X43771Y-46862D02*
X43996Y-47086D01*
X43996Y-47086D02*
X44015Y-47086D01*
X48385Y-31240D02*
X48484Y-31338D01*
X47185Y-31240D02*
X48385Y-31240D01*
X47027Y-31082D02*
X47185Y-31240D01*
X46811Y-31082D02*
X47027Y-31082D01*
X46594Y-31299D02*
X46811Y-31082D01*
X46023Y-31299D02*
X46594Y-31299D01*
X45925Y-31200D02*
X46023Y-31299D01*
X43769Y-32415D02*
X43769Y-32883D01*
X43769Y-32883D02*
X43582Y-33070D01*
X43769Y-32415D02*
X43769Y-32883D01*
X48385Y-31240D02*
X48484Y-31338D01*
X47185Y-31240D02*
X48385Y-31240D01*
X47027Y-31082D02*
X47185Y-31240D01*
X46811Y-31082D02*
X47027Y-31082D01*
X46594Y-31299D02*
X46811Y-31082D01*
X46023Y-31299D02*
X46594Y-31299D01*
X45925Y-31200D02*
X46023Y-31299D01*
X43769Y-32883D02*
X43582Y-33070D01*
X43769Y-42336D02*
X43769Y-42804D01*
X48385Y-41161D02*
X48484Y-41259D01*
X47185Y-41161D02*
X48385Y-41161D01*
X47027Y-41003D02*
X47185Y-41161D01*
X46811Y-41003D02*
X47027Y-41003D01*
X46594Y-41220D02*
X46811Y-41003D01*
X46023Y-41220D02*
X46594Y-41220D01*
X45925Y-41122D02*
X46023Y-41220D01*
X43769Y-42804D02*
X43582Y-42992D01*
X46397Y-37814D02*
X46397Y-37736D01*
X55157Y-36673D02*
X55511Y-37027D01*
X52598Y-36673D02*
X55157Y-36673D01*
X52007Y-37263D02*
X52598Y-36673D01*
X49192Y-37263D02*
X52007Y-37263D01*
X49035Y-37421D02*
X49192Y-37263D01*
X46712Y-37421D02*
X49035Y-37421D01*
X46397Y-37736D02*
X46712Y-37421D01*
X42843Y-34143D02*
X42351Y-34143D01*
X42952Y-34251D02*
X42843Y-34143D01*
X46397Y-37814D02*
X46397Y-37736D01*
X55157Y-36673D02*
X55511Y-37027D01*
X52598Y-36673D02*
X55157Y-36673D01*
X52007Y-37263D02*
X52598Y-36673D01*
X49192Y-37263D02*
X52007Y-37263D01*
X49035Y-37421D02*
X49192Y-37263D01*
X46712Y-37421D02*
X49035Y-37421D01*
X46397Y-37736D02*
X46712Y-37421D01*
X42843Y-34143D02*
X42351Y-34143D01*
X42952Y-34251D02*
X42843Y-34143D01*
X46397Y-47736D02*
X46397Y-47657D01*
X55157Y-46594D02*
X55511Y-46948D01*
X52598Y-46594D02*
X55157Y-46594D01*
X52007Y-47185D02*
X52598Y-46594D01*
X49192Y-47185D02*
X52007Y-47185D01*
X49035Y-47342D02*
X49192Y-47185D01*
X46712Y-47342D02*
X49035Y-47342D01*
X46397Y-47657D02*
X46712Y-47342D01*
X42843Y-44064D02*
X42351Y-44064D01*
X42952Y-44173D02*
X42843Y-44064D01*
X43779Y-47362D02*
X43622Y-47204D01*
X43622Y-47204D02*
X43228Y-47204D01*
X43228Y-47204D02*
X43110Y-47086D01*
X43110Y-47086D02*
X43110Y-46830D01*
X43110Y-46830D02*
X42716Y-46437D01*
X42716Y-46437D02*
X42716Y-45807D01*
X42716Y-45807D02*
X43070Y-45452D01*
X43070Y-45452D02*
X43070Y-45078D01*
X43070Y-45078D02*
X43267Y-44881D01*
X43267Y-44881D02*
X43267Y-44625D01*
X43267Y-44625D02*
X43110Y-44468D01*
X42351Y-34459D02*
X41742Y-34459D01*
X41742Y-34459D02*
X41732Y-34448D01*
X43110Y-34547D02*
X42440Y-34547D01*
X42351Y-34459D02*
X42440Y-34547D01*
X45181Y-37598D02*
X45397Y-37814D01*
X42351Y-34459D02*
X41742Y-34459D01*
X41742Y-34459D02*
X41732Y-34448D01*
X43110Y-34547D02*
X42440Y-34547D01*
X42351Y-34459D02*
X42440Y-34547D01*
X45181Y-37598D02*
X45397Y-37814D01*
X42351Y-44380D02*
X41742Y-44380D01*
X41742Y-44380D02*
X41732Y-44370D01*
X43110Y-44468D02*
X42440Y-44468D01*
X42351Y-44380D02*
X42440Y-44468D01*
X44690Y-47501D02*
X44690Y-47505D01*
X44690Y-47501D02*
X44547Y-47362D01*
X44547Y-47362D02*
X43779Y-47362D01*
X45181Y-47519D02*
X45397Y-47736D01*
X44704Y-47519D02*
X45181Y-47519D01*
X44690Y-47505D02*
X44704Y-47519D01*
X44690Y-37580D02*
X44690Y-37584D01*
X44690Y-37580D02*
X44547Y-37440D01*
X44547Y-37440D02*
X43779Y-37440D01*
X43779Y-37440D02*
X43622Y-37283D01*
X43622Y-37283D02*
X43228Y-37283D01*
X43228Y-37283D02*
X43110Y-37165D01*
X43110Y-37165D02*
X43110Y-36909D01*
X43110Y-36909D02*
X42716Y-36515D01*
X42716Y-36515D02*
X42716Y-35885D01*
X42716Y-35885D02*
X43070Y-35531D01*
X43070Y-35531D02*
X43070Y-35157D01*
X43070Y-35157D02*
X43267Y-34960D01*
X43267Y-34960D02*
X43267Y-34704D01*
X43267Y-34704D02*
X43110Y-34547D01*
X44704Y-37598D02*
X45181Y-37598D01*
X44690Y-37584D02*
X44704Y-37598D01*
X44690Y-37580D02*
X44690Y-37584D01*
X44690Y-37580D02*
X44547Y-37440D01*
X44547Y-37440D02*
X43779Y-37440D01*
X43779Y-37440D02*
X43622Y-37283D01*
X43622Y-37283D02*
X43228Y-37283D01*
X43228Y-37283D02*
X43110Y-37165D01*
X43110Y-37165D02*
X43110Y-36909D01*
X43110Y-36909D02*
X42716Y-36515D01*
X42716Y-36515D02*
X42716Y-35885D01*
X42716Y-35885D02*
X43070Y-35531D01*
X43070Y-35531D02*
X43070Y-35157D01*
X43070Y-35157D02*
X43267Y-34960D01*
X43267Y-34960D02*
X43267Y-34704D01*
X43267Y-34704D02*
X43110Y-34547D01*
X44704Y-37598D02*
X45181Y-37598D01*
X44690Y-37584D02*
X44704Y-37598D01*
X44397Y-47736D02*
X43937Y-47736D01*
X43562Y-47362D02*
X42972Y-47362D01*
X43937Y-47736D02*
X43562Y-47362D01*
X42972Y-47362D02*
X42834Y-47224D01*
X44397Y-37814D02*
X43937Y-37814D01*
X42992Y-34822D02*
X42942Y-34773D01*
X42942Y-34773D02*
X42351Y-34773D01*
X42834Y-37303D02*
X42834Y-37007D01*
X42972Y-37440D02*
X42834Y-37303D01*
X43562Y-37440D02*
X42972Y-37440D01*
X43937Y-37814D02*
X43562Y-37440D01*
X44397Y-37814D02*
X43937Y-37814D01*
X42992Y-34822D02*
X42942Y-34773D01*
X42942Y-34773D02*
X42351Y-34773D01*
X42834Y-37303D02*
X42834Y-37007D01*
X42972Y-37440D02*
X42834Y-37303D01*
X43562Y-37440D02*
X42972Y-37440D01*
X43937Y-37814D02*
X43562Y-37440D01*
X42992Y-44744D02*
X42942Y-44694D01*
X42942Y-44694D02*
X42351Y-44694D01*
X42834Y-47224D02*
X42834Y-46929D01*
M02*
