G04 (created by PCBNEW (2013-jul-07)-stable) date Sun 04 Jan 2015 08:40:56 PM MST*
%MOIN*%
G04 Gerber Fmt 3.4, Leading zero omitted, Abs format*
%FSLAX34Y34*%
G01*
G70*
G90*
G04 APERTURE LIST*
%ADD10C,0.00393701*%
%ADD11R,0.033448X0.094448*%
%ADD12R,0.094448X0.033448*%
%ADD13R,0.047248X0.055148*%
%ADD14R,0.040748X0.060748*%
%ADD15R,0.075748X0.075748*%
%ADD16C,0.075748*%
%ADD17R,0.095748X0.095748*%
%ADD18C,0.095748*%
%ADD19R,0.060748X0.040748*%
%ADD20R,0.070748X0.070748*%
%ADD21C,0.070748*%
%ADD22C,0.01*%
G04 APERTURE END LIST*
G54D10*
G54D11*
X45344Y-32415D03*
X45029Y-32415D03*
X44714Y-32415D03*
X44399Y-32415D03*
X44084Y-32415D03*
X43769Y-32415D03*
X43454Y-32415D03*
X43139Y-32415D03*
X43141Y-36181D03*
X45351Y-36181D03*
X45031Y-36181D03*
X44711Y-36181D03*
X44401Y-36181D03*
X44081Y-36181D03*
X43771Y-36181D03*
X43451Y-36181D03*
G54D12*
X42351Y-33199D03*
X42351Y-33513D03*
X42351Y-33829D03*
X42351Y-34143D03*
X42351Y-34459D03*
X42351Y-34773D03*
X42351Y-35089D03*
X42351Y-35403D03*
X46131Y-33201D03*
X46131Y-33511D03*
X46131Y-33831D03*
X46131Y-34141D03*
X46131Y-34451D03*
X46131Y-34771D03*
X46131Y-35091D03*
X46131Y-35411D03*
G54D13*
X47893Y-35236D03*
X48268Y-34370D03*
X47518Y-34370D03*
X49685Y-35236D03*
X50060Y-34370D03*
X49310Y-34370D03*
X51496Y-35236D03*
X51871Y-34370D03*
X51121Y-34370D03*
G54D14*
X51796Y-33799D03*
X51196Y-33799D03*
X49985Y-33799D03*
X49385Y-33799D03*
X48193Y-33799D03*
X47593Y-33799D03*
G54D15*
X56094Y-36795D03*
G54D16*
X56094Y-35795D03*
X57094Y-36795D03*
X57094Y-35795D03*
X58094Y-36795D03*
X58094Y-35795D03*
G54D15*
X40417Y-30755D03*
G54D16*
X40417Y-29755D03*
X41417Y-30755D03*
X41417Y-29755D03*
X42417Y-30755D03*
X42417Y-29755D03*
X43417Y-30755D03*
X43417Y-29755D03*
X44417Y-30755D03*
X44417Y-29755D03*
X45417Y-30755D03*
X45417Y-29755D03*
X46417Y-30755D03*
X46417Y-29755D03*
X47417Y-30755D03*
X47417Y-29755D03*
X48417Y-30755D03*
X48417Y-29755D03*
X49417Y-30755D03*
X49417Y-29755D03*
X50417Y-30755D03*
X50417Y-29755D03*
X51417Y-30755D03*
X51417Y-29755D03*
X52417Y-30755D03*
X52417Y-29755D03*
G54D17*
X46594Y-36295D03*
G54D18*
X47594Y-36295D03*
X48594Y-36295D03*
X49594Y-36295D03*
X49594Y-32295D03*
X48594Y-32295D03*
X50594Y-36295D03*
X51594Y-32295D03*
X51594Y-36295D03*
X50594Y-32295D03*
X47594Y-32295D03*
X46594Y-32295D03*
G54D19*
X41889Y-32170D03*
X41889Y-31570D03*
X41299Y-32170D03*
X41299Y-31570D03*
X52460Y-35654D03*
X52460Y-35054D03*
X53051Y-35654D03*
X53051Y-35054D03*
G54D20*
X48389Y-37814D03*
G54D21*
X49389Y-37814D03*
X50389Y-37814D03*
X51389Y-37814D03*
X52389Y-37814D03*
X53389Y-37814D03*
X54389Y-37814D03*
X55389Y-37814D03*
G54D20*
X40397Y-37814D03*
G54D21*
X41397Y-37814D03*
X42397Y-37814D03*
X43397Y-37814D03*
X44397Y-37814D03*
X45397Y-37814D03*
X46397Y-37814D03*
X47397Y-37814D03*
G54D11*
X45344Y-32415D03*
X45029Y-32415D03*
X44714Y-32415D03*
X44399Y-32415D03*
X44084Y-32415D03*
X43769Y-32415D03*
X43454Y-32415D03*
X43139Y-32415D03*
X43141Y-36181D03*
X45351Y-36181D03*
X45031Y-36181D03*
X44711Y-36181D03*
X44401Y-36181D03*
X44081Y-36181D03*
X43771Y-36181D03*
X43451Y-36181D03*
G54D12*
X42351Y-33199D03*
X42351Y-33513D03*
X42351Y-33829D03*
X42351Y-34143D03*
X42351Y-34459D03*
X42351Y-34773D03*
X42351Y-35089D03*
X42351Y-35403D03*
X46131Y-33201D03*
X46131Y-33511D03*
X46131Y-33831D03*
X46131Y-34141D03*
X46131Y-34451D03*
X46131Y-34771D03*
X46131Y-35091D03*
X46131Y-35411D03*
G54D13*
X47893Y-35236D03*
X48268Y-34370D03*
X47518Y-34370D03*
X49685Y-35236D03*
X50060Y-34370D03*
X49310Y-34370D03*
X51496Y-35236D03*
X51871Y-34370D03*
X51121Y-34370D03*
G54D14*
X51796Y-33799D03*
X51196Y-33799D03*
X49985Y-33799D03*
X49385Y-33799D03*
X48193Y-33799D03*
X47593Y-33799D03*
G54D15*
X56094Y-36795D03*
G54D16*
X56094Y-35795D03*
X57094Y-36795D03*
X57094Y-35795D03*
X58094Y-36795D03*
X58094Y-35795D03*
G54D15*
X40417Y-30755D03*
G54D16*
X40417Y-29755D03*
X41417Y-30755D03*
X41417Y-29755D03*
X42417Y-30755D03*
X42417Y-29755D03*
X43417Y-30755D03*
X43417Y-29755D03*
X44417Y-30755D03*
X44417Y-29755D03*
X45417Y-30755D03*
X45417Y-29755D03*
X46417Y-30755D03*
X46417Y-29755D03*
X47417Y-30755D03*
X47417Y-29755D03*
X48417Y-30755D03*
X48417Y-29755D03*
X49417Y-30755D03*
X49417Y-29755D03*
X50417Y-30755D03*
X50417Y-29755D03*
X51417Y-30755D03*
X51417Y-29755D03*
X52417Y-30755D03*
X52417Y-29755D03*
G54D17*
X46594Y-36295D03*
G54D18*
X47594Y-36295D03*
X48594Y-36295D03*
X49594Y-36295D03*
X49594Y-32295D03*
X48594Y-32295D03*
X50594Y-36295D03*
X51594Y-32295D03*
X51594Y-36295D03*
X50594Y-32295D03*
X47594Y-32295D03*
X46594Y-32295D03*
G54D19*
X41889Y-32170D03*
X41889Y-31570D03*
X41299Y-32170D03*
X41299Y-31570D03*
X52460Y-35654D03*
X52460Y-35054D03*
X53051Y-35654D03*
X53051Y-35054D03*
G54D20*
X48389Y-37814D03*
G54D21*
X49389Y-37814D03*
X50389Y-37814D03*
X51389Y-37814D03*
X52389Y-37814D03*
X53389Y-37814D03*
X54389Y-37814D03*
X55389Y-37814D03*
G54D20*
X40397Y-37814D03*
G54D21*
X41397Y-37814D03*
X42397Y-37814D03*
X43397Y-37814D03*
X44397Y-37814D03*
X45397Y-37814D03*
X46397Y-37814D03*
X47397Y-37814D03*
G54D11*
X45344Y-42336D03*
X45029Y-42336D03*
X44714Y-42336D03*
X44399Y-42336D03*
X44084Y-42336D03*
X43769Y-42336D03*
X43454Y-42336D03*
X43139Y-42336D03*
X43141Y-46102D03*
X45351Y-46102D03*
X45031Y-46102D03*
X44711Y-46102D03*
X44401Y-46102D03*
X44081Y-46102D03*
X43771Y-46102D03*
X43451Y-46102D03*
G54D12*
X42351Y-43120D03*
X42351Y-43434D03*
X42351Y-43750D03*
X42351Y-44064D03*
X42351Y-44380D03*
X42351Y-44694D03*
X42351Y-45010D03*
X42351Y-45324D03*
X46131Y-43122D03*
X46131Y-43432D03*
X46131Y-43752D03*
X46131Y-44062D03*
X46131Y-44372D03*
X46131Y-44692D03*
X46131Y-45012D03*
X46131Y-45332D03*
G54D13*
X47893Y-45157D03*
X48268Y-44291D03*
X47518Y-44291D03*
X49685Y-45157D03*
X50060Y-44291D03*
X49310Y-44291D03*
X51496Y-45157D03*
X51871Y-44291D03*
X51121Y-44291D03*
G54D14*
X51796Y-43720D03*
X51196Y-43720D03*
X49985Y-43720D03*
X49385Y-43720D03*
X48193Y-43720D03*
X47593Y-43720D03*
G54D15*
X56094Y-46716D03*
G54D16*
X56094Y-45716D03*
X57094Y-46716D03*
X57094Y-45716D03*
X58094Y-46716D03*
X58094Y-45716D03*
G54D15*
X40417Y-40677D03*
G54D16*
X40417Y-39677D03*
X41417Y-40677D03*
X41417Y-39677D03*
X42417Y-40677D03*
X42417Y-39677D03*
X43417Y-40677D03*
X43417Y-39677D03*
X44417Y-40677D03*
X44417Y-39677D03*
X45417Y-40677D03*
X45417Y-39677D03*
X46417Y-40677D03*
X46417Y-39677D03*
X47417Y-40677D03*
X47417Y-39677D03*
X48417Y-40677D03*
X48417Y-39677D03*
X49417Y-40677D03*
X49417Y-39677D03*
X50417Y-40677D03*
X50417Y-39677D03*
X51417Y-40677D03*
X51417Y-39677D03*
X52417Y-40677D03*
X52417Y-39677D03*
G54D17*
X46594Y-46216D03*
G54D18*
X47594Y-46216D03*
X48594Y-46216D03*
X49594Y-46216D03*
X49594Y-42216D03*
X48594Y-42216D03*
X50594Y-46216D03*
X51594Y-42216D03*
X51594Y-46216D03*
X50594Y-42216D03*
X47594Y-42216D03*
X46594Y-42216D03*
G54D19*
X41889Y-42091D03*
X41889Y-41491D03*
X41299Y-42091D03*
X41299Y-41491D03*
X52460Y-45575D03*
X52460Y-44975D03*
X53051Y-45575D03*
X53051Y-44975D03*
G54D20*
X48389Y-47736D03*
G54D21*
X49389Y-47736D03*
X50389Y-47736D03*
X51389Y-47736D03*
X52389Y-47736D03*
X53389Y-47736D03*
X54389Y-47736D03*
X55389Y-47736D03*
G54D20*
X40397Y-47736D03*
G54D21*
X41397Y-47736D03*
X42397Y-47736D03*
X43397Y-47736D03*
X44397Y-47736D03*
X45397Y-47736D03*
X46397Y-47736D03*
X47397Y-47736D03*
G54D10*
G36*
X58453Y-35383D02*
X57853Y-35383D01*
X57666Y-35569D01*
X57666Y-36406D01*
X57530Y-36406D01*
X57530Y-36191D01*
X57530Y-35569D01*
X57343Y-35383D01*
X56908Y-35383D01*
X56721Y-35569D01*
X56721Y-36191D01*
X57530Y-36191D01*
X57530Y-36406D01*
X57480Y-36406D01*
X56506Y-36406D01*
X56506Y-36004D01*
X56506Y-35569D01*
X56319Y-35383D01*
X55884Y-35383D01*
X55698Y-35569D01*
X55698Y-36191D01*
X56319Y-36191D01*
X56506Y-36004D01*
X56506Y-36406D01*
X56456Y-36406D01*
X55698Y-36406D01*
X55698Y-37430D01*
X53435Y-37430D01*
X53435Y-35876D01*
X53435Y-35433D01*
X53435Y-34753D01*
X52175Y-34753D01*
X52175Y-34695D01*
X52175Y-34231D01*
X52097Y-34152D01*
X52097Y-32540D01*
X52097Y-32026D01*
X51925Y-31854D01*
X51831Y-31761D01*
X49349Y-31761D01*
X49162Y-31947D01*
X49162Y-31997D01*
X49105Y-31997D01*
X49083Y-31997D01*
X48997Y-31997D01*
X48839Y-31839D01*
X46278Y-31839D01*
X46091Y-32026D01*
X46091Y-32540D01*
X46357Y-32805D01*
X46614Y-32805D01*
X46792Y-32805D01*
X47028Y-32569D01*
X47065Y-32569D01*
X47223Y-32727D01*
X47302Y-32727D01*
X47380Y-32805D01*
X48346Y-32805D01*
X48839Y-32805D01*
X49094Y-32551D01*
X49349Y-32805D01*
X49784Y-32805D01*
X50020Y-32569D01*
X50136Y-32569D01*
X50372Y-32805D01*
X50472Y-32805D01*
X50808Y-32805D01*
X51044Y-32569D01*
X51160Y-32569D01*
X51396Y-32805D01*
X51831Y-32805D01*
X52097Y-32540D01*
X52097Y-34152D01*
X52082Y-34137D01*
X52018Y-34073D01*
X52018Y-33493D01*
X51603Y-33493D01*
X51603Y-34695D01*
X52175Y-34695D01*
X52175Y-34753D01*
X52154Y-34753D01*
X52154Y-34960D01*
X52154Y-35876D01*
X53435Y-35876D01*
X53435Y-37430D01*
X53385Y-37430D01*
X52125Y-37430D01*
X52097Y-37430D01*
X52097Y-36821D01*
X52097Y-35776D01*
X51782Y-35776D01*
X51782Y-35561D01*
X51782Y-34910D01*
X51388Y-34910D01*
X51388Y-34695D01*
X51388Y-33493D01*
X50894Y-33493D01*
X50894Y-34695D01*
X51388Y-34695D01*
X51388Y-34910D01*
X51338Y-34910D01*
X51209Y-34910D01*
X51209Y-35561D01*
X51782Y-35561D01*
X51782Y-35776D01*
X51732Y-35776D01*
X50364Y-35776D01*
X50364Y-34695D01*
X50364Y-34231D01*
X50207Y-34073D01*
X50207Y-33493D01*
X49792Y-33493D01*
X49792Y-34695D01*
X50364Y-34695D01*
X50364Y-35776D01*
X50314Y-35776D01*
X49971Y-35776D01*
X49971Y-35561D01*
X49971Y-34910D01*
X49656Y-34910D01*
X49656Y-34115D01*
X49656Y-33493D01*
X49083Y-33493D01*
X49083Y-34073D01*
X49005Y-34152D01*
X49005Y-34695D01*
X49577Y-34695D01*
X49577Y-34193D01*
X49656Y-34115D01*
X49656Y-34910D01*
X49606Y-34910D01*
X49398Y-34910D01*
X49398Y-35561D01*
X49971Y-35561D01*
X49971Y-35776D01*
X49921Y-35776D01*
X48553Y-35776D01*
X48553Y-34695D01*
X48553Y-34152D01*
X48475Y-34073D01*
X48475Y-33493D01*
X47981Y-33493D01*
X47981Y-34695D01*
X48553Y-34695D01*
X48553Y-35776D01*
X48503Y-35776D01*
X48160Y-35776D01*
X48160Y-35561D01*
X48160Y-34910D01*
X47845Y-34910D01*
X47845Y-34115D01*
X47845Y-33493D01*
X47380Y-33493D01*
X47272Y-33601D01*
X47272Y-34695D01*
X47766Y-34695D01*
X47766Y-34193D01*
X47845Y-34115D01*
X47845Y-34910D01*
X47795Y-34910D01*
X47666Y-34910D01*
X47666Y-35561D01*
X48160Y-35561D01*
X48160Y-35776D01*
X48110Y-35776D01*
X47716Y-35776D01*
X47322Y-35776D01*
X46664Y-35776D01*
X46664Y-35640D01*
X46664Y-33020D01*
X45619Y-33020D01*
X45619Y-35640D01*
X46141Y-35640D01*
X46664Y-35640D01*
X46664Y-35776D01*
X46614Y-35776D01*
X46091Y-35776D01*
X46091Y-36614D01*
X46091Y-36821D01*
X52097Y-36821D01*
X52097Y-37430D01*
X52047Y-37430D01*
X50215Y-37430D01*
X50028Y-37617D01*
X50028Y-37745D01*
X49784Y-37745D01*
X49735Y-37695D01*
X49735Y-37617D01*
X49641Y-37523D01*
X49548Y-37430D01*
X47981Y-37430D01*
X47981Y-37559D01*
X47981Y-38089D01*
X47766Y-38304D01*
X47766Y-38052D01*
X47766Y-37617D01*
X47579Y-37430D01*
X47223Y-37430D01*
X47036Y-37617D01*
X47036Y-38052D01*
X47223Y-38238D01*
X47579Y-38238D01*
X47766Y-38052D01*
X47766Y-38304D01*
X47695Y-38375D01*
X46821Y-38375D01*
X46821Y-37973D01*
X46821Y-37695D01*
X46728Y-37602D01*
X46556Y-37430D01*
X46278Y-37430D01*
X46106Y-37602D01*
X46012Y-37695D01*
X46012Y-37973D01*
X46199Y-38160D01*
X46634Y-38160D01*
X46821Y-37973D01*
X46821Y-38375D01*
X46771Y-38375D01*
X46220Y-38375D01*
X45798Y-38375D01*
X45798Y-37973D01*
X45798Y-37695D01*
X45561Y-37459D01*
X45561Y-36664D01*
X45561Y-35698D01*
X45561Y-32963D01*
X45561Y-31918D01*
X42942Y-31918D01*
X42942Y-32963D01*
X45561Y-32963D01*
X45561Y-35698D01*
X42942Y-35698D01*
X42942Y-36664D01*
X44015Y-36664D01*
X44094Y-36664D01*
X44173Y-36664D01*
X45561Y-36664D01*
X45561Y-37459D01*
X45532Y-37430D01*
X45254Y-37430D01*
X45176Y-37509D01*
X45068Y-37509D01*
X45068Y-38052D01*
X45176Y-38160D01*
X45254Y-38160D01*
X45333Y-38238D01*
X45532Y-38238D01*
X45625Y-38145D01*
X45798Y-37973D01*
X45798Y-38375D01*
X45748Y-38375D01*
X45296Y-38375D01*
X44981Y-38060D01*
X44774Y-38060D01*
X44774Y-37695D01*
X44508Y-37430D01*
X44231Y-37430D01*
X44044Y-37617D01*
X44044Y-37981D01*
X43829Y-37981D01*
X43829Y-37695D01*
X43564Y-37430D01*
X43207Y-37430D01*
X43020Y-37617D01*
X43020Y-37910D01*
X42884Y-37774D01*
X42884Y-35640D01*
X42884Y-32942D01*
X42204Y-32942D01*
X41839Y-32942D01*
X41839Y-33070D01*
X41839Y-35640D01*
X42884Y-35640D01*
X42884Y-37774D01*
X42870Y-37759D01*
X42791Y-37681D01*
X42540Y-37430D01*
X41889Y-37430D01*
X41152Y-37430D01*
X41152Y-37107D01*
X41388Y-36871D01*
X41388Y-32412D01*
X42254Y-32412D01*
X42254Y-31396D01*
X42146Y-31288D01*
X40973Y-31288D01*
X40973Y-32154D01*
X40364Y-32154D01*
X40364Y-31152D01*
X42125Y-31152D01*
X44587Y-31152D01*
X44666Y-31073D01*
X45097Y-31073D01*
X45176Y-31152D01*
X45690Y-31152D01*
X45768Y-31073D01*
X46121Y-31073D01*
X46199Y-31152D01*
X46634Y-31152D01*
X46792Y-30994D01*
X47065Y-30994D01*
X47223Y-31152D01*
X48603Y-31152D01*
X48760Y-30994D01*
X49034Y-30994D01*
X49191Y-31152D01*
X53650Y-31152D01*
X53650Y-31889D01*
X53650Y-33543D01*
X53650Y-34853D01*
X58453Y-34853D01*
X58453Y-35383D01*
X58453Y-35383D01*
G37*
G54D22*
X58453Y-35383D02*
X57853Y-35383D01*
X57666Y-35569D01*
X57666Y-36406D01*
X57530Y-36406D01*
X57530Y-36191D01*
X57530Y-35569D01*
X57343Y-35383D01*
X56908Y-35383D01*
X56721Y-35569D01*
X56721Y-36191D01*
X57530Y-36191D01*
X57530Y-36406D01*
X57480Y-36406D01*
X56506Y-36406D01*
X56506Y-36004D01*
X56506Y-35569D01*
X56319Y-35383D01*
X55884Y-35383D01*
X55698Y-35569D01*
X55698Y-36191D01*
X56319Y-36191D01*
X56506Y-36004D01*
X56506Y-36406D01*
X56456Y-36406D01*
X55698Y-36406D01*
X55698Y-37430D01*
X53435Y-37430D01*
X53435Y-35876D01*
X53435Y-35433D01*
X53435Y-34753D01*
X52175Y-34753D01*
X52175Y-34695D01*
X52175Y-34231D01*
X52097Y-34152D01*
X52097Y-32540D01*
X52097Y-32026D01*
X51925Y-31854D01*
X51831Y-31761D01*
X49349Y-31761D01*
X49162Y-31947D01*
X49162Y-31997D01*
X49105Y-31997D01*
X49083Y-31997D01*
X48997Y-31997D01*
X48839Y-31839D01*
X46278Y-31839D01*
X46091Y-32026D01*
X46091Y-32540D01*
X46357Y-32805D01*
X46614Y-32805D01*
X46792Y-32805D01*
X47028Y-32569D01*
X47065Y-32569D01*
X47223Y-32727D01*
X47302Y-32727D01*
X47380Y-32805D01*
X48346Y-32805D01*
X48839Y-32805D01*
X49094Y-32551D01*
X49349Y-32805D01*
X49784Y-32805D01*
X50020Y-32569D01*
X50136Y-32569D01*
X50372Y-32805D01*
X50472Y-32805D01*
X50808Y-32805D01*
X51044Y-32569D01*
X51160Y-32569D01*
X51396Y-32805D01*
X51831Y-32805D01*
X52097Y-32540D01*
X52097Y-34152D01*
X52082Y-34137D01*
X52018Y-34073D01*
X52018Y-33493D01*
X51603Y-33493D01*
X51603Y-34695D01*
X52175Y-34695D01*
X52175Y-34753D01*
X52154Y-34753D01*
X52154Y-34960D01*
X52154Y-35876D01*
X53435Y-35876D01*
X53435Y-37430D01*
X53385Y-37430D01*
X52125Y-37430D01*
X52097Y-37430D01*
X52097Y-36821D01*
X52097Y-35776D01*
X51782Y-35776D01*
X51782Y-35561D01*
X51782Y-34910D01*
X51388Y-34910D01*
X51388Y-34695D01*
X51388Y-33493D01*
X50894Y-33493D01*
X50894Y-34695D01*
X51388Y-34695D01*
X51388Y-34910D01*
X51338Y-34910D01*
X51209Y-34910D01*
X51209Y-35561D01*
X51782Y-35561D01*
X51782Y-35776D01*
X51732Y-35776D01*
X50364Y-35776D01*
X50364Y-34695D01*
X50364Y-34231D01*
X50207Y-34073D01*
X50207Y-33493D01*
X49792Y-33493D01*
X49792Y-34695D01*
X50364Y-34695D01*
X50364Y-35776D01*
X50314Y-35776D01*
X49971Y-35776D01*
X49971Y-35561D01*
X49971Y-34910D01*
X49656Y-34910D01*
X49656Y-34115D01*
X49656Y-33493D01*
X49083Y-33493D01*
X49083Y-34073D01*
X49005Y-34152D01*
X49005Y-34695D01*
X49577Y-34695D01*
X49577Y-34193D01*
X49656Y-34115D01*
X49656Y-34910D01*
X49606Y-34910D01*
X49398Y-34910D01*
X49398Y-35561D01*
X49971Y-35561D01*
X49971Y-35776D01*
X49921Y-35776D01*
X48553Y-35776D01*
X48553Y-34695D01*
X48553Y-34152D01*
X48475Y-34073D01*
X48475Y-33493D01*
X47981Y-33493D01*
X47981Y-34695D01*
X48553Y-34695D01*
X48553Y-35776D01*
X48503Y-35776D01*
X48160Y-35776D01*
X48160Y-35561D01*
X48160Y-34910D01*
X47845Y-34910D01*
X47845Y-34115D01*
X47845Y-33493D01*
X47380Y-33493D01*
X47272Y-33601D01*
X47272Y-34695D01*
X47766Y-34695D01*
X47766Y-34193D01*
X47845Y-34115D01*
X47845Y-34910D01*
X47795Y-34910D01*
X47666Y-34910D01*
X47666Y-35561D01*
X48160Y-35561D01*
X48160Y-35776D01*
X48110Y-35776D01*
X47716Y-35776D01*
X47322Y-35776D01*
X46664Y-35776D01*
X46664Y-35640D01*
X46664Y-33020D01*
X45619Y-33020D01*
X45619Y-35640D01*
X46141Y-35640D01*
X46664Y-35640D01*
X46664Y-35776D01*
X46614Y-35776D01*
X46091Y-35776D01*
X46091Y-36614D01*
X46091Y-36821D01*
X52097Y-36821D01*
X52097Y-37430D01*
X52047Y-37430D01*
X50215Y-37430D01*
X50028Y-37617D01*
X50028Y-37745D01*
X49784Y-37745D01*
X49735Y-37695D01*
X49735Y-37617D01*
X49641Y-37523D01*
X49548Y-37430D01*
X47981Y-37430D01*
X47981Y-37559D01*
X47981Y-38089D01*
X47766Y-38304D01*
X47766Y-38052D01*
X47766Y-37617D01*
X47579Y-37430D01*
X47223Y-37430D01*
X47036Y-37617D01*
X47036Y-38052D01*
X47223Y-38238D01*
X47579Y-38238D01*
X47766Y-38052D01*
X47766Y-38304D01*
X47695Y-38375D01*
X46821Y-38375D01*
X46821Y-37973D01*
X46821Y-37695D01*
X46728Y-37602D01*
X46556Y-37430D01*
X46278Y-37430D01*
X46106Y-37602D01*
X46012Y-37695D01*
X46012Y-37973D01*
X46199Y-38160D01*
X46634Y-38160D01*
X46821Y-37973D01*
X46821Y-38375D01*
X46771Y-38375D01*
X46220Y-38375D01*
X45798Y-38375D01*
X45798Y-37973D01*
X45798Y-37695D01*
X45561Y-37459D01*
X45561Y-36664D01*
X45561Y-35698D01*
X45561Y-32963D01*
X45561Y-31918D01*
X42942Y-31918D01*
X42942Y-32963D01*
X45561Y-32963D01*
X45561Y-35698D01*
X42942Y-35698D01*
X42942Y-36664D01*
X44015Y-36664D01*
X44094Y-36664D01*
X44173Y-36664D01*
X45561Y-36664D01*
X45561Y-37459D01*
X45532Y-37430D01*
X45254Y-37430D01*
X45176Y-37509D01*
X45068Y-37509D01*
X45068Y-38052D01*
X45176Y-38160D01*
X45254Y-38160D01*
X45333Y-38238D01*
X45532Y-38238D01*
X45625Y-38145D01*
X45798Y-37973D01*
X45798Y-38375D01*
X45748Y-38375D01*
X45296Y-38375D01*
X44981Y-38060D01*
X44774Y-38060D01*
X44774Y-37695D01*
X44508Y-37430D01*
X44231Y-37430D01*
X44044Y-37617D01*
X44044Y-37981D01*
X43829Y-37981D01*
X43829Y-37695D01*
X43564Y-37430D01*
X43207Y-37430D01*
X43020Y-37617D01*
X43020Y-37910D01*
X42884Y-37774D01*
X42884Y-35640D01*
X42884Y-32942D01*
X42204Y-32942D01*
X41839Y-32942D01*
X41839Y-33070D01*
X41839Y-35640D01*
X42884Y-35640D01*
X42884Y-37774D01*
X42870Y-37759D01*
X42791Y-37681D01*
X42540Y-37430D01*
X41889Y-37430D01*
X41152Y-37430D01*
X41152Y-37107D01*
X41388Y-36871D01*
X41388Y-32412D01*
X42254Y-32412D01*
X42254Y-31396D01*
X42146Y-31288D01*
X40973Y-31288D01*
X40973Y-32154D01*
X40364Y-32154D01*
X40364Y-31152D01*
X42125Y-31152D01*
X44587Y-31152D01*
X44666Y-31073D01*
X45097Y-31073D01*
X45176Y-31152D01*
X45690Y-31152D01*
X45768Y-31073D01*
X46121Y-31073D01*
X46199Y-31152D01*
X46634Y-31152D01*
X46792Y-30994D01*
X47065Y-30994D01*
X47223Y-31152D01*
X48603Y-31152D01*
X48760Y-30994D01*
X49034Y-30994D01*
X49191Y-31152D01*
X53650Y-31152D01*
X53650Y-31889D01*
X53650Y-33543D01*
X53650Y-34853D01*
X58453Y-34853D01*
X58453Y-35383D01*
G54D10*
G36*
X58453Y-45304D02*
X57853Y-45304D01*
X57666Y-45491D01*
X57666Y-46327D01*
X57530Y-46327D01*
X57530Y-46112D01*
X57530Y-45491D01*
X57343Y-45304D01*
X56908Y-45304D01*
X56721Y-45491D01*
X56721Y-46112D01*
X57530Y-46112D01*
X57530Y-46327D01*
X57480Y-46327D01*
X56506Y-46327D01*
X56506Y-45926D01*
X56506Y-45491D01*
X56319Y-45304D01*
X55884Y-45304D01*
X55698Y-45491D01*
X55698Y-46112D01*
X56319Y-46112D01*
X56506Y-45926D01*
X56506Y-46327D01*
X56456Y-46327D01*
X55698Y-46327D01*
X55698Y-47351D01*
X53435Y-47351D01*
X53435Y-45798D01*
X53435Y-45354D01*
X53435Y-44674D01*
X52175Y-44674D01*
X52175Y-44616D01*
X52175Y-44152D01*
X52097Y-44073D01*
X52097Y-42461D01*
X52097Y-41947D01*
X51925Y-41775D01*
X51831Y-41682D01*
X49349Y-41682D01*
X49162Y-41869D01*
X49162Y-41918D01*
X49105Y-41918D01*
X49083Y-41918D01*
X48997Y-41918D01*
X48839Y-41761D01*
X46278Y-41761D01*
X46091Y-41947D01*
X46091Y-42461D01*
X46357Y-42727D01*
X46614Y-42727D01*
X46792Y-42727D01*
X47028Y-42490D01*
X47065Y-42490D01*
X47223Y-42648D01*
X47302Y-42648D01*
X47380Y-42727D01*
X48346Y-42727D01*
X48839Y-42727D01*
X49094Y-42472D01*
X49349Y-42727D01*
X49784Y-42727D01*
X50020Y-42490D01*
X50136Y-42490D01*
X50372Y-42727D01*
X50472Y-42727D01*
X50808Y-42727D01*
X51044Y-42490D01*
X51160Y-42490D01*
X51396Y-42727D01*
X51831Y-42727D01*
X52097Y-42461D01*
X52097Y-44073D01*
X52082Y-44059D01*
X52018Y-43995D01*
X52018Y-43414D01*
X51603Y-43414D01*
X51603Y-44616D01*
X52175Y-44616D01*
X52175Y-44674D01*
X52154Y-44674D01*
X52154Y-44881D01*
X52154Y-45798D01*
X53435Y-45798D01*
X53435Y-47351D01*
X53385Y-47351D01*
X52125Y-47351D01*
X52097Y-47351D01*
X52097Y-46742D01*
X52097Y-45698D01*
X51782Y-45698D01*
X51782Y-45483D01*
X51782Y-44831D01*
X51388Y-44831D01*
X51388Y-44616D01*
X51388Y-43414D01*
X50894Y-43414D01*
X50894Y-44616D01*
X51388Y-44616D01*
X51388Y-44831D01*
X51338Y-44831D01*
X51209Y-44831D01*
X51209Y-45483D01*
X51782Y-45483D01*
X51782Y-45698D01*
X51732Y-45698D01*
X50364Y-45698D01*
X50364Y-44616D01*
X50364Y-44152D01*
X50207Y-43995D01*
X50207Y-43414D01*
X49792Y-43414D01*
X49792Y-44616D01*
X50364Y-44616D01*
X50364Y-45698D01*
X50314Y-45698D01*
X49971Y-45698D01*
X49971Y-45483D01*
X49971Y-44831D01*
X49656Y-44831D01*
X49656Y-44036D01*
X49656Y-43414D01*
X49083Y-43414D01*
X49083Y-43995D01*
X49005Y-44073D01*
X49005Y-44616D01*
X49577Y-44616D01*
X49577Y-44115D01*
X49656Y-44036D01*
X49656Y-44831D01*
X49606Y-44831D01*
X49398Y-44831D01*
X49398Y-45483D01*
X49971Y-45483D01*
X49971Y-45698D01*
X49921Y-45698D01*
X48553Y-45698D01*
X48553Y-44616D01*
X48553Y-44073D01*
X48475Y-43995D01*
X48475Y-43414D01*
X47981Y-43414D01*
X47981Y-44616D01*
X48553Y-44616D01*
X48553Y-45698D01*
X48503Y-45698D01*
X48160Y-45698D01*
X48160Y-45483D01*
X48160Y-44831D01*
X47845Y-44831D01*
X47845Y-44036D01*
X47845Y-43414D01*
X47380Y-43414D01*
X47272Y-43522D01*
X47272Y-44616D01*
X47766Y-44616D01*
X47766Y-44115D01*
X47845Y-44036D01*
X47845Y-44831D01*
X47795Y-44831D01*
X47666Y-44831D01*
X47666Y-45483D01*
X48160Y-45483D01*
X48160Y-45698D01*
X48110Y-45698D01*
X47716Y-45698D01*
X47322Y-45698D01*
X46664Y-45698D01*
X46664Y-45561D01*
X46664Y-42942D01*
X45619Y-42942D01*
X45619Y-45561D01*
X46141Y-45561D01*
X46664Y-45561D01*
X46664Y-45698D01*
X46614Y-45698D01*
X46091Y-45698D01*
X46091Y-46535D01*
X46091Y-46742D01*
X52097Y-46742D01*
X52097Y-47351D01*
X52047Y-47351D01*
X50215Y-47351D01*
X50028Y-47538D01*
X50028Y-47666D01*
X49784Y-47666D01*
X49735Y-47617D01*
X49735Y-47538D01*
X49641Y-47444D01*
X49548Y-47351D01*
X47981Y-47351D01*
X47981Y-47480D01*
X47981Y-48010D01*
X47766Y-48225D01*
X47766Y-47973D01*
X47766Y-47538D01*
X47579Y-47351D01*
X47223Y-47351D01*
X47036Y-47538D01*
X47036Y-47973D01*
X47223Y-48160D01*
X47579Y-48160D01*
X47766Y-47973D01*
X47766Y-48225D01*
X47695Y-48296D01*
X46821Y-48296D01*
X46821Y-47894D01*
X46821Y-47617D01*
X46728Y-47523D01*
X46556Y-47351D01*
X46278Y-47351D01*
X46106Y-47523D01*
X46012Y-47617D01*
X46012Y-47894D01*
X46199Y-48081D01*
X46634Y-48081D01*
X46821Y-47894D01*
X46821Y-48296D01*
X46771Y-48296D01*
X46220Y-48296D01*
X45798Y-48296D01*
X45798Y-47894D01*
X45798Y-47617D01*
X45561Y-47380D01*
X45561Y-46585D01*
X45561Y-45619D01*
X45561Y-42884D01*
X45561Y-41839D01*
X42942Y-41839D01*
X42942Y-42884D01*
X45561Y-42884D01*
X45561Y-45619D01*
X42942Y-45619D01*
X42942Y-46585D01*
X44015Y-46585D01*
X44094Y-46585D01*
X44173Y-46585D01*
X45561Y-46585D01*
X45561Y-47380D01*
X45532Y-47351D01*
X45254Y-47351D01*
X45176Y-47430D01*
X45068Y-47430D01*
X45068Y-47973D01*
X45176Y-48081D01*
X45254Y-48081D01*
X45333Y-48160D01*
X45532Y-48160D01*
X45625Y-48066D01*
X45798Y-47894D01*
X45798Y-48296D01*
X45748Y-48296D01*
X45296Y-48296D01*
X44981Y-47981D01*
X44774Y-47981D01*
X44774Y-47617D01*
X44508Y-47351D01*
X44231Y-47351D01*
X44044Y-47538D01*
X44044Y-47902D01*
X43829Y-47902D01*
X43829Y-47617D01*
X43564Y-47351D01*
X43207Y-47351D01*
X43020Y-47538D01*
X43020Y-47832D01*
X42884Y-47695D01*
X42884Y-45561D01*
X42884Y-42863D01*
X42204Y-42863D01*
X41839Y-42863D01*
X41839Y-42992D01*
X41839Y-45561D01*
X42884Y-45561D01*
X42884Y-47695D01*
X42870Y-47681D01*
X42791Y-47602D01*
X42540Y-47351D01*
X41889Y-47351D01*
X41152Y-47351D01*
X41152Y-47028D01*
X41388Y-46792D01*
X41388Y-42333D01*
X42254Y-42333D01*
X42254Y-41317D01*
X42146Y-41209D01*
X40973Y-41209D01*
X40973Y-42075D01*
X40364Y-42075D01*
X40364Y-41073D01*
X42125Y-41073D01*
X44587Y-41073D01*
X44666Y-40994D01*
X45097Y-40994D01*
X45176Y-41073D01*
X45690Y-41073D01*
X45768Y-40994D01*
X46121Y-40994D01*
X46199Y-41073D01*
X46634Y-41073D01*
X46792Y-40916D01*
X47065Y-40916D01*
X47223Y-41073D01*
X48603Y-41073D01*
X48760Y-40916D01*
X49034Y-40916D01*
X49191Y-41073D01*
X53650Y-41073D01*
X53650Y-41811D01*
X53650Y-43464D01*
X53650Y-44774D01*
X58453Y-44774D01*
X58453Y-45304D01*
X58453Y-45304D01*
G37*
G54D22*
X58453Y-45304D02*
X57853Y-45304D01*
X57666Y-45491D01*
X57666Y-46327D01*
X57530Y-46327D01*
X57530Y-46112D01*
X57530Y-45491D01*
X57343Y-45304D01*
X56908Y-45304D01*
X56721Y-45491D01*
X56721Y-46112D01*
X57530Y-46112D01*
X57530Y-46327D01*
X57480Y-46327D01*
X56506Y-46327D01*
X56506Y-45926D01*
X56506Y-45491D01*
X56319Y-45304D01*
X55884Y-45304D01*
X55698Y-45491D01*
X55698Y-46112D01*
X56319Y-46112D01*
X56506Y-45926D01*
X56506Y-46327D01*
X56456Y-46327D01*
X55698Y-46327D01*
X55698Y-47351D01*
X53435Y-47351D01*
X53435Y-45798D01*
X53435Y-45354D01*
X53435Y-44674D01*
X52175Y-44674D01*
X52175Y-44616D01*
X52175Y-44152D01*
X52097Y-44073D01*
X52097Y-42461D01*
X52097Y-41947D01*
X51925Y-41775D01*
X51831Y-41682D01*
X49349Y-41682D01*
X49162Y-41869D01*
X49162Y-41918D01*
X49105Y-41918D01*
X49083Y-41918D01*
X48997Y-41918D01*
X48839Y-41761D01*
X46278Y-41761D01*
X46091Y-41947D01*
X46091Y-42461D01*
X46357Y-42727D01*
X46614Y-42727D01*
X46792Y-42727D01*
X47028Y-42490D01*
X47065Y-42490D01*
X47223Y-42648D01*
X47302Y-42648D01*
X47380Y-42727D01*
X48346Y-42727D01*
X48839Y-42727D01*
X49094Y-42472D01*
X49349Y-42727D01*
X49784Y-42727D01*
X50020Y-42490D01*
X50136Y-42490D01*
X50372Y-42727D01*
X50472Y-42727D01*
X50808Y-42727D01*
X51044Y-42490D01*
X51160Y-42490D01*
X51396Y-42727D01*
X51831Y-42727D01*
X52097Y-42461D01*
X52097Y-44073D01*
X52082Y-44059D01*
X52018Y-43995D01*
X52018Y-43414D01*
X51603Y-43414D01*
X51603Y-44616D01*
X52175Y-44616D01*
X52175Y-44674D01*
X52154Y-44674D01*
X52154Y-44881D01*
X52154Y-45798D01*
X53435Y-45798D01*
X53435Y-47351D01*
X53385Y-47351D01*
X52125Y-47351D01*
X52097Y-47351D01*
X52097Y-46742D01*
X52097Y-45698D01*
X51782Y-45698D01*
X51782Y-45483D01*
X51782Y-44831D01*
X51388Y-44831D01*
X51388Y-44616D01*
X51388Y-43414D01*
X50894Y-43414D01*
X50894Y-44616D01*
X51388Y-44616D01*
X51388Y-44831D01*
X51338Y-44831D01*
X51209Y-44831D01*
X51209Y-45483D01*
X51782Y-45483D01*
X51782Y-45698D01*
X51732Y-45698D01*
X50364Y-45698D01*
X50364Y-44616D01*
X50364Y-44152D01*
X50207Y-43995D01*
X50207Y-43414D01*
X49792Y-43414D01*
X49792Y-44616D01*
X50364Y-44616D01*
X50364Y-45698D01*
X50314Y-45698D01*
X49971Y-45698D01*
X49971Y-45483D01*
X49971Y-44831D01*
X49656Y-44831D01*
X49656Y-44036D01*
X49656Y-43414D01*
X49083Y-43414D01*
X49083Y-43995D01*
X49005Y-44073D01*
X49005Y-44616D01*
X49577Y-44616D01*
X49577Y-44115D01*
X49656Y-44036D01*
X49656Y-44831D01*
X49606Y-44831D01*
X49398Y-44831D01*
X49398Y-45483D01*
X49971Y-45483D01*
X49971Y-45698D01*
X49921Y-45698D01*
X48553Y-45698D01*
X48553Y-44616D01*
X48553Y-44073D01*
X48475Y-43995D01*
X48475Y-43414D01*
X47981Y-43414D01*
X47981Y-44616D01*
X48553Y-44616D01*
X48553Y-45698D01*
X48503Y-45698D01*
X48160Y-45698D01*
X48160Y-45483D01*
X48160Y-44831D01*
X47845Y-44831D01*
X47845Y-44036D01*
X47845Y-43414D01*
X47380Y-43414D01*
X47272Y-43522D01*
X47272Y-44616D01*
X47766Y-44616D01*
X47766Y-44115D01*
X47845Y-44036D01*
X47845Y-44831D01*
X47795Y-44831D01*
X47666Y-44831D01*
X47666Y-45483D01*
X48160Y-45483D01*
X48160Y-45698D01*
X48110Y-45698D01*
X47716Y-45698D01*
X47322Y-45698D01*
X46664Y-45698D01*
X46664Y-45561D01*
X46664Y-42942D01*
X45619Y-42942D01*
X45619Y-45561D01*
X46141Y-45561D01*
X46664Y-45561D01*
X46664Y-45698D01*
X46614Y-45698D01*
X46091Y-45698D01*
X46091Y-46535D01*
X46091Y-46742D01*
X52097Y-46742D01*
X52097Y-47351D01*
X52047Y-47351D01*
X50215Y-47351D01*
X50028Y-47538D01*
X50028Y-47666D01*
X49784Y-47666D01*
X49735Y-47617D01*
X49735Y-47538D01*
X49641Y-47444D01*
X49548Y-47351D01*
X47981Y-47351D01*
X47981Y-47480D01*
X47981Y-48010D01*
X47766Y-48225D01*
X47766Y-47973D01*
X47766Y-47538D01*
X47579Y-47351D01*
X47223Y-47351D01*
X47036Y-47538D01*
X47036Y-47973D01*
X47223Y-48160D01*
X47579Y-48160D01*
X47766Y-47973D01*
X47766Y-48225D01*
X47695Y-48296D01*
X46821Y-48296D01*
X46821Y-47894D01*
X46821Y-47617D01*
X46728Y-47523D01*
X46556Y-47351D01*
X46278Y-47351D01*
X46106Y-47523D01*
X46012Y-47617D01*
X46012Y-47894D01*
X46199Y-48081D01*
X46634Y-48081D01*
X46821Y-47894D01*
X46821Y-48296D01*
X46771Y-48296D01*
X46220Y-48296D01*
X45798Y-48296D01*
X45798Y-47894D01*
X45798Y-47617D01*
X45561Y-47380D01*
X45561Y-46585D01*
X45561Y-45619D01*
X45561Y-42884D01*
X45561Y-41839D01*
X42942Y-41839D01*
X42942Y-42884D01*
X45561Y-42884D01*
X45561Y-45619D01*
X42942Y-45619D01*
X42942Y-46585D01*
X44015Y-46585D01*
X44094Y-46585D01*
X44173Y-46585D01*
X45561Y-46585D01*
X45561Y-47380D01*
X45532Y-47351D01*
X45254Y-47351D01*
X45176Y-47430D01*
X45068Y-47430D01*
X45068Y-47973D01*
X45176Y-48081D01*
X45254Y-48081D01*
X45333Y-48160D01*
X45532Y-48160D01*
X45625Y-48066D01*
X45798Y-47894D01*
X45798Y-48296D01*
X45748Y-48296D01*
X45296Y-48296D01*
X44981Y-47981D01*
X44774Y-47981D01*
X44774Y-47617D01*
X44508Y-47351D01*
X44231Y-47351D01*
X44044Y-47538D01*
X44044Y-47902D01*
X43829Y-47902D01*
X43829Y-47617D01*
X43564Y-47351D01*
X43207Y-47351D01*
X43020Y-47538D01*
X43020Y-47832D01*
X42884Y-47695D01*
X42884Y-45561D01*
X42884Y-42863D01*
X42204Y-42863D01*
X41839Y-42863D01*
X41839Y-42992D01*
X41839Y-45561D01*
X42884Y-45561D01*
X42884Y-47695D01*
X42870Y-47681D01*
X42791Y-47602D01*
X42540Y-47351D01*
X41889Y-47351D01*
X41152Y-47351D01*
X41152Y-47028D01*
X41388Y-46792D01*
X41388Y-42333D01*
X42254Y-42333D01*
X42254Y-41317D01*
X42146Y-41209D01*
X40973Y-41209D01*
X40973Y-42075D01*
X40364Y-42075D01*
X40364Y-41073D01*
X42125Y-41073D01*
X44587Y-41073D01*
X44666Y-40994D01*
X45097Y-40994D01*
X45176Y-41073D01*
X45690Y-41073D01*
X45768Y-40994D01*
X46121Y-40994D01*
X46199Y-41073D01*
X46634Y-41073D01*
X46792Y-40916D01*
X47065Y-40916D01*
X47223Y-41073D01*
X48603Y-41073D01*
X48760Y-40916D01*
X49034Y-40916D01*
X49191Y-41073D01*
X53650Y-41073D01*
X53650Y-41811D01*
X53650Y-43464D01*
X53650Y-44774D01*
X58453Y-44774D01*
X58453Y-45304D01*
M02*
