M48
;DRILL file {Pcbnew (2013-jul-07)-stable} date Sun 04 Jan 2015 07:21:46 PM MST
;FORMAT={-:-/ absolute / inch / decimal}
FMAT,2
INCH,TZ
T1C0.025
T2C0.032
T3C0.036
T4C0.040
%
G90
G05
M72
T1
X4.1417Y-3.7146
X4.1417Y-3.7146
X4.1417Y-4.7067
X4.1732Y-3.4449
X4.1732Y-3.4449
X4.1732Y-4.437
X4.2697Y-3.2165
X4.2697Y-3.2165
X4.2697Y-4.2087
X4.2795Y-3.2559
X4.2795Y-3.2559
X4.2795Y-4.248
X4.2835Y-3.7008
X4.2835Y-3.7008
X4.2835Y-4.6929
X4.2953Y-3.4252
X4.2953Y-3.4252
X4.2953Y-4.4173
X4.2992Y-3.4823
X4.2992Y-3.4823
X4.2992Y-4.4744
X4.315Y-3.3031
X4.315Y-3.3031
X4.315Y-4.2953
X4.3386Y-3.5531
X4.3386Y-3.5531
X4.3386Y-4.5453
X4.3465Y-3.6831
X4.3465Y-3.6831
X4.3465Y-4.6752
X4.3583Y-3.3071
X4.3583Y-3.3071
X4.3583Y-4.2992
X4.3976Y-3.4902
X4.3976Y-3.4902
X4.3976Y-4.4823
X4.4016Y-3.7165
X4.4016Y-3.7165
X4.4016Y-4.7087
X4.4075Y-3.3031
X4.4075Y-3.3031
X4.4075Y-4.2953
X4.4134Y-3.6791
X4.4134Y-3.6791
X4.4134Y-4.6713
X4.4449Y-3.439
X4.4449Y-3.439
X4.4449Y-4.4311
X4.4469Y-3.5531
X4.4469Y-3.5531
X4.4469Y-4.5453
X4.4488Y-3.3051
X4.4488Y-3.3051
X4.4488Y-4.2972
X4.4685Y-3.6811
X4.4685Y-3.6811
X4.4685Y-4.6732
X4.4724Y-3.1791
X4.4724Y-3.1791
X4.4724Y-4.1713
X4.4744Y-3.122
X4.4744Y-3.122
X4.4744Y-4.1142
X4.4902Y-3.7913
X4.4902Y-3.7913
X4.4902Y-4.7835
X4.502Y-3.1516
X4.502Y-3.1516
X4.502Y-4.1437
X4.5079Y-3.5531
X4.5079Y-3.5531
X4.5079Y-4.5453
X4.5354Y-3.3012
X4.5354Y-3.3012
X4.5354Y-4.2933
X4.5492Y-3.5531
X4.5492Y-3.5531
X4.5492Y-4.5453
X4.5512Y-3.439
X4.5512Y-3.439
X4.5512Y-3.4941
X4.5512Y-3.4941
X4.5512Y-4.4311
X4.5512Y-4.4862
X4.5571Y-3.6791
X4.5571Y-3.6791
X4.5571Y-4.6713
X4.5886Y-3.8228
X4.5886Y-3.8228
X4.5886Y-4.815
X4.5925Y-3.1201
X4.5925Y-3.1201
X4.5925Y-4.1122
X4.5965Y-3.6398
X4.5965Y-3.6398
X4.5965Y-4.6319
X4.6732Y-3.4154
X4.6732Y-3.4154
X4.6732Y-3.4783
X4.6732Y-3.4783
X4.6732Y-4.4075
X4.6732Y-4.4705
X4.6772Y-3.5335
X4.6772Y-3.5335
X4.6772Y-4.5256
X4.6909Y-3.1358
X4.6909Y-3.1358
X4.6909Y-4.128
X4.7894Y-3.4232
X4.7894Y-3.4232
X4.7894Y-4.4154
X4.7904Y-3.1516
X4.7904Y-3.1516
X4.7904Y-4.1437
X4.8484Y-3.1339
X4.8484Y-3.1339
X4.8484Y-3.5069
X4.8484Y-3.5069
X4.8484Y-4.126
X4.8484Y-4.499
X4.8622Y-3.2933
X4.8622Y-3.2933
X4.8622Y-3.3878
X4.8622Y-3.3878
X4.8622Y-4.2854
X4.8622Y-4.3799
X4.8681Y-3.4724
X4.8681Y-3.4724
X4.8681Y-4.4646
X4.9094Y-3.3071
X4.9094Y-3.3071
X4.9094Y-4.2992
X4.9882Y-3.7559
X4.9882Y-3.7559
X4.9882Y-4.748
X5.0295Y-3.5453
X5.0295Y-3.5453
X5.0295Y-4.5374
X5.0354Y-3.2874
X5.0354Y-3.2874
X5.0354Y-4.2795
X5.0374Y-3.3878
X5.0374Y-3.3878
X5.0374Y-4.3799
X5.0472Y-3.435
X5.0472Y-3.435
X5.0472Y-4.4272
X5.0728Y-3.5669
X5.0728Y-3.5669
X5.0728Y-4.5591
X5.0925Y-3.3209
X5.0925Y-3.3209
X5.0925Y-4.313
X5.1063Y-3.5453
X5.1063Y-3.5453
X5.1063Y-4.5374
X5.5512Y-3.6634
X5.5512Y-3.6634
X5.5512Y-3.7028
X5.5512Y-3.7028
X5.5512Y-4.6555
X5.5512Y-4.6949
X5.6634Y-3.628
X5.6634Y-3.628
X5.6634Y-4.6201
T2
X4.0398Y-3.7815
X4.0398Y-3.7815
X4.0398Y-4.7736
X4.1398Y-3.7815
X4.1398Y-3.7815
X4.1398Y-4.7736
X4.2398Y-3.7815
X4.2398Y-3.7815
X4.2398Y-4.7736
X4.3398Y-3.7815
X4.3398Y-3.7815
X4.3398Y-4.7736
X4.4398Y-3.7815
X4.4398Y-3.7815
X4.4398Y-4.7736
X4.5398Y-3.7815
X4.5398Y-3.7815
X4.5398Y-4.7736
X4.6398Y-3.7815
X4.6398Y-3.7815
X4.6398Y-4.7736
X4.7398Y-3.7815
X4.7398Y-3.7815
X4.7398Y-4.7736
X4.839Y-3.7815
X4.839Y-3.7815
X4.839Y-4.7736
X4.939Y-3.7815
X4.939Y-3.7815
X4.939Y-4.7736
X5.039Y-3.7815
X5.039Y-3.7815
X5.039Y-4.7736
X5.139Y-3.7815
X5.139Y-3.7815
X5.139Y-4.7736
X5.239Y-3.7815
X5.239Y-3.7815
X5.239Y-4.7736
X5.339Y-3.7815
X5.339Y-3.7815
X5.339Y-4.7736
X5.439Y-3.7815
X5.439Y-3.7815
X5.439Y-4.7736
X5.539Y-3.7815
X5.539Y-3.7815
X5.539Y-4.7736
T3
X4.6594Y-3.2295
X4.6594Y-3.2295
X4.6594Y-3.6295
X4.6594Y-3.6295
X4.6594Y-4.2217
X4.6594Y-4.6217
X4.7594Y-3.2295
X4.7594Y-3.2295
X4.7594Y-3.6295
X4.7594Y-3.6295
X4.7594Y-4.2217
X4.7594Y-4.6217
X4.8594Y-3.2295
X4.8594Y-3.2295
X4.8594Y-3.6295
X4.8594Y-3.6295
X4.8594Y-4.2217
X4.8594Y-4.6217
X4.9594Y-3.2295
X4.9594Y-3.2295
X4.9594Y-3.6295
X4.9594Y-3.6295
X4.9594Y-4.2217
X4.9594Y-4.6217
X5.0594Y-3.2295
X5.0594Y-3.2295
X5.0594Y-3.6295
X5.0594Y-3.6295
X5.0594Y-4.2217
X5.0594Y-4.6217
X5.1594Y-3.2295
X5.1594Y-3.2295
X5.1594Y-3.6295
X5.1594Y-3.6295
X5.1594Y-4.2217
X5.1594Y-4.6217
T4
X4.0417Y-2.9756
X4.0417Y-2.9756
X4.0417Y-3.0756
X4.0417Y-3.0756
X4.0417Y-3.9677
X4.0417Y-4.0677
X4.1417Y-2.9756
X4.1417Y-2.9756
X4.1417Y-3.0756
X4.1417Y-3.0756
X4.1417Y-3.9677
X4.1417Y-4.0677
X4.2417Y-2.9756
X4.2417Y-2.9756
X4.2417Y-3.0756
X4.2417Y-3.0756
X4.2417Y-3.9677
X4.2417Y-4.0677
X4.3417Y-2.9756
X4.3417Y-2.9756
X4.3417Y-3.0756
X4.3417Y-3.0756
X4.3417Y-3.9677
X4.3417Y-4.0677
X4.4417Y-2.9756
X4.4417Y-2.9756
X4.4417Y-3.0756
X4.4417Y-3.0756
X4.4417Y-3.9677
X4.4417Y-4.0677
X4.5417Y-2.9756
X4.5417Y-2.9756
X4.5417Y-3.0756
X4.5417Y-3.0756
X4.5417Y-3.9677
X4.5417Y-4.0677
X4.6417Y-2.9756
X4.6417Y-2.9756
X4.6417Y-3.0756
X4.6417Y-3.0756
X4.6417Y-3.9677
X4.6417Y-4.0677
X4.7417Y-2.9756
X4.7417Y-2.9756
X4.7417Y-3.0756
X4.7417Y-3.0756
X4.7417Y-3.9677
X4.7417Y-4.0677
X4.8417Y-2.9756
X4.8417Y-2.9756
X4.8417Y-3.0756
X4.8417Y-3.0756
X4.8417Y-3.9677
X4.8417Y-4.0677
X4.9417Y-2.9756
X4.9417Y-2.9756
X4.9417Y-3.0756
X4.9417Y-3.0756
X4.9417Y-3.9677
X4.9417Y-4.0677
X5.0417Y-2.9756
X5.0417Y-2.9756
X5.0417Y-3.0756
X5.0417Y-3.0756
X5.0417Y-3.9677
X5.0417Y-4.0677
X5.1417Y-2.9756
X5.1417Y-2.9756
X5.1417Y-3.0756
X5.1417Y-3.0756
X5.1417Y-3.9677
X5.1417Y-4.0677
X5.2417Y-2.9756
X5.2417Y-2.9756
X5.2417Y-3.0756
X5.2417Y-3.0756
X5.2417Y-3.9677
X5.2417Y-4.0677
X5.6094Y-3.5795
X5.6094Y-3.5795
X5.6094Y-3.6795
X5.6094Y-3.6795
X5.6094Y-4.5717
X5.6094Y-4.6717
X5.7094Y-3.5795
X5.7094Y-3.5795
X5.7094Y-3.6795
X5.7094Y-3.6795
X5.7094Y-4.5717
X5.7094Y-4.6717
X5.8094Y-3.5795
X5.8094Y-3.5795
X5.8094Y-3.6795
X5.8094Y-3.6795
X5.8094Y-4.5717
X5.8094Y-4.6717
T0
M30
