G04 (created by PCBNEW (2013-jul-07)-stable) date Sun 04 Jan 2015 08:40:56 PM MST*
%MOIN*%
G04 Gerber Fmt 3.4, Leading zero omitted, Abs format*
%FSLAX34Y34*%
G01*
G70*
G90*
G04 APERTURE LIST*
%ADD10C,0.00393701*%
%ADD11R,0.0275591X0.0314961*%
%ADD12R,0.047248X0.043248*%
%ADD13R,0.051148X0.055148*%
%ADD14R,0.078748X0.086748*%
%ADD15R,0.0413386X0.0275591*%
%ADD16R,0.075748X0.075748*%
%ADD17C,0.075748*%
%ADD18R,0.095748X0.095748*%
%ADD19C,0.095748*%
%ADD20R,0.070748X0.070748*%
%ADD21C,0.070748*%
%ADD22C,0.01*%
G04 APERTURE END LIST*
G54D10*
G54D11*
X56870Y-41633D03*
X57106Y-41633D03*
G54D12*
X57401Y-41240D03*
X56969Y-41240D03*
G54D13*
X57579Y-40551D03*
X56987Y-40551D03*
G54D14*
X58227Y-39665D03*
X57127Y-39665D03*
G54D15*
X47696Y-35334D03*
X47696Y-35137D03*
X48149Y-34940D03*
X48149Y-34744D03*
X47696Y-34744D03*
X47696Y-34940D03*
X48149Y-35137D03*
X48149Y-35334D03*
X49488Y-35354D03*
X49488Y-35157D03*
X49940Y-34960D03*
X49940Y-34763D03*
X49488Y-34763D03*
X49488Y-34960D03*
X49940Y-35157D03*
X49940Y-35354D03*
G54D16*
X56094Y-36795D03*
G54D17*
X56094Y-35795D03*
X57094Y-36795D03*
X57094Y-35795D03*
X58094Y-36795D03*
X58094Y-35795D03*
G54D16*
X40417Y-30755D03*
G54D17*
X40417Y-29755D03*
X41417Y-30755D03*
X41417Y-29755D03*
X42417Y-30755D03*
X42417Y-29755D03*
X43417Y-30755D03*
X43417Y-29755D03*
X44417Y-30755D03*
X44417Y-29755D03*
X45417Y-30755D03*
X45417Y-29755D03*
X46417Y-30755D03*
X46417Y-29755D03*
X47417Y-30755D03*
X47417Y-29755D03*
X48417Y-30755D03*
X48417Y-29755D03*
X49417Y-30755D03*
X49417Y-29755D03*
X50417Y-30755D03*
X50417Y-29755D03*
X51417Y-30755D03*
X51417Y-29755D03*
X52417Y-30755D03*
X52417Y-29755D03*
G54D18*
X46594Y-36295D03*
G54D19*
X47594Y-36295D03*
X48594Y-36295D03*
X49594Y-36295D03*
X49594Y-32295D03*
X48594Y-32295D03*
X50594Y-36295D03*
X51594Y-32295D03*
X51594Y-36295D03*
X50594Y-32295D03*
X47594Y-32295D03*
X46594Y-32295D03*
G54D20*
X48389Y-37814D03*
G54D21*
X49389Y-37814D03*
X50389Y-37814D03*
X51389Y-37814D03*
X52389Y-37814D03*
X53389Y-37814D03*
X54389Y-37814D03*
X55389Y-37814D03*
G54D20*
X40397Y-37814D03*
G54D21*
X41397Y-37814D03*
X42397Y-37814D03*
X43397Y-37814D03*
X44397Y-37814D03*
X45397Y-37814D03*
X46397Y-37814D03*
X47397Y-37814D03*
G54D15*
X47696Y-35334D03*
X47696Y-35137D03*
X48149Y-34940D03*
X48149Y-34744D03*
X47696Y-34744D03*
X47696Y-34940D03*
X48149Y-35137D03*
X48149Y-35334D03*
X49488Y-35354D03*
X49488Y-35157D03*
X49940Y-34960D03*
X49940Y-34763D03*
X49488Y-34763D03*
X49488Y-34960D03*
X49940Y-35157D03*
X49940Y-35354D03*
G54D16*
X56094Y-36795D03*
G54D17*
X56094Y-35795D03*
X57094Y-36795D03*
X57094Y-35795D03*
X58094Y-36795D03*
X58094Y-35795D03*
G54D16*
X40417Y-30755D03*
G54D17*
X40417Y-29755D03*
X41417Y-30755D03*
X41417Y-29755D03*
X42417Y-30755D03*
X42417Y-29755D03*
X43417Y-30755D03*
X43417Y-29755D03*
X44417Y-30755D03*
X44417Y-29755D03*
X45417Y-30755D03*
X45417Y-29755D03*
X46417Y-30755D03*
X46417Y-29755D03*
X47417Y-30755D03*
X47417Y-29755D03*
X48417Y-30755D03*
X48417Y-29755D03*
X49417Y-30755D03*
X49417Y-29755D03*
X50417Y-30755D03*
X50417Y-29755D03*
X51417Y-30755D03*
X51417Y-29755D03*
X52417Y-30755D03*
X52417Y-29755D03*
G54D18*
X46594Y-36295D03*
G54D19*
X47594Y-36295D03*
X48594Y-36295D03*
X49594Y-36295D03*
X49594Y-32295D03*
X48594Y-32295D03*
X50594Y-36295D03*
X51594Y-32295D03*
X51594Y-36295D03*
X50594Y-32295D03*
X47594Y-32295D03*
X46594Y-32295D03*
G54D20*
X48389Y-37814D03*
G54D21*
X49389Y-37814D03*
X50389Y-37814D03*
X51389Y-37814D03*
X52389Y-37814D03*
X53389Y-37814D03*
X54389Y-37814D03*
X55389Y-37814D03*
G54D20*
X40397Y-37814D03*
G54D21*
X41397Y-37814D03*
X42397Y-37814D03*
X43397Y-37814D03*
X44397Y-37814D03*
X45397Y-37814D03*
X46397Y-37814D03*
X47397Y-37814D03*
G54D15*
X47696Y-45255D03*
X47696Y-45059D03*
X48149Y-44862D03*
X48149Y-44665D03*
X47696Y-44665D03*
X47696Y-44862D03*
X48149Y-45059D03*
X48149Y-45255D03*
X49488Y-45275D03*
X49488Y-45078D03*
X49940Y-44881D03*
X49940Y-44685D03*
X49488Y-44685D03*
X49488Y-44881D03*
X49940Y-45078D03*
X49940Y-45275D03*
G54D16*
X56094Y-46716D03*
G54D17*
X56094Y-45716D03*
X57094Y-46716D03*
X57094Y-45716D03*
X58094Y-46716D03*
X58094Y-45716D03*
G54D16*
X40417Y-40677D03*
G54D17*
X40417Y-39677D03*
X41417Y-40677D03*
X41417Y-39677D03*
X42417Y-40677D03*
X42417Y-39677D03*
X43417Y-40677D03*
X43417Y-39677D03*
X44417Y-40677D03*
X44417Y-39677D03*
X45417Y-40677D03*
X45417Y-39677D03*
X46417Y-40677D03*
X46417Y-39677D03*
X47417Y-40677D03*
X47417Y-39677D03*
X48417Y-40677D03*
X48417Y-39677D03*
X49417Y-40677D03*
X49417Y-39677D03*
X50417Y-40677D03*
X50417Y-39677D03*
X51417Y-40677D03*
X51417Y-39677D03*
X52417Y-40677D03*
X52417Y-39677D03*
G54D18*
X46594Y-46216D03*
G54D19*
X47594Y-46216D03*
X48594Y-46216D03*
X49594Y-46216D03*
X49594Y-42216D03*
X48594Y-42216D03*
X50594Y-46216D03*
X51594Y-42216D03*
X51594Y-46216D03*
X50594Y-42216D03*
X47594Y-42216D03*
X46594Y-42216D03*
G54D20*
X48389Y-47736D03*
G54D21*
X49389Y-47736D03*
X50389Y-47736D03*
X51389Y-47736D03*
X52389Y-47736D03*
X53389Y-47736D03*
X54389Y-47736D03*
X55389Y-47736D03*
G54D20*
X40397Y-47736D03*
G54D21*
X41397Y-47736D03*
X42397Y-47736D03*
X43397Y-47736D03*
X44397Y-47736D03*
X45397Y-47736D03*
X46397Y-47736D03*
X47397Y-47736D03*
G54D14*
X58325Y-29724D03*
X57225Y-29724D03*
G54D13*
X57677Y-30610D03*
X57085Y-30610D03*
G54D12*
X57499Y-31299D03*
X57067Y-31299D03*
G54D11*
X56968Y-31692D03*
X57204Y-31692D03*
G54D10*
G36*
X58060Y-36406D02*
X57824Y-36406D01*
X57824Y-36485D01*
X57687Y-36485D01*
X57687Y-36406D01*
X55698Y-36406D01*
X55698Y-36771D01*
X55698Y-37430D01*
X53965Y-37430D01*
X53965Y-38160D01*
X54201Y-38160D01*
X54201Y-38375D01*
X53750Y-38375D01*
X53750Y-38160D01*
X53750Y-37430D01*
X53020Y-37430D01*
X53020Y-38160D01*
X53750Y-38160D01*
X53750Y-38375D01*
X53700Y-38375D01*
X52727Y-38375D01*
X52727Y-38160D01*
X52727Y-37430D01*
X52097Y-37430D01*
X52097Y-36821D01*
X52097Y-35776D01*
X52097Y-32805D01*
X52097Y-31839D01*
X46111Y-31839D01*
X46111Y-32825D01*
X47451Y-32825D01*
X47451Y-32805D01*
X52097Y-32805D01*
X52097Y-35776D01*
X50207Y-35776D01*
X50207Y-35561D01*
X50207Y-34595D01*
X49241Y-34595D01*
X49241Y-35433D01*
X49241Y-35561D01*
X50207Y-35561D01*
X50207Y-35776D01*
X50157Y-35776D01*
X49291Y-35776D01*
X48396Y-35776D01*
X48396Y-35483D01*
X48396Y-34595D01*
X47390Y-34595D01*
X47390Y-35483D01*
X48396Y-35483D01*
X48396Y-35776D01*
X48346Y-35776D01*
X47440Y-35776D01*
X47401Y-35776D01*
X46111Y-35776D01*
X46111Y-36821D01*
X52097Y-36821D01*
X52097Y-37430D01*
X51997Y-37430D01*
X51997Y-38160D01*
X52727Y-38160D01*
X52727Y-38375D01*
X52677Y-38375D01*
X51782Y-38375D01*
X51782Y-38160D01*
X51782Y-37430D01*
X50215Y-37430D01*
X49950Y-37695D01*
X49950Y-38160D01*
X51782Y-38160D01*
X51782Y-38375D01*
X51732Y-38375D01*
X49813Y-38375D01*
X49813Y-38160D01*
X49813Y-37695D01*
X49548Y-37430D01*
X49191Y-37430D01*
X48926Y-37695D01*
X48926Y-38160D01*
X49813Y-38160D01*
X49813Y-38375D01*
X49763Y-38375D01*
X48790Y-38375D01*
X48790Y-38160D01*
X48790Y-37430D01*
X47981Y-37430D01*
X47981Y-38160D01*
X48790Y-38160D01*
X48790Y-38375D01*
X48740Y-38375D01*
X47766Y-38375D01*
X47766Y-38160D01*
X47766Y-37695D01*
X47501Y-37430D01*
X47223Y-37430D01*
X47036Y-37617D01*
X47036Y-38160D01*
X47766Y-38160D01*
X47766Y-38375D01*
X47716Y-38375D01*
X46742Y-38375D01*
X46742Y-38160D01*
X46742Y-37617D01*
X46634Y-37509D01*
X46556Y-37509D01*
X46477Y-37430D01*
X46111Y-37430D01*
X46111Y-37450D01*
X46091Y-37450D01*
X46091Y-37617D01*
X46012Y-37695D01*
X46012Y-37973D01*
X46199Y-38160D01*
X46742Y-38160D01*
X46742Y-38375D01*
X46692Y-38375D01*
X45798Y-38375D01*
X45798Y-37894D01*
X45798Y-37450D01*
X45068Y-37450D01*
X45068Y-38160D01*
X45532Y-38160D01*
X45798Y-37894D01*
X45798Y-38375D01*
X45748Y-38375D01*
X44774Y-38375D01*
X44774Y-38160D01*
X44774Y-37617D01*
X44607Y-37450D01*
X44044Y-37450D01*
X44044Y-37973D01*
X44231Y-38160D01*
X44774Y-38160D01*
X44774Y-38375D01*
X44724Y-38375D01*
X43829Y-38375D01*
X43829Y-38089D01*
X43750Y-38010D01*
X43750Y-37450D01*
X41290Y-37450D01*
X41290Y-31349D01*
X41309Y-31349D01*
X41309Y-31152D01*
X46141Y-31152D01*
X52884Y-31152D01*
X52884Y-29183D01*
X53729Y-29183D01*
X53729Y-31811D01*
X53729Y-32755D01*
X53729Y-34645D01*
X53729Y-34931D01*
X55698Y-34931D01*
X55698Y-36191D01*
X56241Y-36191D01*
X56477Y-35955D01*
X56750Y-35955D01*
X56987Y-36191D01*
X58060Y-36191D01*
X58060Y-36406D01*
X58060Y-36406D01*
G37*
G54D22*
X58060Y-36406D02*
X57824Y-36406D01*
X57824Y-36485D01*
X57687Y-36485D01*
X57687Y-36406D01*
X55698Y-36406D01*
X55698Y-36771D01*
X55698Y-37430D01*
X53965Y-37430D01*
X53965Y-38160D01*
X54201Y-38160D01*
X54201Y-38375D01*
X53750Y-38375D01*
X53750Y-38160D01*
X53750Y-37430D01*
X53020Y-37430D01*
X53020Y-38160D01*
X53750Y-38160D01*
X53750Y-38375D01*
X53700Y-38375D01*
X52727Y-38375D01*
X52727Y-38160D01*
X52727Y-37430D01*
X52097Y-37430D01*
X52097Y-36821D01*
X52097Y-35776D01*
X52097Y-32805D01*
X52097Y-31839D01*
X46111Y-31839D01*
X46111Y-32825D01*
X47451Y-32825D01*
X47451Y-32805D01*
X52097Y-32805D01*
X52097Y-35776D01*
X50207Y-35776D01*
X50207Y-35561D01*
X50207Y-34595D01*
X49241Y-34595D01*
X49241Y-35433D01*
X49241Y-35561D01*
X50207Y-35561D01*
X50207Y-35776D01*
X50157Y-35776D01*
X49291Y-35776D01*
X48396Y-35776D01*
X48396Y-35483D01*
X48396Y-34595D01*
X47390Y-34595D01*
X47390Y-35483D01*
X48396Y-35483D01*
X48396Y-35776D01*
X48346Y-35776D01*
X47440Y-35776D01*
X47401Y-35776D01*
X46111Y-35776D01*
X46111Y-36821D01*
X52097Y-36821D01*
X52097Y-37430D01*
X51997Y-37430D01*
X51997Y-38160D01*
X52727Y-38160D01*
X52727Y-38375D01*
X52677Y-38375D01*
X51782Y-38375D01*
X51782Y-38160D01*
X51782Y-37430D01*
X50215Y-37430D01*
X49950Y-37695D01*
X49950Y-38160D01*
X51782Y-38160D01*
X51782Y-38375D01*
X51732Y-38375D01*
X49813Y-38375D01*
X49813Y-38160D01*
X49813Y-37695D01*
X49548Y-37430D01*
X49191Y-37430D01*
X48926Y-37695D01*
X48926Y-38160D01*
X49813Y-38160D01*
X49813Y-38375D01*
X49763Y-38375D01*
X48790Y-38375D01*
X48790Y-38160D01*
X48790Y-37430D01*
X47981Y-37430D01*
X47981Y-38160D01*
X48790Y-38160D01*
X48790Y-38375D01*
X48740Y-38375D01*
X47766Y-38375D01*
X47766Y-38160D01*
X47766Y-37695D01*
X47501Y-37430D01*
X47223Y-37430D01*
X47036Y-37617D01*
X47036Y-38160D01*
X47766Y-38160D01*
X47766Y-38375D01*
X47716Y-38375D01*
X46742Y-38375D01*
X46742Y-38160D01*
X46742Y-37617D01*
X46634Y-37509D01*
X46556Y-37509D01*
X46477Y-37430D01*
X46111Y-37430D01*
X46111Y-37450D01*
X46091Y-37450D01*
X46091Y-37617D01*
X46012Y-37695D01*
X46012Y-37973D01*
X46199Y-38160D01*
X46742Y-38160D01*
X46742Y-38375D01*
X46692Y-38375D01*
X45798Y-38375D01*
X45798Y-37894D01*
X45798Y-37450D01*
X45068Y-37450D01*
X45068Y-38160D01*
X45532Y-38160D01*
X45798Y-37894D01*
X45798Y-38375D01*
X45748Y-38375D01*
X44774Y-38375D01*
X44774Y-38160D01*
X44774Y-37617D01*
X44607Y-37450D01*
X44044Y-37450D01*
X44044Y-37973D01*
X44231Y-38160D01*
X44774Y-38160D01*
X44774Y-38375D01*
X44724Y-38375D01*
X43829Y-38375D01*
X43829Y-38089D01*
X43750Y-38010D01*
X43750Y-37450D01*
X41290Y-37450D01*
X41290Y-31349D01*
X41309Y-31349D01*
X41309Y-31152D01*
X46141Y-31152D01*
X52884Y-31152D01*
X52884Y-29183D01*
X53729Y-29183D01*
X53729Y-31811D01*
X53729Y-32755D01*
X53729Y-34645D01*
X53729Y-34931D01*
X55698Y-34931D01*
X55698Y-36191D01*
X56241Y-36191D01*
X56477Y-35955D01*
X56750Y-35955D01*
X56987Y-36191D01*
X58060Y-36191D01*
X58060Y-36406D01*
G54D10*
G36*
X58060Y-46327D02*
X57824Y-46327D01*
X57824Y-46406D01*
X57687Y-46406D01*
X57687Y-46327D01*
X55698Y-46327D01*
X55698Y-46692D01*
X55698Y-47351D01*
X53965Y-47351D01*
X53965Y-48081D01*
X54201Y-48081D01*
X54201Y-48296D01*
X53750Y-48296D01*
X53750Y-48081D01*
X53750Y-47351D01*
X53020Y-47351D01*
X53020Y-48081D01*
X53750Y-48081D01*
X53750Y-48296D01*
X53700Y-48296D01*
X52727Y-48296D01*
X52727Y-48081D01*
X52727Y-47351D01*
X52097Y-47351D01*
X52097Y-46742D01*
X52097Y-45698D01*
X52097Y-42727D01*
X52097Y-41761D01*
X46111Y-41761D01*
X46111Y-42746D01*
X47451Y-42746D01*
X47451Y-42727D01*
X52097Y-42727D01*
X52097Y-45698D01*
X50207Y-45698D01*
X50207Y-45483D01*
X50207Y-44516D01*
X49241Y-44516D01*
X49241Y-45354D01*
X49241Y-45483D01*
X50207Y-45483D01*
X50207Y-45698D01*
X50157Y-45698D01*
X49291Y-45698D01*
X48396Y-45698D01*
X48396Y-45404D01*
X48396Y-44516D01*
X47390Y-44516D01*
X47390Y-45404D01*
X48396Y-45404D01*
X48396Y-45698D01*
X48346Y-45698D01*
X47440Y-45698D01*
X47401Y-45698D01*
X46111Y-45698D01*
X46111Y-46742D01*
X52097Y-46742D01*
X52097Y-47351D01*
X51997Y-47351D01*
X51997Y-48081D01*
X52727Y-48081D01*
X52727Y-48296D01*
X52677Y-48296D01*
X51782Y-48296D01*
X51782Y-48081D01*
X51782Y-47351D01*
X50215Y-47351D01*
X49950Y-47617D01*
X49950Y-48081D01*
X51782Y-48081D01*
X51782Y-48296D01*
X51732Y-48296D01*
X49813Y-48296D01*
X49813Y-48081D01*
X49813Y-47617D01*
X49548Y-47351D01*
X49191Y-47351D01*
X48926Y-47617D01*
X48926Y-48081D01*
X49813Y-48081D01*
X49813Y-48296D01*
X49763Y-48296D01*
X48790Y-48296D01*
X48790Y-48081D01*
X48790Y-47351D01*
X47981Y-47351D01*
X47981Y-48081D01*
X48790Y-48081D01*
X48790Y-48296D01*
X48740Y-48296D01*
X47766Y-48296D01*
X47766Y-48081D01*
X47766Y-47617D01*
X47501Y-47351D01*
X47223Y-47351D01*
X47036Y-47538D01*
X47036Y-48081D01*
X47766Y-48081D01*
X47766Y-48296D01*
X47716Y-48296D01*
X46742Y-48296D01*
X46742Y-48081D01*
X46742Y-47538D01*
X46634Y-47430D01*
X46556Y-47430D01*
X46477Y-47351D01*
X46111Y-47351D01*
X46111Y-47371D01*
X46091Y-47371D01*
X46091Y-47538D01*
X46012Y-47617D01*
X46012Y-47894D01*
X46199Y-48081D01*
X46742Y-48081D01*
X46742Y-48296D01*
X46692Y-48296D01*
X45798Y-48296D01*
X45798Y-47815D01*
X45798Y-47371D01*
X45068Y-47371D01*
X45068Y-48081D01*
X45532Y-48081D01*
X45798Y-47815D01*
X45798Y-48296D01*
X45748Y-48296D01*
X44774Y-48296D01*
X44774Y-48081D01*
X44774Y-47538D01*
X44607Y-47371D01*
X44044Y-47371D01*
X44044Y-47894D01*
X44231Y-48081D01*
X44774Y-48081D01*
X44774Y-48296D01*
X44724Y-48296D01*
X43829Y-48296D01*
X43829Y-48010D01*
X43750Y-47932D01*
X43750Y-47371D01*
X41290Y-47371D01*
X41290Y-41270D01*
X41309Y-41270D01*
X41309Y-41073D01*
X46141Y-41073D01*
X52884Y-41073D01*
X52884Y-39105D01*
X53729Y-39105D01*
X53729Y-41732D01*
X53729Y-42677D01*
X53729Y-44566D01*
X53729Y-44853D01*
X55698Y-44853D01*
X55698Y-46112D01*
X56241Y-46112D01*
X56477Y-45876D01*
X56750Y-45876D01*
X56987Y-46112D01*
X58060Y-46112D01*
X58060Y-46327D01*
X58060Y-46327D01*
G37*
G54D22*
X58060Y-46327D02*
X57824Y-46327D01*
X57824Y-46406D01*
X57687Y-46406D01*
X57687Y-46327D01*
X55698Y-46327D01*
X55698Y-46692D01*
X55698Y-47351D01*
X53965Y-47351D01*
X53965Y-48081D01*
X54201Y-48081D01*
X54201Y-48296D01*
X53750Y-48296D01*
X53750Y-48081D01*
X53750Y-47351D01*
X53020Y-47351D01*
X53020Y-48081D01*
X53750Y-48081D01*
X53750Y-48296D01*
X53700Y-48296D01*
X52727Y-48296D01*
X52727Y-48081D01*
X52727Y-47351D01*
X52097Y-47351D01*
X52097Y-46742D01*
X52097Y-45698D01*
X52097Y-42727D01*
X52097Y-41761D01*
X46111Y-41761D01*
X46111Y-42746D01*
X47451Y-42746D01*
X47451Y-42727D01*
X52097Y-42727D01*
X52097Y-45698D01*
X50207Y-45698D01*
X50207Y-45483D01*
X50207Y-44516D01*
X49241Y-44516D01*
X49241Y-45354D01*
X49241Y-45483D01*
X50207Y-45483D01*
X50207Y-45698D01*
X50157Y-45698D01*
X49291Y-45698D01*
X48396Y-45698D01*
X48396Y-45404D01*
X48396Y-44516D01*
X47390Y-44516D01*
X47390Y-45404D01*
X48396Y-45404D01*
X48396Y-45698D01*
X48346Y-45698D01*
X47440Y-45698D01*
X47401Y-45698D01*
X46111Y-45698D01*
X46111Y-46742D01*
X52097Y-46742D01*
X52097Y-47351D01*
X51997Y-47351D01*
X51997Y-48081D01*
X52727Y-48081D01*
X52727Y-48296D01*
X52677Y-48296D01*
X51782Y-48296D01*
X51782Y-48081D01*
X51782Y-47351D01*
X50215Y-47351D01*
X49950Y-47617D01*
X49950Y-48081D01*
X51782Y-48081D01*
X51782Y-48296D01*
X51732Y-48296D01*
X49813Y-48296D01*
X49813Y-48081D01*
X49813Y-47617D01*
X49548Y-47351D01*
X49191Y-47351D01*
X48926Y-47617D01*
X48926Y-48081D01*
X49813Y-48081D01*
X49813Y-48296D01*
X49763Y-48296D01*
X48790Y-48296D01*
X48790Y-48081D01*
X48790Y-47351D01*
X47981Y-47351D01*
X47981Y-48081D01*
X48790Y-48081D01*
X48790Y-48296D01*
X48740Y-48296D01*
X47766Y-48296D01*
X47766Y-48081D01*
X47766Y-47617D01*
X47501Y-47351D01*
X47223Y-47351D01*
X47036Y-47538D01*
X47036Y-48081D01*
X47766Y-48081D01*
X47766Y-48296D01*
X47716Y-48296D01*
X46742Y-48296D01*
X46742Y-48081D01*
X46742Y-47538D01*
X46634Y-47430D01*
X46556Y-47430D01*
X46477Y-47351D01*
X46111Y-47351D01*
X46111Y-47371D01*
X46091Y-47371D01*
X46091Y-47538D01*
X46012Y-47617D01*
X46012Y-47894D01*
X46199Y-48081D01*
X46742Y-48081D01*
X46742Y-48296D01*
X46692Y-48296D01*
X45798Y-48296D01*
X45798Y-47815D01*
X45798Y-47371D01*
X45068Y-47371D01*
X45068Y-48081D01*
X45532Y-48081D01*
X45798Y-47815D01*
X45798Y-48296D01*
X45748Y-48296D01*
X44774Y-48296D01*
X44774Y-48081D01*
X44774Y-47538D01*
X44607Y-47371D01*
X44044Y-47371D01*
X44044Y-47894D01*
X44231Y-48081D01*
X44774Y-48081D01*
X44774Y-48296D01*
X44724Y-48296D01*
X43829Y-48296D01*
X43829Y-48010D01*
X43750Y-47932D01*
X43750Y-47371D01*
X41290Y-47371D01*
X41290Y-41270D01*
X41309Y-41270D01*
X41309Y-41073D01*
X46141Y-41073D01*
X52884Y-41073D01*
X52884Y-39105D01*
X53729Y-39105D01*
X53729Y-41732D01*
X53729Y-42677D01*
X53729Y-44566D01*
X53729Y-44853D01*
X55698Y-44853D01*
X55698Y-46112D01*
X56241Y-46112D01*
X56477Y-45876D01*
X56750Y-45876D01*
X56987Y-46112D01*
X58060Y-46112D01*
X58060Y-46327D01*
M02*
