G04 (created by PCBNEW (2013-jul-07)-stable) date Sun 04 Jan 2015 08:40:56 PM MST*
%MOIN*%
G04 Gerber Fmt 3.4, Leading zero omitted, Abs format*
%FSLAX34Y34*%
G01*
G70*
G90*
G04 APERTURE LIST*
%ADD10C,0.00393701*%
%ADD11C,0.00590551*%
%ADD12C,0.019685*%
G04 APERTURE END LIST*
G54D10*
X55286Y-44017D02*
X55455Y-44017D01*
X55371Y-44312D02*
X55371Y-44017D01*
X55553Y-44312D02*
X55553Y-44017D01*
X55680Y-44312D02*
X55680Y-44157D01*
X55666Y-44129D01*
X55638Y-44115D01*
X55596Y-44115D01*
X55568Y-44129D01*
X55553Y-44143D01*
X55947Y-44312D02*
X55947Y-44157D01*
X55933Y-44129D01*
X55905Y-44115D01*
X55849Y-44115D01*
X55821Y-44129D01*
X55947Y-44298D02*
X55919Y-44312D01*
X55849Y-44312D01*
X55821Y-44298D01*
X55807Y-44270D01*
X55807Y-44242D01*
X55821Y-44214D01*
X55849Y-44199D01*
X55919Y-44199D01*
X55947Y-44185D01*
X56088Y-44115D02*
X56088Y-44312D01*
X56088Y-44143D02*
X56102Y-44129D01*
X56130Y-44115D01*
X56172Y-44115D01*
X56200Y-44129D01*
X56214Y-44157D01*
X56214Y-44312D01*
X56355Y-44312D02*
X56355Y-44017D01*
X56383Y-44199D02*
X56467Y-44312D01*
X56467Y-44115D02*
X56355Y-44228D01*
X56791Y-44115D02*
X56861Y-44312D01*
X56931Y-44115D02*
X56861Y-44312D01*
X56833Y-44382D01*
X56819Y-44396D01*
X56791Y-44410D01*
X57086Y-44312D02*
X57058Y-44298D01*
X57044Y-44284D01*
X57030Y-44256D01*
X57030Y-44171D01*
X57044Y-44143D01*
X57058Y-44129D01*
X57086Y-44115D01*
X57128Y-44115D01*
X57156Y-44129D01*
X57170Y-44143D01*
X57185Y-44171D01*
X57185Y-44256D01*
X57170Y-44284D01*
X57156Y-44298D01*
X57128Y-44312D01*
X57086Y-44312D01*
X57438Y-44115D02*
X57438Y-44312D01*
X57311Y-44115D02*
X57311Y-44270D01*
X57325Y-44298D01*
X57353Y-44312D01*
X57395Y-44312D01*
X57424Y-44298D01*
X57438Y-44284D01*
X57578Y-44284D02*
X57592Y-44298D01*
X57578Y-44312D01*
X57564Y-44298D01*
X57578Y-44284D01*
X57578Y-44312D01*
X57719Y-44284D02*
X57733Y-44298D01*
X57719Y-44312D01*
X57705Y-44298D01*
X57719Y-44284D01*
X57719Y-44312D01*
X57859Y-44284D02*
X57874Y-44298D01*
X57859Y-44312D01*
X57845Y-44298D01*
X57859Y-44284D01*
X57859Y-44312D01*
X55385Y-34076D02*
X55553Y-34076D01*
X55469Y-34371D02*
X55469Y-34076D01*
X55652Y-34371D02*
X55652Y-34076D01*
X55778Y-34371D02*
X55778Y-34216D01*
X55764Y-34188D01*
X55736Y-34174D01*
X55694Y-34174D01*
X55666Y-34188D01*
X55652Y-34202D01*
X56046Y-34371D02*
X56046Y-34216D01*
X56032Y-34188D01*
X56003Y-34174D01*
X55947Y-34174D01*
X55919Y-34188D01*
X56046Y-34357D02*
X56017Y-34371D01*
X55947Y-34371D01*
X55919Y-34357D01*
X55905Y-34329D01*
X55905Y-34301D01*
X55919Y-34273D01*
X55947Y-34258D01*
X56017Y-34258D01*
X56046Y-34244D01*
X56186Y-34174D02*
X56186Y-34371D01*
X56186Y-34202D02*
X56200Y-34188D01*
X56228Y-34174D01*
X56271Y-34174D01*
X56299Y-34188D01*
X56313Y-34216D01*
X56313Y-34371D01*
X56453Y-34371D02*
X56453Y-34076D01*
X56482Y-34258D02*
X56566Y-34371D01*
X56566Y-34174D02*
X56453Y-34287D01*
X56889Y-34174D02*
X56960Y-34371D01*
X57030Y-34174D02*
X56960Y-34371D01*
X56931Y-34441D01*
X56917Y-34455D01*
X56889Y-34469D01*
X57185Y-34371D02*
X57156Y-34357D01*
X57142Y-34343D01*
X57128Y-34315D01*
X57128Y-34230D01*
X57142Y-34202D01*
X57156Y-34188D01*
X57185Y-34174D01*
X57227Y-34174D01*
X57255Y-34188D01*
X57269Y-34202D01*
X57283Y-34230D01*
X57283Y-34315D01*
X57269Y-34343D01*
X57255Y-34357D01*
X57227Y-34371D01*
X57185Y-34371D01*
X57536Y-34174D02*
X57536Y-34371D01*
X57410Y-34174D02*
X57410Y-34329D01*
X57424Y-34357D01*
X57452Y-34371D01*
X57494Y-34371D01*
X57522Y-34357D01*
X57536Y-34343D01*
X57677Y-34343D02*
X57691Y-34357D01*
X57677Y-34371D01*
X57663Y-34357D01*
X57677Y-34343D01*
X57677Y-34371D01*
X57817Y-34343D02*
X57831Y-34357D01*
X57817Y-34371D01*
X57803Y-34357D01*
X57817Y-34343D01*
X57817Y-34371D01*
X57958Y-34343D02*
X57972Y-34357D01*
X57958Y-34371D01*
X57944Y-34357D01*
X57958Y-34343D01*
X57958Y-34371D01*
G54D11*
X53937Y-39173D02*
X53937Y-38976D01*
X53937Y-44488D02*
X59251Y-44488D01*
X53937Y-39173D02*
X53937Y-44488D01*
X53937Y-34645D02*
X59055Y-34645D01*
X53937Y-29133D02*
X53937Y-34645D01*
G54D12*
X39862Y-38779D02*
X58956Y-38779D01*
G54D11*
X39566Y-48720D02*
X39566Y-29035D01*
X59251Y-48720D02*
X39566Y-48720D01*
X59251Y-29035D02*
X59251Y-48720D01*
X39566Y-29035D02*
X59251Y-29035D01*
M02*
